<svg width="48" height="48" viewBox="0 0 48 48" fill="none" xmlns="http://www.w3.org/2000/svg">
<rect x="4" y="4" width="40" height="40" rx="20" stroke="#036FA4" stroke-width="8"/>
<path d="M13.5253 29V20.6H19.1653V21.848H14.9653V24.056H18.8053V25.304H14.9653V27.752H19.1653V29H13.5253ZM20.9081 29V20.6H23.9681C24.7201 20.6 25.3401 20.712 25.8281 20.936C26.3161 21.152 26.6761 21.46 26.9081 21.86C27.1481 22.26 27.2681 22.732 27.2681 23.276C27.2681 23.82 27.1481 24.292 26.9081 24.692C26.6761 25.092 26.3161 25.404 25.8281 25.628C25.3401 25.844 24.7201 25.952 23.9681 25.952H22.3481V29H20.9081ZM22.3481 24.704H23.8481C24.6081 24.704 25.1281 24.588 25.4081 24.356C25.6881 24.116 25.8281 23.756 25.8281 23.276C25.8281 22.804 25.6881 22.448 25.4081 22.208C25.1281 21.968 24.6081 21.848 23.8481 21.848H22.3481V24.704ZM31.65 29.132C30.93 29.132 30.334 29.028 29.862 28.82C29.39 28.612 29.03 28.328 28.782 27.968C28.542 27.6 28.398 27.184 28.35 26.72H29.79C29.854 27.048 30.018 27.32 30.282 27.536C30.546 27.752 31.002 27.86 31.65 27.86C32.322 27.86 32.798 27.752 33.078 27.536C33.366 27.312 33.51 27.04 33.51 26.72C33.51 26.456 33.43 26.24 33.27 26.072C33.11 25.904 32.862 25.76 32.526 25.64C32.198 25.512 31.778 25.396 31.266 25.292C30.69 25.164 30.202 25.004 29.802 24.812C29.402 24.612 29.098 24.348 28.89 24.02C28.69 23.692 28.59 23.272 28.59 22.76C28.59 22.336 28.706 21.952 28.938 21.608C29.17 21.264 29.51 20.988 29.958 20.78C30.414 20.572 30.978 20.468 31.65 20.468C32.306 20.468 32.85 20.568 33.282 20.768C33.722 20.96 34.058 21.228 34.29 21.572C34.53 21.916 34.67 22.312 34.71 22.76H33.27C33.206 22.456 33.042 22.212 32.778 22.028C32.522 21.836 32.146 21.74 31.65 21.74C31.074 21.74 30.658 21.84 30.402 22.04C30.154 22.24 30.03 22.48 30.03 22.76C30.03 23.144 30.19 23.432 30.51 23.624C30.83 23.816 31.322 23.98 31.986 24.116C32.482 24.22 32.914 24.344 33.282 24.488C33.65 24.624 33.958 24.792 34.206 24.992C34.454 25.184 34.638 25.424 34.758 25.712C34.886 25.992 34.95 26.328 34.95 26.72C34.95 27.184 34.826 27.6 34.578 27.968C34.338 28.328 33.974 28.612 33.486 28.82C32.998 29.028 32.386 29.132 31.65 29.132Z" fill="#1C1D1E"/>
</svg>
