<svg width="48" height="48" viewBox="0 0 48 48" fill="none" xmlns="http://www.w3.org/2000/svg">
<g clip-path="url(#clip0_72_13)">
<path d="M44 24C44 12.9543 35.0457 4 24 4C12.9543 4 4 12.9543 4 24C4 35.0457 12.9543 44 24 44C35.0457 44 44 35.0457 44 24Z" stroke="#8C7017" stroke-width="8"/>
<path d="M11.104 20.6H12.52V27.788H16.156V29H11.104V20.6ZM20.9222 20.6C22.0022 20.6 22.8342 20.852 23.4182 21.356C24.0102 21.852 24.3062 22.552 24.3062 23.456C24.3062 24.4 24.0102 25.136 23.4182 25.664C22.8342 26.184 22.0022 26.444 20.9222 26.444H18.9302V29H17.5142V20.6H20.9222ZM20.9222 25.232C21.5702 25.232 22.0702 25.092 22.4222 24.812C22.7822 24.524 22.9622 24.084 22.9622 23.492C22.9622 22.924 22.7822 22.504 22.4222 22.232C22.0702 21.952 21.5702 21.812 20.9222 21.812H18.9302V25.232H20.9222ZM20.9702 25.892H22.3622L24.4502 29H22.8422L20.9702 25.892ZM26.186 20.6H27.83L30.734 26.3L33.614 20.6H35.258V29H33.95L33.938 22.58L31.178 28.124H30.278L27.494 22.58V29H26.186V20.6Z" fill="#1C1D1E"/>
</g>
<defs>
<clipPath id="clip0_72_13">
<rect width="48" height="48" fill="white"/>
</clipPath>
</defs>
</svg>
