<svg width="48" height="48" viewBox="0 0 48 48" fill="none" xmlns="http://www.w3.org/2000/svg">
<rect x="4" y="4" width="40" height="40" rx="20" stroke="#EB6C20" stroke-width="8"/>
<path d="M15.0898 29V20.6H18.1498C18.9018 20.6 19.5218 20.712 20.0098 20.936C20.4978 21.152 20.8578 21.46 21.0898 21.86C21.3298 22.26 21.4498 22.732 21.4498 23.276C21.4498 23.82 21.3298 24.292 21.0898 24.692C20.8578 25.092 20.4978 25.404 20.0098 25.628C19.5218 25.844 18.9018 25.952 18.1498 25.952H16.5298V29H15.0898ZM16.5298 24.704H18.0298C18.7898 24.704 19.3098 24.588 19.5898 24.356C19.8698 24.116 20.0098 23.756 20.0098 23.276C20.0098 22.804 19.8698 22.448 19.5898 22.208C19.3098 21.968 18.7898 21.848 18.0298 21.848H16.5298V24.704ZM23.1316 29V20.6H24.5716V29H23.1316ZM26.8554 29V20.6H30.0354C30.7394 20.6 31.3234 20.712 31.7874 20.936C32.2594 21.16 32.6154 21.468 32.8554 21.86C33.0954 22.252 33.2154 22.704 33.2154 23.216C33.2154 23.792 33.0594 24.292 32.7474 24.716C32.4354 25.132 31.9674 25.432 31.3434 25.616L33.4554 29H31.8714L30.0114 25.784H28.2954V29H26.8554ZM28.2954 24.584H29.7954C30.5314 24.584 31.0434 24.464 31.3314 24.224C31.6274 23.984 31.7754 23.648 31.7754 23.216C31.7754 22.784 31.6274 22.448 31.3314 22.208C31.0434 21.968 30.5314 21.848 29.7954 21.848H28.2954V24.584Z" fill="#1C1D1E"/>
</svg>
