<svg width="48" height="48" viewBox="0 0 48 48" fill="none" xmlns="http://www.w3.org/2000/svg">
<rect x="4" y="4" width="40" height="40" rx="20" stroke="#F6BF11" stroke-width="8"/>
<path d="M12.6288 29V20.6H15.6888C16.4408 20.6 17.0608 20.712 17.5488 20.936C18.0368 21.152 18.3968 21.46 18.6288 21.86C18.8688 22.26 18.9888 22.732 18.9888 23.276C18.9888 23.82 18.8688 24.292 18.6288 24.692C18.3968 25.092 18.0368 25.404 17.5488 25.628C17.0608 25.844 16.4408 25.952 15.6888 25.952H14.0688V29H12.6288ZM14.0688 24.704H15.5688C16.3288 24.704 16.8488 24.588 17.1288 24.356C17.4088 24.116 17.5488 23.756 17.5488 23.276C17.5488 22.804 17.4088 22.448 17.1288 22.208C16.8488 21.968 16.3288 21.848 15.5688 21.848H14.0688V24.704ZM23.8507 29.132C23.1547 29.132 22.5507 29.004 22.0387 28.748C21.5267 28.492 21.1307 28.108 20.8507 27.596C20.5707 27.076 20.4307 26.424 20.4307 25.64V20.6H21.8707V25.556C21.8707 26.348 22.0387 26.932 22.3747 27.308C22.7107 27.676 23.2027 27.86 23.8507 27.86C24.5067 27.86 24.9987 27.676 25.3267 27.308C25.6627 26.932 25.8307 26.352 25.8307 25.568V20.6H27.2707V25.64C27.2707 26.424 27.1307 27.076 26.8507 27.596C26.5707 28.108 26.1747 28.492 25.6627 28.748C25.1507 29.004 24.5467 29.132 23.8507 29.132ZM29.3163 29V20.6H32.4963C33.2003 20.6 33.7843 20.712 34.2483 20.936C34.7203 21.16 35.0763 21.468 35.3163 21.86C35.5563 22.252 35.6763 22.704 35.6763 23.216C35.6763 23.792 35.5203 24.292 35.2083 24.716C34.8963 25.132 34.4283 25.432 33.8043 25.616L35.9163 29H34.3323L32.4723 25.784H30.7563V29H29.3163ZM30.7563 24.584H32.2563C32.9923 24.584 33.5043 24.464 33.7923 24.224C34.0883 23.984 34.2363 23.648 34.2363 23.216C34.2363 22.784 34.0883 22.448 33.7923 22.208C33.5043 21.968 32.9923 21.848 32.2563 21.848H30.7563V24.584Z" fill="#1C1D1E"/>
</svg>
