<svg width="103" height="32" viewBox="0 0 103 32" fill="none" xmlns="http://www.w3.org/2000/svg">
<g clip-path="url(#clip0_2282_7310)">
<path opacity="0.95" d="M8.78678 8.92832C12.6908 5.02434 19.0257 5.02434 22.9298 8.92832C23.9295 9.92799 24.6714 11.0908 25.1607 12.3272L31.7166 13.9688C31.2851 10.5752 29.7803 7.29202 27.1759 4.68235C20.9199 -1.56296 10.7914 -1.56296 4.54071 4.68761C1.93625 7.29202 0.431447 10.5752 0 13.9688L6.55589 12.3272C7.04521 11.0908 7.78183 9.92799 8.78678 8.92832Z" fill="white"/>
<path opacity="0.95" d="M25.145 19.6933C24.6557 20.9245 23.9191 22.0767 22.9247 23.0712C19.0206 26.9751 12.691 26.9751 8.78163 23.0712C7.7872 22.0767 7.05058 20.9245 6.56126 19.6933L0.00537109 18.0518C0.442079 21.4401 1.94162 24.7127 4.54608 27.3119C10.7968 33.5624 20.9253 33.5624 27.176 27.3119C29.7752 24.7127 31.28 21.4349 31.7167 18.0518L25.145 19.6933Z" fill="white"/>
<path opacity="0.95" d="M42.7607 8.76562V22.4401H51.3791C52.8944 22.4401 54.1256 21.2089 54.1256 19.6936H58.8242C58.8242 23.7239 55.5568 26.9859 51.5264 26.9859L38.2095 26.9912V8.77615L42.7607 8.76562Z" fill="white"/>
<path opacity="0.95" d="M76.8606 8.76562H69.1419V8.77089H61.7021C57.6717 8.77089 54.4043 12.0382 54.4043 16.0632H59.1029C59.1029 14.5479 60.3341 13.3168 61.8494 13.3168H65.4904V26.9912H70.0363V13.2431H76.8553V8.76562H76.8606Z" fill="white"/>
<path opacity="0.95" d="M98.4539 8.76562V18.8991C92.8188 12.1645 84.816 8.76562 84.816 8.76562H80.27V26.9912H84.816V14.0376C87.4468 15.3898 94.1921 19.42 98.4539 26.9912H103V8.76562H98.4539Z" fill="white"/>
<path opacity="0.95" d="M40.861 5.02446C40.8295 5.07182 40.7821 5.12443 40.7242 5.17705C40.6664 5.23492 40.5927 5.28754 40.498 5.33489C40.4033 5.38224 40.2875 5.42433 40.156 5.46116C40.0192 5.49799 39.8561 5.51378 39.6667 5.51378C39.4615 5.51378 39.272 5.47695 39.1037 5.40329C38.93 5.32963 38.7827 5.2244 38.6617 5.0876C38.5354 4.9508 38.4407 4.78244 38.3723 4.58777C38.3039 4.38783 38.2671 4.16685 38.2671 3.9143V3.65123C38.2671 3.39868 38.2987 3.1777 38.3565 2.97777C38.4144 2.77783 38.5039 2.61473 38.6196 2.47793C38.7354 2.34114 38.8774 2.23591 39.0458 2.16225C39.2142 2.08859 39.4036 2.05176 39.6246 2.05176C39.8192 2.05176 39.9876 2.07806 40.1297 2.13068C40.2717 2.18329 40.398 2.25169 40.498 2.3464C40.598 2.43584 40.6821 2.54633 40.74 2.67261C40.7979 2.79888 40.84 2.93568 40.861 3.08826H40.4191C40.4033 2.99881 40.377 2.90937 40.3401 2.83045C40.3033 2.75153 40.256 2.67787 40.1928 2.61999C40.1297 2.55685 40.0507 2.5095 39.9613 2.47793C39.8666 2.4411 39.7561 2.42532 39.6298 2.42532C39.472 2.42532 39.3352 2.45163 39.2247 2.5095C39.1037 2.56212 39.009 2.6463 38.9353 2.75153C38.8616 2.85676 38.8038 2.98829 38.7722 3.13561C38.7354 3.28819 38.7196 3.45656 38.7196 3.64597V3.9143C38.7196 4.10898 38.7406 4.2826 38.788 4.43518C38.8353 4.58777 38.8985 4.7193 38.9827 4.82453C39.0668 4.92976 39.1668 5.01394 39.2826 5.06656C39.3983 5.12443 39.5299 5.15074 39.6719 5.15074C39.7929 5.15074 39.8929 5.14022 39.9771 5.12443C40.0613 5.10865 40.1297 5.0876 40.1875 5.06656C40.2454 5.04025 40.2928 5.01394 40.3296 4.98763C40.3664 4.96133 40.3928 4.93502 40.4191 4.90871V4.15107H39.6403V3.79329H40.861V5.02446Z" fill="white"/>
<path opacity="0.95" d="M44.255 4.10383H43.4658V5.46128H43.0186V2.10449H44.1287C44.5076 2.10449 44.797 2.18867 45.0022 2.3623C45.2074 2.53593 45.3073 2.78322 45.3073 3.11469C45.3073 3.32514 45.2495 3.50403 45.139 3.66187C45.0285 3.81972 44.8706 3.93547 44.6654 4.00913L45.4547 5.43498V5.46128H44.9811L44.255 4.10383ZM43.4605 3.7408H44.1393C44.2603 3.7408 44.3655 3.72501 44.455 3.69344C44.5444 3.66187 44.6181 3.61452 44.6812 3.55665C44.7391 3.49877 44.7864 3.43563 44.818 3.35671C44.8496 3.28305 44.8654 3.19887 44.8654 3.10942C44.8654 3.01472 44.8496 2.92527 44.8233 2.84635C44.797 2.76743 44.7496 2.69903 44.6917 2.64116C44.6339 2.58328 44.5549 2.54119 44.4655 2.50962C44.3708 2.47805 44.2603 2.46227 44.134 2.46227H43.4605V3.7408Z" fill="white"/>
<path opacity="0.95" d="M49.7164 2.10449V4.38269C49.7164 4.5721 49.6848 4.73521 49.6164 4.87726C49.548 5.01932 49.4638 5.13507 49.3481 5.22978C49.2376 5.32449 49.106 5.39288 48.9587 5.44024C48.8114 5.48759 48.6535 5.50864 48.4904 5.50864C48.3168 5.50864 48.159 5.48233 48.0116 5.44024C47.8643 5.39288 47.738 5.32449 47.6275 5.22978C47.517 5.13507 47.4329 5.01932 47.3697 4.87726C47.3118 4.73521 47.2803 4.56684 47.2803 4.37743V2.10449H47.717V4.38269C47.717 4.51423 47.738 4.62472 47.7749 4.72468C47.8117 4.81939 47.8643 4.89831 47.9327 4.96671C48.0011 5.02985 48.08 5.0772 48.1747 5.10877C48.2694 5.14034 48.3747 5.15612 48.4904 5.15612C48.6062 5.15612 48.7114 5.14034 48.8114 5.10877C48.9061 5.0772 48.9903 5.02985 49.0534 4.96671C49.1218 4.90357 49.1744 4.82465 49.2113 4.72468C49.2481 4.62998 49.2691 4.51423 49.2691 4.38269V2.10449H49.7164Z" fill="white"/>
<path opacity="0.95" d="M52.2789 4.15119V5.46654H51.8369V2.10449H53.0786C53.2681 2.10449 53.4364 2.1308 53.5837 2.17815C53.7311 2.23077 53.8521 2.29917 53.9521 2.39387C54.052 2.48332 54.1257 2.59381 54.1783 2.72008C54.2309 2.84635 54.2572 2.98315 54.2572 3.13047C54.2572 3.29357 54.2309 3.43563 54.1783 3.56191C54.1257 3.68818 54.052 3.79341 53.9521 3.88285C53.8521 3.96704 53.7311 4.03544 53.5837 4.08279C53.4364 4.13014 53.2681 4.15119 53.0786 4.15119H52.2789ZM52.2789 3.78815H53.0734C53.2049 3.78815 53.3154 3.77236 53.4049 3.7408C53.4996 3.70923 53.5732 3.66187 53.6311 3.604C53.689 3.54612 53.7363 3.47772 53.7626 3.3988C53.7889 3.31988 53.8047 3.23044 53.8047 3.13573C53.8047 3.05155 53.7889 2.96737 53.7626 2.88318C53.7363 2.80426 53.689 2.7306 53.6311 2.66747C53.5732 2.60433 53.4943 2.55697 53.4049 2.52014C53.3101 2.48331 53.1997 2.46227 53.0734 2.46227H52.2789V3.78815Z" fill="white"/>
<path opacity="0.95" d="M58.824 3.89348C58.824 4.14603 58.7924 4.37227 58.7292 4.5722C58.6661 4.77213 58.5767 4.9405 58.4556 5.08256C58.3399 5.22462 58.1978 5.32985 58.0295 5.40351C57.8611 5.47717 57.6769 5.514 57.4717 5.514C57.2718 5.514 57.0929 5.47717 56.9245 5.40351C56.7562 5.32985 56.6141 5.22462 56.4931 5.08256C56.3721 4.9405 56.2826 4.77213 56.2142 4.5722C56.1458 4.37227 56.1143 4.14603 56.1143 3.89348V3.68302C56.1143 3.43047 56.1458 3.20423 56.2142 3.0043C56.2826 2.80436 56.3721 2.63073 56.4931 2.49394C56.6141 2.35188 56.7562 2.24665 56.9193 2.17299C57.0824 2.09933 57.2665 2.0625 57.4665 2.0625C57.6717 2.0625 57.8558 2.09933 58.0242 2.17299C58.1926 2.24665 58.3346 2.35714 58.4504 2.49394C58.5661 2.636 58.6608 2.80436 58.724 3.0043C58.7871 3.20423 58.8187 3.43047 58.8187 3.68302V3.89348H58.824ZM58.382 3.67776C58.382 3.47782 58.3609 3.29894 58.3188 3.14635C58.2768 2.99377 58.2189 2.86224 58.14 2.75701C58.061 2.65178 57.9663 2.57286 57.8506 2.52024C57.7401 2.46763 57.6085 2.44132 57.4665 2.44132C57.3297 2.44132 57.2034 2.46763 57.0929 2.52024C56.9824 2.57286 56.8824 2.65178 56.8035 2.75701C56.7246 2.86224 56.6615 2.99377 56.6194 3.14635C56.5773 3.29894 56.5562 3.47782 56.5562 3.67776V3.89348C56.5562 4.09341 56.5773 4.2723 56.6194 4.42488C56.6615 4.57746 56.7246 4.709 56.8035 4.81423C56.8824 4.91945 56.9772 4.99838 57.0929 5.05099C57.2034 5.10361 57.3297 5.12991 57.4665 5.12991C57.6085 5.12991 57.7401 5.10361 57.8506 5.05099C57.9611 4.99838 58.0558 4.91945 58.1347 4.81423C58.2136 4.709 58.2715 4.57746 58.3136 4.42488C58.3557 4.2723 58.3715 4.09341 58.3715 3.89348V3.67776H58.382Z" fill="white"/>
</g>
<defs>
<clipPath id="clip0_2282_7310">
<rect width="103" height="32" fill="white"/>
</clipPath>
</defs>
</svg>
