<svg width="143" height="28" viewBox="0 0 143 28" fill="none" xmlns="http://www.w3.org/2000/svg">
<path d="M5.07604 18.1801C5.14064 18.4763 5.24291 18.7187 5.39363 18.9073C5.66816 19.3059 6.06649 19.5052 6.59401 19.5052C7.03541 19.5052 7.41759 19.3813 7.74594 19.1281C8.0743 18.875 8.23578 18.5194 8.23578 18.0562C8.23578 17.5498 8.03124 17.162 7.62214 16.8873C7.21304 16.6125 6.70167 16.3701 6.0934 16.1601C5.48514 15.95 4.82843 15.7291 4.12327 15.4975C3.41812 15.2659 2.76141 14.9481 2.15315 14.5494C1.54488 14.1508 1.03351 13.6175 0.624412 12.955C0.204549 12.2924 0 11.4252 0 10.3532C0 9.59369 0.134572 8.89881 0.409098 8.25241C0.683624 7.61139 1.0981 7.04579 1.65254 6.56099C2.21236 6.07618 2.91213 5.69912 3.76801 5.42439C4.62388 5.14967 5.62509 5.01501 6.78241 5.01501C11.051 5.01501 13.1826 6.80339 13.1826 10.3801H8.2627C8.2627 9.64217 8.13351 9.14121 7.86975 8.88265C7.60599 8.6187 7.23457 8.48942 6.75011 8.48942C6.33025 8.48942 5.98036 8.60793 5.71122 8.83417C5.43669 9.0658 5.30212 9.39438 5.30212 9.81454C5.30212 10.2993 5.50667 10.6603 5.91577 10.9027C6.32487 11.1451 6.83624 11.3605 7.4445 11.5491C8.05277 11.7376 8.70948 11.9369 9.41463 12.147C10.1198 12.3571 10.7765 12.6587 11.3848 13.0466C11.993 13.4344 12.5044 13.9623 12.9135 14.6249C13.3226 15.2874 13.5271 16.1654 13.5271 17.2589C13.5271 18.0993 13.371 18.8696 13.0534 19.5644C12.7359 20.2593 12.2891 20.8573 11.7131 21.3636C11.1371 21.87 10.4212 22.247 9.57074 22.5002C8.72024 22.7534 7.75671 22.8773 6.68552 22.8773C4.30629 22.8773 2.59992 22.4032 1.56103 21.4552C0.522138 20.5179 0 19.1066 0 17.232H4.98453C4.98453 17.5714 5.01683 17.8892 5.07604 18.1801Z" fill="white"/>
<path d="M20.977 4.22855H15.2981V0H20.977V4.22855ZM20.977 22.5379H15.2981V5.4621H20.977V22.5379Z" fill="white"/>
<path d="M31.3229 9.72297C31.113 9.40516 30.7577 9.24894 30.2517 9.24894C29.7457 9.24894 29.3904 9.40516 29.1805 9.72297C28.9706 10.0408 28.8629 10.5525 28.8629 11.269V22.5379H23.184V5.4621H28.6745V7.54675H28.7391C29.4766 5.8661 30.8546 5.02039 32.8732 5.02039C34.052 5.02039 34.951 5.23586 35.57 5.6668C36.189 6.09773 36.6788 6.75491 37.0395 7.63832C37.4809 6.66872 38.0838 5.99 38.8535 5.60216C39.6233 5.21431 40.4469 5.02039 41.3296 5.02039C41.9594 5.02039 42.5462 5.09042 43.0791 5.22509C43.6174 5.35975 44.0857 5.60754 44.484 5.96845C44.8823 6.32397 45.1999 6.798 45.4314 7.39054C45.6629 7.97768 45.7813 8.73721 45.7813 9.66372V22.5433H40.0916V11.269C40.0916 10.5525 39.9839 10.0354 39.774 9.72297C39.5641 9.40516 39.2088 9.24894 38.7028 9.24894C38.1968 9.24894 37.8416 9.40516 37.6316 9.72297C37.4217 10.0408 37.314 10.5525 37.314 11.269V22.5379H31.6351V11.269C31.6351 10.5525 31.5328 10.0354 31.3229 9.72297Z" fill="white"/>
<path d="M53.4626 5.4621V7.79992H53.5272C54.1786 5.9469 55.4704 5.02039 57.4083 5.02039C59.303 5.02039 60.6272 5.79069 61.3808 7.3259C62.1398 8.8611 62.5166 11.2097 62.5166 14.3663C62.5166 16.0092 62.3928 17.3775 62.1398 18.471C61.8868 19.5645 61.5369 20.4425 61.0848 21.105C60.6326 21.7676 60.0836 22.2309 59.443 22.4948C58.8024 22.7588 58.0811 22.888 57.2845 22.888C56.4878 22.888 55.7665 22.7318 55.1259 22.414C54.4854 22.0962 54.0171 21.4983 53.721 20.6149H53.6564V28H47.9775V5.4621H53.4626ZM53.7156 16.2893C53.7587 16.898 53.834 17.3882 53.9525 17.7545C54.0655 18.1208 54.2324 18.3794 54.4423 18.5302C54.6522 18.6756 54.916 18.7511 55.2282 18.7511C55.5619 18.7511 55.8365 18.6756 56.0464 18.5302C56.2563 18.3848 56.4178 18.1262 56.5362 17.7545C56.6493 17.3882 56.73 16.898 56.7731 16.2893C56.8162 15.6806 56.8377 14.9104 56.8377 13.9838C56.8377 13.0573 56.8162 12.2978 56.7731 11.6945C56.73 11.0966 56.6493 10.6118 56.5362 10.2401C56.4232 9.8738 56.2563 9.61524 56.0464 9.46441C55.8365 9.31897 55.5619 9.24356 55.2282 9.24356C54.9106 9.24356 54.6469 9.31897 54.4423 9.46441C54.2324 9.60985 54.0709 9.86841 53.9525 10.2401C53.834 10.6064 53.7587 11.0912 53.7156 11.6945C53.6726 12.2924 53.651 13.0573 53.651 13.9838C53.651 14.9104 53.6726 15.6753 53.7156 16.2893Z" fill="white"/>
<path d="M70.058 0H64.3791V22.5379H70.058V0Z" fill="white"/>
<path d="M77.594 17.2051C77.594 18.1316 77.7501 18.7457 78.0677 19.0527C78.3853 19.3598 78.7406 19.5106 79.1389 19.5106C79.6449 19.5106 80.0378 19.3059 80.3231 18.8965C80.6084 18.4871 80.7484 17.7007 80.7484 16.5479H85.8567C85.8136 18.6541 85.2754 20.2378 84.2472 21.299C83.2191 22.3601 81.5235 22.8934 79.1712 22.8934C77.8039 22.8934 76.6574 22.7426 75.7315 22.4356C74.8057 22.1285 74.0629 21.6276 73.4923 20.9219C72.9271 20.2162 72.518 19.2951 72.2757 18.1585C72.0335 17.0219 71.9151 15.6429 71.9151 14.0215C71.9151 12.3786 72.0497 10.9888 72.3242 9.85225C72.5987 8.71566 73.0293 7.78915 73.6161 7.07272C74.2028 6.35629 74.9564 5.83917 75.8715 5.51058C76.7866 5.18738 77.8847 5.02039 79.1658 5.02039C80.3016 5.02039 81.292 5.16045 82.1479 5.42978C82.9984 5.7045 83.7143 6.16237 84.2903 6.80339C84.8663 7.4444 85.3023 8.28473 85.5822 9.32974C85.8675 10.3694 86.0074 11.673 86.0074 13.2297V14.9642H77.5833V17.2051H77.594ZM80.3823 9.11966C80.1616 8.6995 79.7472 8.48942 79.1389 8.48942C78.5522 8.48942 78.1431 8.6995 77.9224 9.11966C77.7017 9.53982 77.5886 10.2024 77.5886 11.1074V11.8669H80.7107V11.1074C80.7161 10.2078 80.603 9.54521 80.3823 9.11966Z" fill="white"/>
<path d="M88.4136 5.4621V0.441708H94.0925V5.4621H96.3318V9.28126H94.0925V17.4259C94.0925 17.9107 94.2055 18.2501 94.4262 18.4494C94.6469 18.6487 94.9861 18.7511 95.449 18.7511H96.3318V22.5379C95.8043 22.5379 95.2821 22.5541 94.7546 22.5864C94.2271 22.6187 93.7211 22.6349 93.242 22.6349C92.3807 22.6349 91.6433 22.5972 91.035 22.5217C90.4268 22.4463 89.9262 22.2632 89.5386 21.9669C89.151 21.6706 88.8657 21.2343 88.6881 20.6579C88.5105 20.0816 88.419 19.3167 88.419 18.3686V9.28126H86.5242V5.4621H88.4136Z" fill="white"/>
<path d="M102.7 17.2051C102.7 18.1316 102.856 18.7457 103.173 19.0527C103.491 19.3598 103.846 19.5106 104.245 19.5106C104.751 19.5106 105.144 19.3059 105.429 18.8965C105.714 18.4871 105.854 17.7007 105.854 16.5479H110.962C110.919 18.6541 110.381 20.2378 109.353 21.299C108.325 22.3601 106.629 22.8934 104.277 22.8934C102.91 22.8934 101.763 22.7426 100.837 22.4356C99.9114 22.1285 99.1685 21.6276 98.598 20.9219C98.0328 20.2162 97.6237 19.2951 97.3814 18.1585C97.1392 17.0219 97.0208 15.6429 97.0208 14.0215C97.0208 12.3786 97.1554 10.9888 97.4299 9.85225C97.7044 8.71566 98.135 7.78915 98.7218 7.07272C99.3085 6.35629 100.062 5.83917 100.977 5.51058C101.892 5.18738 102.99 5.02039 104.271 5.02039C105.407 5.02039 106.398 5.16045 107.254 5.42978C108.104 5.7045 108.82 6.16237 109.396 6.80339C109.972 7.4444 110.408 8.28473 110.688 9.32974C110.973 10.3694 111.113 11.673 111.113 13.2297V14.9642H102.689V17.2051H102.7ZM105.493 9.11966C105.273 8.6995 104.858 8.48942 104.25 8.48942C103.663 8.48942 103.254 8.6995 103.033 9.11966C102.813 9.53982 102.705 10.2024 102.705 11.1074V11.8669H105.827V11.1074C105.822 10.2078 105.714 9.54521 105.493 9.11966Z" fill="white"/>
<path d="M121.088 10.4663C121.023 10.0354 120.931 9.68526 120.802 9.41054C120.571 8.92574 120.151 8.68334 119.543 8.68334C119.225 8.68334 118.961 8.76414 118.741 8.92035C118.52 9.07657 118.348 9.36206 118.218 9.77145C118.089 10.1808 118.003 10.7303 117.949 11.4144C117.896 12.0985 117.869 12.9658 117.869 14.0162C117.869 15.0666 117.896 15.9392 117.949 16.6179C118.003 17.302 118.089 17.8461 118.218 18.2447C118.342 18.6433 118.52 18.9234 118.741 19.0796C118.961 19.2359 119.23 19.3167 119.543 19.3167C120.07 19.3167 120.474 19.1174 120.759 18.7187C121.044 18.3201 121.184 17.5821 121.184 16.5102V15.4059H126.293C126.293 16.7526 126.174 17.9 125.943 18.848C125.711 19.7961 125.324 20.5718 124.775 21.1858C123.704 22.3224 121.954 22.888 119.537 22.888C118.445 22.888 117.443 22.7911 116.539 22.6025C115.635 22.414 114.86 22.01 114.219 21.3851C113.578 20.7657 113.078 19.893 112.723 18.7672C112.367 17.6414 112.184 16.1547 112.184 14.3017C112.184 12.2816 112.383 10.6603 112.782 9.44286C113.18 8.22008 113.724 7.28819 114.407 6.6364C115.091 5.98461 115.893 5.55367 116.819 5.34359C117.745 5.13351 118.746 5.02578 119.817 5.02578C121.077 5.02578 122.126 5.19815 122.955 5.54829C123.784 5.89304 124.446 6.37784 124.942 6.99731C125.437 7.61678 125.781 8.36553 125.981 9.23817C126.18 10.1108 126.282 11.0858 126.282 12.1578H121.174C121.184 11.4575 121.152 10.8973 121.088 10.4663Z" fill="white"/>
<path d="M133.549 0V7.35283H133.614C134.098 6.44786 134.701 5.83378 135.428 5.50519C136.154 5.17661 136.865 5.01501 137.559 5.01501C138.146 5.01501 138.711 5.09042 139.249 5.23586C139.788 5.3813 140.261 5.63447 140.67 5.99538C141.08 6.35629 141.408 6.83032 141.65 7.43363C141.892 8.03155 142.011 8.77491 142.011 9.65833V22.5379H136.332V11.2689C136.332 10.5525 136.224 10.0354 136.014 9.72297C135.804 9.40515 135.449 9.24894 134.943 9.24894C134.437 9.24894 134.082 9.40515 133.872 9.72297C133.662 10.0408 133.554 10.5525 133.554 11.2689V22.5379H127.875V0H133.549Z" fill="white"/>
</svg>
