<svg width="210" height="48" viewBox="0 0 210 48" fill="none" xmlns="http://www.w3.org/2000/svg">
<path d="M13.9863 19.8615L0 24.0079L13.9863 28.1385C13.4411 26.8249 13.1645 25.4085 13.1645 24.0079C13.1645 22.5915 13.4411 21.183 13.9863 19.8615Z" fill="white"/>
<path d="M33.9464 19.8615L47.9327 24.0079L33.9464 28.1385C34.4995 26.8249 34.7682 25.4085 34.7682 24.0079C34.7682 22.5915 34.4995 21.183 33.9464 19.8615Z" fill="white"/>
<path d="M19.8337 33.9941L23.9743 48L28.1069 33.9941C26.7873 34.548 25.3808 34.817 23.9743 34.817C22.5598 34.8091 21.1533 34.548 19.8337 33.9941Z" fill="white"/>
<path d="M28.099 14.0059L23.9664 0L19.8337 14.0059C21.1533 13.4679 22.5598 13.1909 23.9664 13.1909C25.3729 13.1909 26.7794 13.4599 28.099 14.0059Z" fill="white"/>
<path d="M23.9664 24.0079L13.9863 28.1385L7.01686 40.9812L19.8258 33.9941L23.9664 24.0079Z" fill="white"/>
<path d="M23.9664 24.0079L19.8337 14.0059L7.01686 7.01879L13.9784 19.8536L13.9863 19.8615L23.9664 24.0079Z" fill="white"/>
<path d="M23.9664 24.0079L33.9464 28.1385L40.9159 40.9812L28.1069 33.9941L23.9664 24.0079Z" fill="white"/>
<path d="M23.9664 24.0079L28.099 14.0059L40.9159 7.01879L33.9543 19.8536L33.9464 19.8615L23.9664 24.0079Z" fill="white"/>
<path d="M94.3246 10.5163H91.7091V26.6983H94.3246V10.5163Z" fill="white"/>
<path d="M75.4075 26.6746V20.8586H81.2549L84.4472 26.6746H87.363L84.0047 20.5104C85.9644 19.7745 87.363 17.8991 87.363 15.6835C87.363 12.8348 85.0478 10.5084 82.2031 10.5084H72.792V26.6904H72.8552V26.6667H75.4075V26.6746ZM75.4075 13.1355H82.1873C83.5938 13.1355 84.7396 14.2829 84.7396 15.6914C84.7396 17.0999 83.5938 18.2473 82.1873 18.2473H75.4075V13.1355Z" fill="white"/>
<path d="M106.256 26.6983C101.8 26.6983 98.1807 23.0663 98.1807 18.6113C98.1807 14.1563 101.808 10.5242 106.256 10.5242C110.705 10.5242 114.332 14.1563 114.332 18.6113C114.332 23.0663 110.713 26.6983 106.256 26.6983ZM106.256 13.0326C103.183 13.0326 100.686 15.5331 100.686 18.6113C100.686 21.6894 103.183 24.1899 106.256 24.1899C109.33 24.1899 111.827 21.6894 111.827 18.6113C111.827 15.5331 109.33 13.0326 106.256 13.0326Z" fill="white"/>
<path d="M63.1912 13.2226H69.2362V10.6034H63.1833C59.3509 10.6113 56.2376 13.729 56.2376 17.5668V26.6983H58.8531V21.1039H68.3907V18.4847H58.8531V17.5668C58.8531 15.1691 60.797 13.2226 63.1912 13.2226Z" fill="white"/>
<path d="M140.835 10.5559C136.979 10.5559 133.842 13.6973 133.842 17.5589V26.7379H136.473V21.1118H145.197V26.7379H147.82V17.5589C147.82 13.6973 144.691 10.5559 140.835 10.5559ZM136.473 18.4847V17.5589C136.473 15.1533 138.433 13.1909 140.835 13.1909C143.237 13.1909 145.197 15.1533 145.197 17.5589V18.4847H136.473Z" fill="white"/>
<path d="M203.007 10.5559C199.151 10.5559 196.014 13.6973 196.014 17.5589V26.7379H198.645V21.1118H207.369V26.7379H209.992V17.5589C210 13.6973 206.863 10.5559 203.007 10.5559ZM198.645 18.4847V17.5589C198.645 15.1533 200.605 13.1909 203.007 13.1909C205.409 13.1909 207.369 15.1533 207.369 17.5589V18.4847H198.645Z" fill="white"/>
<path d="M171.794 10.4768H169.163V26.7458H171.794V10.4768Z" fill="white"/>
<path d="M188.973 10.4768V19.0544C185.409 13.2779 179.76 10.6034 179.443 10.4768H176.781V26.7458H179.404V13.3808C181.767 14.6706 187.74 18.9041 188.973 26.4451V26.7458H191.604V10.4768H188.973Z" fill="white"/>
<path d="M128.334 21.7685C127.71 23.1454 126.327 24.1029 124.723 24.1029H120.559V10.4768H117.927L117.935 26.7458H124.731C127.805 26.7458 130.389 24.6251 131.124 21.7765H128.334V21.7685Z" fill="white"/>
<path d="M164.944 10.4768H156.236C153.162 10.4768 150.578 12.5974 149.843 15.4461H152.625C153.257 14.0692 154.632 13.1118 156.236 13.1118H157.326V26.7379H159.957L159.95 13.1118H164.944V10.4768Z" fill="white"/>
<path d="M58.0708 35.2997H57.0515V37.0564H56.4746V32.7043H57.9128C58.4027 32.7043 58.782 32.815 59.0428 33.0366C59.3035 33.2582 59.4378 33.5826 59.4378 34.0099C59.4378 34.2789 59.3667 34.5163 59.2166 34.7221C59.0744 34.9199 58.8689 35.0702 58.6081 35.1731L59.6275 37.0168V37.0564H59.0111L58.0708 35.2997ZM57.0515 34.8249H57.9286C58.0866 34.8249 58.221 34.8012 58.3395 34.7616C58.458 34.7221 58.5528 34.6588 58.6319 34.5875C58.7109 34.5163 58.7662 34.4293 58.8057 34.3264C58.8452 34.2315 58.861 34.1207 58.861 34.0099C58.861 33.8833 58.8452 33.7725 58.8057 33.6696C58.7662 33.5668 58.7109 33.4797 58.6319 33.4085C58.5528 33.3373 58.458 33.274 58.3395 33.2423C58.221 33.2107 58.0787 33.179 57.9128 33.179H57.0515V34.8249Z" fill="white"/>
<path d="M63.4283 35.0465H61.5476V36.5895H63.7365V37.0564H60.9708V32.7043H63.7048V33.179H61.5476V34.5796H63.4283V35.0465Z" fill="white"/>
<path d="M67.5768 35.1335H65.7514V37.0564H65.1825V32.7043H67.8691V33.179H65.7514V34.6667H67.5768V35.1335Z" fill="white"/>
<path d="M70.8876 35.2997H69.8683V37.0564H69.2915V32.7043H70.7296C71.2195 32.7043 71.5988 32.815 71.8596 33.0366C72.1203 33.2582 72.2547 33.5826 72.2547 34.0099C72.2547 34.2789 72.1836 34.5163 72.0334 34.7221C71.8912 34.9199 71.6857 35.0702 71.425 35.1731L72.4443 37.0168V37.0564H71.828L70.8876 35.2997ZM69.8604 34.8249H70.7375C70.8955 34.8249 71.0299 34.8012 71.1484 34.7616C71.2669 34.7221 71.3618 34.6588 71.4408 34.5875C71.5198 34.5163 71.5751 34.4293 71.6146 34.3264C71.6541 34.2315 71.6699 34.1207 71.6699 34.0099C71.6699 33.8833 71.6541 33.7725 71.6146 33.6696C71.5751 33.5668 71.5198 33.4797 71.4408 33.4085C71.3618 33.3373 71.2669 33.274 71.1484 33.2423C71.0299 33.2107 70.8876 33.179 70.7217 33.179H69.8604V34.8249Z" fill="white"/>
<path d="M74.3961 32.7043H73.8271V37.0564H74.3961V32.7043Z" fill="white"/>
<path d="M79.39 36.4866C79.3505 36.55 79.2952 36.6133 79.2162 36.6845C79.1451 36.7557 79.0424 36.8269 78.9238 36.8902C78.8053 36.9535 78.6552 37.0089 78.4813 37.0485C78.3075 37.0959 78.0941 37.1118 77.8492 37.1118C77.5884 37.1118 77.3435 37.0643 77.1222 36.9693C76.901 36.8744 76.7113 36.7399 76.5533 36.5658C76.3952 36.3917 76.2688 36.178 76.1819 35.9169C76.095 35.6637 76.0476 35.3709 76.0476 35.0465V34.7062C76.0476 34.3818 76.0871 34.089 76.1661 33.8358C76.2451 33.5826 76.3557 33.361 76.5059 33.1869C76.656 33.0129 76.8377 32.8783 77.0511 32.7834C77.2644 32.6884 77.5173 32.6409 77.7939 32.6409C78.0467 32.6409 78.2601 32.6726 78.4497 32.7438C78.6394 32.815 78.7974 32.9021 78.9238 33.0208C79.0582 33.1395 79.1609 33.2819 79.2399 33.4402C79.3189 33.6063 79.3742 33.7804 79.3979 33.9703H78.829C78.8053 33.8516 78.7737 33.7408 78.7263 33.638C78.6789 33.5351 78.6157 33.4402 78.5366 33.361C78.4576 33.2819 78.3549 33.2186 78.2364 33.179C78.1178 33.1316 77.9756 33.1078 77.8097 33.1078C77.6042 33.1078 77.4304 33.1474 77.2881 33.2186C77.138 33.2898 77.0195 33.4006 76.9247 33.5351C76.8298 33.6696 76.7587 33.8358 76.7113 34.0336C76.6639 34.2315 76.6402 34.4451 76.6402 34.6904V35.0386C76.6402 35.2918 76.6718 35.5134 76.7271 35.7112C76.7903 35.909 76.8693 36.0752 76.98 36.2097C77.0906 36.3442 77.217 36.455 77.3672 36.5262C77.5173 36.5974 77.6911 36.637 77.8729 36.637C78.0309 36.637 78.1574 36.6291 78.268 36.6053C78.3786 36.5895 78.4655 36.5579 78.5445 36.5262C78.6236 36.4946 78.6789 36.4629 78.7263 36.4233C78.7737 36.3838 78.8132 36.3521 78.8369 36.3205V35.3393H77.8334V34.8724H79.4058V36.4866H79.39Z" fill="white"/>
<path d="M83.5306 35.0465H81.65V36.5895H83.8388V37.0564H81.0811V32.7043H83.8072V33.179H81.65V34.5796H83.5306V35.0465Z" fill="white"/>
<path d="M86.8731 35.2997H85.8538V37.0564H85.2769V32.7043H86.7151C87.205 32.7043 87.5843 32.815 87.845 33.0366C88.1058 33.2582 88.2401 33.5826 88.2401 34.0099C88.2401 34.2789 88.169 34.5163 88.0189 34.7221C87.8767 34.9199 87.6712 35.0702 87.4104 35.1731L88.4298 37.0168V37.0564H87.8134L86.8731 35.2997ZM85.8538 34.8249H86.7309C86.8889 34.8249 87.0232 34.8012 87.1418 34.7616C87.2603 34.7221 87.3551 34.6588 87.4342 34.5875C87.5132 34.5163 87.5685 34.4293 87.608 34.3264C87.6475 34.2315 87.6633 34.1207 87.6633 34.0099C87.6633 33.8833 87.6475 33.7725 87.608 33.6696C87.5685 33.5668 87.5132 33.4797 87.4342 33.4085C87.3551 33.3373 87.2603 33.274 87.1418 33.2423C87.0232 33.2107 86.881 33.179 86.7151 33.179H85.8538V34.8249Z" fill="white"/>
<path d="M92.1753 35.9248H90.3578L89.9469 37.0643H89.3543L91.0137 32.7122H91.5115L93.1709 37.0643H92.5862L92.1753 35.9248ZM90.5317 35.45H92.0093L91.2665 33.4164L90.5317 35.45Z" fill="white"/>
<path d="M97.6592 35.6795C97.6355 35.8853 97.588 36.0752 97.509 36.2493C97.43 36.4233 97.3273 36.5816 97.193 36.7082C97.0586 36.8348 96.8927 36.9377 96.6951 37.0089C96.4976 37.0801 96.2763 37.1197 96.0156 37.1197C95.7548 37.1197 95.5257 37.0722 95.3202 36.9772C95.1148 36.8823 94.933 36.7478 94.7829 36.5658C94.6327 36.3917 94.5221 36.178 94.4431 35.9327C94.3641 35.6874 94.3246 35.4105 94.3246 35.1019V34.6667C94.3246 34.3581 94.3641 34.089 94.4431 33.8358C94.5221 33.5905 94.6407 33.3769 94.7908 33.2028C94.9409 33.0287 95.1227 32.8862 95.3439 32.7913C95.5573 32.6963 95.8022 32.6489 96.0709 32.6489C96.3159 32.6489 96.5371 32.6805 96.7188 32.7596C96.9085 32.8309 97.0665 32.9337 97.2009 33.0603C97.3352 33.1869 97.4379 33.3452 97.5169 33.5193C97.5959 33.7013 97.6434 33.8991 97.6671 34.1128H97.0902C97.0665 33.9624 97.0349 33.8279 96.9875 33.7013C96.9401 33.5826 96.8769 33.4797 96.7979 33.3927C96.7188 33.3056 96.6161 33.2423 96.4976 33.1949C96.3791 33.1474 96.2368 33.1236 96.063 33.1236C95.8733 33.1236 95.6995 33.1632 95.5573 33.2344C95.415 33.3135 95.2886 33.4164 95.1938 33.5509C95.0911 33.6855 95.0199 33.8516 94.9725 34.0336C94.9251 34.2235 94.9014 34.4372 94.9014 34.6667V35.1098C94.9014 35.3234 94.9251 35.5213 94.9646 35.7112C95.012 35.9011 95.0753 36.0593 95.1701 36.2018C95.2649 36.3442 95.3755 36.455 95.5178 36.5341C95.66 36.6132 95.8259 36.6528 96.0235 36.6528C96.2052 36.6528 96.3633 36.6291 96.4897 36.5895C96.6161 36.542 96.7188 36.4787 96.7979 36.3996C96.8769 36.3205 96.9401 36.2176 96.9875 36.0989C97.0349 35.9802 97.0665 35.8378 97.0902 35.6874H97.6592V35.6795Z" fill="white"/>
<path d="M99.7848 32.7043H99.2158V37.0564H99.7848V32.7043Z" fill="white"/>
<path d="M104.913 35.0227C104.913 35.3472 104.874 35.64 104.787 35.9011C104.7 36.1622 104.589 36.3759 104.431 36.5579C104.281 36.7399 104.099 36.8744 103.886 36.9772C103.672 37.0722 103.428 37.1197 103.167 37.1197C102.914 37.1197 102.677 37.0722 102.463 36.9772C102.25 36.8823 102.061 36.7399 101.91 36.5579C101.752 36.3759 101.634 36.1543 101.547 35.9011C101.46 35.64 101.42 35.3472 101.42 35.0227V34.7458C101.42 34.4214 101.46 34.1286 101.547 33.8675C101.634 33.6063 101.752 33.3848 101.902 33.2028C102.053 33.0208 102.242 32.8863 102.456 32.7834C102.669 32.6884 102.906 32.6409 103.159 32.6409C103.42 32.6409 103.665 32.6884 103.878 32.7834C104.091 32.8783 104.281 33.0208 104.431 33.2028C104.581 33.3848 104.7 33.6063 104.787 33.8675C104.866 34.1286 104.913 34.4214 104.913 34.7458V35.0227ZM104.344 34.7379C104.344 34.4768 104.32 34.2473 104.265 34.0495C104.21 33.8516 104.139 33.6855 104.036 33.543C103.933 33.4085 103.807 33.3056 103.665 33.2344C103.522 33.1632 103.356 33.1315 103.167 33.1315C102.985 33.1315 102.827 33.1632 102.685 33.2344C102.543 33.3056 102.416 33.4085 102.313 33.543C102.211 33.6775 102.132 33.8437 102.076 34.0495C102.021 34.2473 101.997 34.4768 101.997 34.7379V35.0148C101.997 35.276 102.021 35.5054 102.084 35.7033C102.14 35.9011 102.219 36.0673 102.321 36.2097C102.424 36.3442 102.55 36.4471 102.693 36.5183C102.835 36.5895 103.001 36.6212 103.175 36.6212C103.364 36.6212 103.53 36.5895 103.672 36.5183C103.815 36.4471 103.941 36.3442 104.044 36.2097C104.147 36.0752 104.218 35.909 104.273 35.7033C104.328 35.5054 104.352 35.276 104.352 35.0148V34.7379H104.344ZM103.443 31.541H104.115L103.317 32.4194H102.874L103.443 31.541Z" fill="white"/>
<path d="M109.844 37.0564H109.267L107.078 33.7013V37.0564H106.501V32.7043H107.078L109.275 36.0752V32.7043H109.844V37.0564Z" fill="white"/>
<path d="M114.577 32.7043L115.999 36.2572L117.422 32.7043H118.164V37.0564H117.588V35.363L117.643 33.5351L116.221 37.0564H115.778L114.356 33.543L114.411 35.363V37.0564H113.842V32.7043H114.577Z" fill="white"/>
<path d="M123.245 35.0227C123.245 35.3472 123.206 35.64 123.119 35.9011C123.04 36.1622 122.921 36.3759 122.771 36.5579C122.621 36.7399 122.439 36.8744 122.226 36.9693C122.013 37.0643 121.768 37.1118 121.507 37.1118C121.246 37.1118 121.017 37.0643 120.796 36.9693C120.582 36.8744 120.393 36.732 120.243 36.5579C120.085 36.3759 119.966 36.1543 119.879 35.9011C119.792 35.64 119.753 35.3472 119.753 35.0227V34.7458C119.753 34.4214 119.792 34.1286 119.879 33.8675C119.966 33.6063 120.085 33.3848 120.235 33.2028C120.385 33.0208 120.575 32.8863 120.788 32.7834C121.001 32.6884 121.238 32.6409 121.499 32.6409C121.76 32.6409 122.005 32.6884 122.218 32.7834C122.432 32.8783 122.621 33.0208 122.771 33.2028C122.921 33.3848 123.04 33.6063 123.127 33.8675C123.206 34.1286 123.253 34.4214 123.253 34.7458V35.0227H123.245ZM122.676 34.7379C122.676 34.4768 122.653 34.2473 122.597 34.0495C122.542 33.8516 122.471 33.6855 122.368 33.543C122.266 33.4085 122.147 33.3056 121.997 33.2344C121.855 33.1632 121.689 33.1316 121.499 33.1316C121.325 33.1316 121.159 33.1632 121.017 33.2344C120.875 33.3056 120.748 33.4085 120.646 33.543C120.543 33.6775 120.464 33.8437 120.409 34.0495C120.353 34.2473 120.322 34.4768 120.322 34.7379V35.0227C120.322 35.2839 120.353 35.5134 120.409 35.7112C120.464 35.909 120.543 36.0752 120.646 36.2176C120.748 36.3521 120.875 36.455 121.017 36.5262C121.159 36.5974 121.325 36.6291 121.499 36.6291C121.689 36.6291 121.855 36.5974 121.997 36.5262C122.139 36.455 122.266 36.3521 122.368 36.2176C122.471 36.0831 122.542 35.9169 122.597 35.7112C122.653 35.5134 122.676 35.2839 122.676 35.0227V34.7379Z" fill="white"/>
<path d="M124.842 32.7043H126.066C126.351 32.7043 126.612 32.7517 126.849 32.8467C127.086 32.9416 127.283 33.0762 127.449 33.2582C127.615 33.4322 127.749 33.6459 127.844 33.907C127.939 34.1602 127.979 34.4451 127.979 34.7616V35.0148C127.979 35.3314 127.931 35.6162 127.844 35.8694C127.749 36.1227 127.623 36.3363 127.449 36.5183C127.275 36.6924 127.07 36.8269 126.833 36.9219C126.588 37.0168 126.319 37.0643 126.019 37.0643H124.842V32.7043ZM125.418 33.179V36.5895H126.019C126.248 36.5895 126.454 36.5499 126.627 36.4787C126.801 36.3996 126.951 36.2967 127.062 36.1622C127.181 36.0277 127.267 35.8615 127.331 35.6637C127.394 35.4659 127.418 35.2522 127.418 35.0148V34.7458C127.418 34.5005 127.386 34.2789 127.331 34.0811C127.267 33.8912 127.181 33.725 127.07 33.5905C126.959 33.456 126.817 33.3531 126.651 33.2819C126.485 33.2107 126.296 33.179 126.082 33.179H125.418Z" fill="white"/>
<path d="M132.641 32.7043V35.6479C132.641 35.8932 132.601 36.1068 132.514 36.2888C132.427 36.4708 132.309 36.6212 132.167 36.7478C132.024 36.8665 131.858 36.9614 131.661 37.0247C131.471 37.088 131.266 37.1197 131.06 37.1197C130.839 37.1197 130.634 37.088 130.444 37.0247C130.254 36.9614 130.088 36.8744 129.946 36.7478C129.804 36.6291 129.693 36.4708 129.614 36.2888C129.535 36.1068 129.496 35.8932 129.496 35.6479V32.7043H130.065V35.6479C130.065 35.814 130.088 35.9644 130.136 36.091C130.183 36.2176 130.254 36.3205 130.341 36.3996C130.428 36.4787 130.531 36.542 130.657 36.5816C130.784 36.6212 130.918 36.6449 131.068 36.6449C131.218 36.6449 131.353 36.6212 131.479 36.5816C131.606 36.542 131.708 36.4787 131.795 36.3996C131.882 36.3126 131.953 36.2176 132.001 36.091C132.048 35.9644 132.072 35.822 132.072 35.6479V32.7043H132.641Z" fill="white"/>
<path d="M134.853 36.5895H136.908V37.0564H134.276V32.7043H134.853V36.5895Z" fill="white"/>
<path d="M140.756 35.9248H138.939L138.528 37.0643H137.935L139.594 32.7122H140.1L141.759 37.0643H141.175L140.756 35.9248ZM139.104 35.45H140.582L139.839 33.4164L139.104 35.45Z" fill="white"/>
<path d="M144.667 35.2997H143.648V37.0564H143.071V32.7043H144.509C144.999 32.7043 145.379 32.815 145.639 33.0366C145.9 33.2582 146.034 33.5826 146.034 34.0099C146.034 34.2789 145.963 34.5163 145.813 34.7221C145.671 34.9199 145.465 35.0702 145.205 35.1731L146.224 37.0168V37.0564H145.608L144.667 35.2997ZM143.648 34.8249H144.525C144.683 34.8249 144.817 34.8012 144.936 34.7616C145.055 34.7221 145.149 34.6588 145.228 34.5875C145.307 34.5163 145.363 34.4293 145.402 34.3264C145.442 34.2315 145.458 34.1207 145.458 34.0099C145.458 33.8833 145.442 33.7725 145.402 33.6696C145.363 33.5668 145.307 33.4797 145.228 33.4085C145.149 33.3373 145.055 33.274 144.936 33.2423C144.817 33.2107 144.675 33.179 144.509 33.179H143.648V34.8249Z" fill="white"/>
<path d="M150.428 32.7043H149.859V37.0564H150.428V32.7043Z" fill="white"/>
<path d="M155.548 37.0564H154.971L152.783 33.7013V37.0564H152.214V32.7043H152.783L154.979 36.0752V32.7043H155.548V37.0564Z" fill="white"/>
<path d="M160.218 33.179H158.82V37.0564H158.251V33.179H156.852V32.7043H160.218V33.179Z" fill="white"/>
<path d="M164.051 35.0465H162.162V36.5895H164.351V37.0564H161.593V32.7043H164.319V33.179H162.162V34.5796H164.051V35.0465Z" fill="white"/>
<path d="M169.005 36.4866C168.966 36.55 168.91 36.6133 168.831 36.6845C168.76 36.7557 168.657 36.8269 168.539 36.8902C168.42 36.9535 168.27 37.0089 168.096 37.0485C167.923 37.0959 167.709 37.1118 167.464 37.1118C167.203 37.1118 166.959 37.0643 166.737 36.9693C166.516 36.8744 166.326 36.7399 166.168 36.5658C166.01 36.3917 165.884 36.178 165.797 35.9169C165.71 35.6637 165.663 35.3709 165.663 35.0465V34.7062C165.663 34.3818 165.702 34.089 165.781 33.8358C165.86 33.5826 165.971 33.361 166.121 33.1869C166.271 33.0129 166.453 32.8783 166.666 32.7834C166.88 32.6884 167.132 32.6409 167.409 32.6409C167.654 32.6409 167.875 32.6726 168.065 32.7438C168.254 32.815 168.412 32.9021 168.539 33.0208C168.673 33.1395 168.776 33.2819 168.855 33.4402C168.934 33.6063 168.989 33.7804 169.013 33.9703H168.444C168.42 33.8516 168.389 33.7408 168.341 33.638C168.294 33.5351 168.231 33.4402 168.152 33.361C168.073 33.2819 167.97 33.2186 167.851 33.179C167.733 33.1316 167.591 33.1078 167.425 33.1078C167.219 33.1078 167.045 33.1474 166.903 33.2186C166.753 33.2898 166.635 33.4006 166.54 33.5351C166.445 33.6696 166.374 33.8358 166.326 34.0336C166.279 34.2315 166.255 34.4451 166.255 34.6904V35.0386C166.255 35.2918 166.287 35.5134 166.342 35.7112C166.405 35.909 166.484 36.0752 166.595 36.2097C166.706 36.3442 166.832 36.455 166.982 36.5262C167.132 36.5974 167.306 36.637 167.488 36.637C167.646 36.637 167.772 36.6291 167.883 36.6053C167.994 36.5895 168.081 36.5579 168.16 36.5262C168.231 36.4946 168.294 36.4629 168.341 36.4233C168.389 36.3838 168.42 36.3521 168.452 36.3205V35.3393H167.448V34.8724H169.021V36.4866H169.005Z" fill="white"/>
<path d="M172.284 35.2997H171.265V37.0564H170.688V32.7043H172.126C172.616 32.7043 172.996 32.815 173.256 33.0366C173.517 33.2582 173.651 33.5826 173.651 34.0099C173.651 34.2789 173.58 34.5163 173.43 34.7221C173.288 34.9199 173.082 35.0702 172.822 35.1731L173.841 37.0168V37.0564H173.225L172.284 35.2997ZM171.265 34.8249H172.142C172.3 34.8249 172.434 34.8012 172.553 34.7616C172.672 34.7221 172.766 34.6588 172.845 34.5875C172.924 34.5163 172.98 34.4293 173.019 34.3264C173.059 34.2315 173.075 34.1207 173.075 34.0099C173.075 33.8833 173.059 33.7725 173.019 33.6696C172.98 33.5668 172.924 33.4797 172.845 33.4085C172.766 33.3373 172.672 33.274 172.553 33.2423C172.434 33.2107 172.292 33.179 172.126 33.179H171.265V34.8249Z" fill="white"/>
<path d="M177.587 35.9248H175.769L175.358 37.0643H174.766L176.425 32.7122H176.923L178.582 37.0643H177.997L177.587 35.9248ZM175.943 35.45H177.421L176.678 33.4164L175.943 35.45Z" fill="white"/>
<path d="M180.487 36.5895H182.541V37.0564H179.91V32.7043H180.487V36.5895Z" fill="white"/>
</svg>
