<svg width="193" height="28" viewBox="0 0 193 28" fill="none" xmlns="http://www.w3.org/2000/svg">
<path d="M42.9347 23.9906C42.9347 23.9047 42.9214 23.832 42.895 23.766C42.8686 23.6999 42.8224 23.6405 42.7563 23.5876C42.6903 23.5348 42.6044 23.482 42.4921 23.4357C42.3798 23.3895 42.2411 23.3432 42.0694 23.2904C41.891 23.2376 41.7259 23.1781 41.5872 23.1187C41.4418 23.0526 41.3163 22.9799 41.2173 22.8941C41.1182 22.8082 41.0389 22.7091 40.9861 22.6034C40.9332 22.4978 40.9068 22.3723 40.9068 22.2269C40.9068 22.0816 40.9332 21.9561 40.9927 21.8372C41.0521 21.7183 41.138 21.6126 41.2437 21.5268C41.3494 21.4409 41.4815 21.3682 41.6268 21.322C41.7787 21.2758 41.9439 21.2493 42.1288 21.2493C42.3336 21.2493 42.5119 21.2824 42.6704 21.3418C42.829 21.4013 42.9611 21.4871 43.0734 21.5862C43.179 21.6853 43.2649 21.8042 43.3178 21.9363C43.3706 22.0684 43.4036 22.2071 43.4036 22.3458H42.9214C42.9214 22.2468 42.9082 22.1543 42.8752 22.0684C42.8422 21.9825 42.7959 21.9099 42.7299 21.8438C42.6638 21.7778 42.578 21.7315 42.4789 21.6985C42.3798 21.6655 42.2609 21.6457 42.1288 21.6457C42.0033 21.6457 41.891 21.6589 41.7985 21.6919C41.7061 21.7249 41.6268 21.7646 41.5674 21.8174C41.5079 21.8703 41.4617 21.9297 41.4286 22.0024C41.4022 22.075 41.3824 22.1543 41.3824 22.2335C41.3824 22.3128 41.3956 22.3789 41.4286 22.4383C41.4617 22.5044 41.5079 22.5572 41.5806 22.61C41.6466 22.6629 41.7325 22.7091 41.8448 22.7554C41.9505 22.8016 42.076 22.8412 42.2279 22.8875C42.4326 22.9469 42.611 23.0064 42.7563 23.079C42.9082 23.1517 43.0271 23.2309 43.1262 23.3168C43.2253 23.4093 43.2913 23.5084 43.3442 23.6141C43.3904 23.7264 43.4168 23.8519 43.4168 23.9906C43.4168 24.1359 43.3904 24.268 43.3244 24.3869C43.2649 24.5058 43.179 24.6049 43.0734 24.6907C42.9611 24.7766 42.829 24.8427 42.677 24.8823C42.5251 24.9285 42.3534 24.9483 42.1618 24.9483C42.0495 24.9483 41.9439 24.9417 41.8316 24.9153C41.7193 24.8955 41.6136 24.8625 41.5145 24.8228C41.4154 24.7832 41.3163 24.7304 41.2305 24.6709C41.1446 24.6115 41.0653 24.5388 41.0059 24.4595C40.9398 24.3803 40.8936 24.2878 40.854 24.1887C40.8209 24.0896 40.8011 23.9774 40.8011 23.8585H41.2767C41.2767 23.984 41.3031 24.0896 41.3494 24.1755C41.3956 24.2614 41.4617 24.334 41.5475 24.3935C41.6268 24.4529 41.7259 24.4926 41.8316 24.519C41.9373 24.5454 42.0495 24.5586 42.1684 24.5586C42.4194 24.5586 42.611 24.5058 42.7497 24.4067C42.862 24.3076 42.9347 24.1689 42.9347 23.9906Z" fill="white"/>
<path d="M47.4065 23.2111C47.4065 23.482 47.3734 23.7264 47.3008 23.9377C47.2281 24.1491 47.1356 24.334 47.0101 24.486C46.8846 24.6379 46.7327 24.7502 46.5544 24.8294C46.376 24.9087 46.1779 24.9483 45.9599 24.9483C45.7485 24.9483 45.5504 24.9087 45.372 24.8294C45.1937 24.7502 45.0418 24.6379 44.9096 24.486C44.7775 24.334 44.6785 24.1557 44.6124 23.9377C44.5397 23.7264 44.5067 23.482 44.5067 23.2111V22.9866C44.5067 22.7157 44.5397 22.4779 44.6124 22.26C44.6851 22.042 44.7841 21.8636 44.9096 21.7117C45.0351 21.5598 45.1871 21.4475 45.3654 21.3682C45.5438 21.289 45.7419 21.2493 45.9533 21.2493C46.1713 21.2493 46.3694 21.289 46.5544 21.3682C46.7327 21.4475 46.8846 21.5664 47.0101 21.7117C47.1356 21.8636 47.2347 22.0486 47.3008 22.26C47.3668 22.4779 47.4065 22.7157 47.4065 22.9866V23.2111ZM46.9309 22.9799C46.9309 22.7686 46.9111 22.577 46.8648 22.4119C46.8186 22.2468 46.7591 22.108 46.6733 21.9958C46.5874 21.8835 46.4883 21.7976 46.3628 21.7381C46.2439 21.6787 46.1052 21.6523 45.9533 21.6523C45.808 21.6523 45.6759 21.6787 45.5504 21.7381C45.4315 21.7976 45.3258 21.8835 45.2399 21.9958C45.154 22.108 45.088 22.2468 45.0418 22.4119C44.9955 22.577 44.9691 22.7686 44.9691 22.9799V23.2111C44.9691 23.4291 44.9955 23.6207 45.0418 23.7858C45.088 23.9509 45.154 24.0896 45.2399 24.2019C45.3258 24.3142 45.4315 24.4001 45.5504 24.4595C45.6693 24.519 45.8014 24.5454 45.9533 24.5454C46.1118 24.5454 46.2439 24.5124 46.3694 24.4595C46.4883 24.4001 46.594 24.3142 46.6733 24.2019C46.7591 24.0896 46.8186 23.9509 46.8648 23.7858C46.9111 23.6207 46.9309 23.4291 46.9309 23.2111V22.9799Z" fill="white"/>
<path d="M49.2031 24.5124H50.9139V24.9021H48.7275V21.289H49.2031V24.5124Z" fill="white"/>
<path d="M54.4742 21.289V23.733C54.4742 23.9377 54.4411 24.1161 54.3685 24.268C54.2958 24.4199 54.2033 24.5454 54.0845 24.6445C53.9656 24.7436 53.8268 24.8228 53.6683 24.8691C53.5098 24.9219 53.3447 24.9417 53.1663 24.9417C52.9814 24.9417 52.8096 24.9153 52.6511 24.8691C52.4926 24.8162 52.3539 24.7436 52.2416 24.6445C52.1227 24.5454 52.0302 24.4199 51.9641 24.268C51.8981 24.1161 51.8651 23.9377 51.8651 23.733V21.289H52.334V23.733C52.334 23.8717 52.3539 23.9972 52.3935 24.0963C52.4331 24.2019 52.4926 24.2878 52.5652 24.3539C52.6379 24.4199 52.7238 24.4728 52.8294 24.5058C52.9285 24.5388 53.0408 24.5586 53.1663 24.5586C53.2918 24.5586 53.4041 24.5388 53.5098 24.5058C53.6089 24.4728 53.7014 24.4199 53.774 24.3539C53.8467 24.2878 53.8995 24.2019 53.9391 24.0963C53.9788 23.9906 53.9986 23.8717 53.9986 23.733V21.289H54.4742Z" fill="white"/>
<path d="M58.4902 23.7528C58.4704 23.9245 58.4308 24.083 58.3647 24.2284C58.2987 24.3737 58.2128 24.4992 58.1005 24.6049C57.9882 24.7105 57.8495 24.7964 57.691 24.8559C57.5324 24.9153 57.3409 24.9483 57.1229 24.9483C56.9115 24.9483 56.72 24.9087 56.5416 24.8294C56.3699 24.7502 56.218 24.6379 56.0991 24.4926C55.9736 24.3473 55.8811 24.1689 55.815 23.9641C55.749 23.7594 55.716 23.5282 55.716 23.2772V22.9205C55.716 22.6695 55.749 22.4383 55.815 22.2335C55.8811 22.0288 55.9802 21.8504 56.1057 21.7051C56.2312 21.5598 56.3831 21.4475 56.5615 21.3682C56.7398 21.289 56.9446 21.2493 57.1625 21.2493C57.3673 21.2493 57.5456 21.2758 57.7042 21.3352C57.8627 21.3947 57.9948 21.4805 58.1071 21.5862C58.2194 21.6919 58.3053 21.8174 58.3713 21.9693C58.4374 22.1146 58.477 22.2798 58.4968 22.4581H58.0212C58.0014 22.3326 57.975 22.2203 57.9354 22.1213C57.8957 22.0222 57.8429 21.9363 57.7768 21.8636C57.7108 21.791 57.6249 21.7381 57.5258 21.6985C57.4267 21.6589 57.3079 21.6391 57.1691 21.6391C57.0106 21.6391 56.8653 21.6721 56.7464 21.7315C56.6275 21.791 56.5218 21.8835 56.4426 21.9891C56.3633 22.1014 56.2972 22.2335 56.2576 22.3921C56.218 22.5506 56.1982 22.7223 56.1982 22.9139V23.2772C56.1982 23.4555 56.218 23.6207 56.2576 23.7792C56.2972 23.9311 56.3501 24.0698 56.4293 24.1887C56.502 24.3076 56.6011 24.4001 56.72 24.4661C56.8389 24.5322 56.9776 24.5652 57.1361 24.5652C57.288 24.5652 57.4135 24.5454 57.5192 24.5124C57.6249 24.4794 57.7108 24.4265 57.7768 24.3539C57.8429 24.2878 57.8957 24.2019 57.9354 24.1029C57.975 24.0038 58.0014 23.8915 58.0212 23.7594H58.4902V23.7528Z" fill="white"/>
<path d="M60.2538 21.289H59.7783V24.8955H60.2538V21.289Z" fill="white"/>
<path d="M64.5077 23.2111C64.5077 23.482 64.4747 23.7264 64.402 23.9377C64.3293 24.1491 64.2369 24.334 64.1114 24.486C63.9858 24.6379 63.8339 24.7502 63.6556 24.8294C63.4772 24.9087 63.2791 24.9483 63.0611 24.9483C62.8497 24.9483 62.6516 24.9087 62.4732 24.8294C62.2949 24.7502 62.143 24.6379 62.0109 24.486C61.8854 24.334 61.7797 24.1557 61.7136 23.9377C61.641 23.7264 61.6079 23.482 61.6079 23.2111V22.9866C61.6079 22.7157 61.641 22.4779 61.7136 22.26C61.7863 22.042 61.8854 21.8636 62.0109 21.7117C62.1364 21.5598 62.2883 21.4475 62.4666 21.3682C62.645 21.289 62.8431 21.2493 63.0545 21.2493C63.2725 21.2493 63.4772 21.289 63.6556 21.3682C63.8339 21.4475 63.9858 21.5664 64.1114 21.7117C64.2369 21.8636 64.3359 22.0486 64.402 22.26C64.468 22.4779 64.5077 22.7157 64.5077 22.9866V23.2111ZM64.0387 22.9799C64.0387 22.7686 64.0189 22.577 63.9726 22.4119C63.9264 22.2468 63.867 22.108 63.7811 21.9958C63.6952 21.8835 63.5961 21.7976 63.4706 21.7381C63.3517 21.6787 63.213 21.6523 63.0611 21.6523C62.9158 21.6523 62.7837 21.6787 62.6582 21.7381C62.5393 21.7976 62.4336 21.8835 62.3477 21.9958C62.2619 22.108 62.1958 22.2468 62.1496 22.4119C62.1033 22.577 62.0769 22.7686 62.0769 22.9799V23.2111C62.0769 23.4291 62.1033 23.6207 62.1496 23.7858C62.1958 23.9509 62.2619 24.0896 62.3477 24.2019C62.4336 24.3142 62.5393 24.4001 62.6582 24.4595C62.7771 24.519 62.9092 24.5454 63.0611 24.5454C63.213 24.5454 63.3517 24.5124 63.4772 24.4595C63.5961 24.4001 63.7018 24.3142 63.7811 24.2019C63.867 24.0896 63.9264 23.9509 63.9726 23.7858C64.0189 23.6207 64.0387 23.4291 64.0387 23.2111V22.9799Z" fill="white"/>
<path d="M68.6096 24.9021H68.1274L66.3109 22.1213V24.9021H65.8353V21.289H66.3109L68.134 24.083V21.289H68.6096V24.9021Z" fill="white"/>
<path d="M72.0972 23.231H70.5383V24.5124H72.3548V24.9021H70.0627V21.289H72.3284V21.6853H70.5383V22.8412H72.0972V23.231Z" fill="white"/>
<path d="M75.4791 23.9906C75.4791 23.9047 75.4659 23.832 75.4395 23.766C75.4131 23.6999 75.3668 23.6405 75.3008 23.5876C75.2347 23.5348 75.1489 23.482 75.0366 23.4357C74.9243 23.3895 74.7856 23.3432 74.6138 23.2904C74.4355 23.2376 74.2704 23.1781 74.1316 23.1187C73.9863 23.0526 73.8608 22.9799 73.7617 22.8941C73.6627 22.8082 73.5834 22.7091 73.5306 22.6034C73.4777 22.4978 73.4513 22.3723 73.4513 22.2269C73.4513 22.0816 73.4777 21.9561 73.5372 21.8372C73.5966 21.7183 73.6759 21.6126 73.7882 21.5268C73.8939 21.4409 74.026 21.3682 74.1713 21.322C74.3232 21.2758 74.4883 21.2493 74.6733 21.2493C74.8781 21.2493 75.0564 21.2824 75.2149 21.3418C75.3734 21.4013 75.5056 21.4871 75.6179 21.5862C75.7235 21.6853 75.8094 21.8042 75.8622 21.9363C75.9151 22.0684 75.9481 22.2071 75.9481 22.3458H75.4659C75.4659 22.2468 75.4527 22.1543 75.4197 22.0684C75.3867 21.9825 75.3404 21.9099 75.2744 21.8438C75.2083 21.7778 75.1224 21.7315 75.0234 21.6985C74.9243 21.6655 74.8054 21.6457 74.6733 21.6457C74.5478 21.6457 74.4355 21.6589 74.343 21.6919C74.2505 21.7249 74.1713 21.7646 74.1118 21.8174C74.0524 21.8703 74.0061 21.9297 73.9731 22.0024C73.9467 22.075 73.9269 22.1543 73.9269 22.2335C73.9269 22.3128 73.9401 22.3789 73.9731 22.4383C74.0061 22.5044 74.0524 22.5572 74.125 22.61C74.1911 22.6629 74.277 22.7091 74.3893 22.7554C74.4949 22.8016 74.6204 22.8412 74.7724 22.8875C74.9771 22.9469 75.1555 23.0064 75.3008 23.079C75.4527 23.1517 75.5716 23.2309 75.6707 23.3168C75.7698 23.4093 75.8358 23.5084 75.8887 23.6141C75.9349 23.7264 75.9613 23.8519 75.9613 23.9906C75.9613 24.1359 75.9349 24.268 75.8689 24.3869C75.8094 24.5058 75.7235 24.6049 75.6179 24.6907C75.5056 24.7766 75.3734 24.8427 75.2215 24.8823C75.0696 24.9285 74.8979 24.9483 74.7063 24.9483C74.594 24.9483 74.4883 24.9417 74.376 24.9153C74.2638 24.8955 74.1581 24.8625 74.059 24.8228C73.9599 24.7832 73.8608 24.7304 73.775 24.6709C73.6891 24.6115 73.6098 24.5388 73.5504 24.4595C73.4843 24.3803 73.4381 24.2878 73.3985 24.1887C73.3654 24.0896 73.3456 23.9774 73.3456 23.8585H73.8212C73.8212 23.984 73.8476 24.0896 73.8939 24.1755C73.9401 24.2614 74.0061 24.334 74.092 24.3935C74.1713 24.4529 74.2704 24.4926 74.376 24.519C74.4817 24.5454 74.594 24.5586 74.7129 24.5586C74.9639 24.5586 75.1555 24.5058 75.2942 24.4067C75.4131 24.3076 75.4791 24.1689 75.4791 23.9906Z" fill="white"/>
<path d="M79.515 23.4886V24.9021H79.0394V21.2956H80.3671C80.5718 21.2956 80.7568 21.322 80.9087 21.3749C81.0672 21.4277 81.1993 21.507 81.305 21.606C81.4107 21.7051 81.49 21.824 81.5494 21.9561C81.6023 22.0882 81.6287 22.2401 81.6287 22.3987C81.6287 22.5704 81.6023 22.7289 81.5494 22.861C81.4966 22.9998 81.4107 23.1121 81.305 23.2045C81.1993 23.297 81.0672 23.3697 80.9087 23.4159C80.7502 23.4621 80.5718 23.4886 80.3671 23.4886H79.515ZM79.515 23.0988H80.3671C80.5058 23.0988 80.6247 23.079 80.7237 23.046C80.8228 23.013 80.9087 22.9601 80.9681 22.9007C81.0342 22.8412 81.0804 22.7686 81.1069 22.6827C81.1399 22.5968 81.1531 22.5044 81.1531 22.3987C81.1531 22.3062 81.1399 22.2137 81.1069 22.1279C81.0804 22.042 81.0342 21.9627 80.9681 21.8967C80.9021 21.8306 80.8228 21.7778 80.7237 21.7381C80.6247 21.6985 80.5058 21.6787 80.3671 21.6787H79.515V23.0988Z" fill="white"/>
<path d="M84.502 23.9575H82.9894L82.6525 24.9021H82.1637L83.5442 21.2956H83.9604L85.3409 24.9021H84.8521L84.502 23.9575ZM83.1347 23.5678H84.3633L83.749 21.8835L83.1347 23.5678Z" fill="white"/>
<path d="M87.7518 23.4423H86.9063V24.9021H86.4308V21.2956H87.6263C88.0293 21.2956 88.3463 21.3881 88.5643 21.573C88.7823 21.758 88.8945 22.0288 88.8945 22.3789C88.8945 22.6034 88.8351 22.8016 88.7162 22.9667C88.5973 23.1319 88.4256 23.2574 88.2076 23.3432L89.0531 24.8757V24.9021H88.5445L87.7518 23.4423ZM87.6395 23.0526C87.7716 23.0526 87.8839 23.0328 87.9764 22.9998C88.0755 22.9667 88.1547 22.9205 88.2208 22.8544C88.2869 22.795 88.3331 22.7223 88.3661 22.6431C88.3991 22.5638 88.4124 22.4713 88.4124 22.3789C88.4124 22.2732 88.3991 22.1807 88.3661 22.0948C88.3331 22.009 88.2869 21.9363 88.2208 21.8769C88.1547 21.8174 88.0755 21.7712 87.9764 21.7381C87.8773 21.7051 87.7584 21.6853 87.6197 21.6853H86.8997V23.0526H87.6395Z" fill="white"/>
<path d="M92.1576 23.9575H90.645L90.3081 24.9021H89.8193L91.1998 21.2956H91.6159L92.9965 24.9021H92.5077L92.1576 23.9575ZM90.7903 23.5678H92.0189L91.4046 21.8835L90.7903 23.5678Z" fill="white"/>
<path d="M96.4246 24.5124H98.1354V24.9021H95.949V21.289H96.4246V24.5124Z" fill="white"/>
<path d="M101.326 23.9575H99.8132L99.4697 24.9021H98.9809L100.361 21.2956H100.778L102.158 24.9021H101.669L101.326 23.9575ZM99.9585 23.5678H101.187L100.573 21.8835L99.9585 23.5678Z" fill="white"/>
<path d="M107.773 23.7528C107.753 23.9245 107.713 24.083 107.647 24.2284C107.588 24.3737 107.495 24.4992 107.383 24.6049C107.271 24.7105 107.132 24.7964 106.973 24.8559C106.815 24.9153 106.623 24.9483 106.405 24.9483C106.194 24.9483 105.996 24.9087 105.824 24.8294C105.652 24.7502 105.5 24.6379 105.381 24.4926C105.256 24.3473 105.163 24.1689 105.097 23.9641C105.031 23.7594 104.998 23.5282 104.998 23.2772V22.9205C104.998 22.6695 105.031 22.4383 105.097 22.2335C105.163 22.0288 105.263 21.8504 105.388 21.7051C105.514 21.5598 105.665 21.4475 105.844 21.3682C106.022 21.289 106.227 21.2493 106.445 21.2493C106.65 21.2493 106.828 21.2758 106.987 21.3352C107.145 21.3947 107.277 21.4805 107.389 21.5862C107.502 21.6919 107.588 21.8174 107.654 21.9693C107.72 22.1146 107.759 22.2798 107.779 22.4581H107.304C107.284 22.3326 107.257 22.2203 107.218 22.1213C107.178 22.0222 107.125 21.9363 107.059 21.8636C106.993 21.791 106.907 21.7381 106.808 21.6985C106.709 21.6589 106.59 21.6391 106.452 21.6391C106.293 21.6391 106.148 21.6721 106.029 21.7315C105.91 21.791 105.804 21.8835 105.725 21.9891C105.646 22.1014 105.58 22.2335 105.54 22.3921C105.5 22.5506 105.481 22.7223 105.481 22.9139V23.2772C105.481 23.4555 105.5 23.6207 105.54 23.7792C105.58 23.9311 105.632 24.0698 105.712 24.1887C105.784 24.3076 105.883 24.4001 106.002 24.4661C106.121 24.5322 106.26 24.5652 106.419 24.5652C106.57 24.5652 106.696 24.5454 106.802 24.5124C106.907 24.4794 106.993 24.4265 107.059 24.3539C107.125 24.2878 107.178 24.2019 107.218 24.1029C107.257 24.0038 107.284 23.8915 107.304 23.7594H107.773V23.7528Z" fill="white"/>
<path d="M111.808 23.2111C111.808 23.482 111.775 23.7264 111.703 23.9377C111.63 24.1491 111.538 24.334 111.412 24.486C111.287 24.6379 111.135 24.7502 110.956 24.8294C110.778 24.9087 110.58 24.9483 110.362 24.9483C110.151 24.9483 109.952 24.9087 109.774 24.8294C109.596 24.7502 109.444 24.6379 109.312 24.486C109.18 24.334 109.08 24.1557 109.014 23.9377C108.942 23.7264 108.909 23.482 108.909 23.2111V22.9866C108.909 22.7157 108.942 22.4779 109.014 22.26C109.087 22.042 109.186 21.8636 109.312 21.7117C109.437 21.5598 109.589 21.4475 109.767 21.3682C109.946 21.289 110.144 21.2493 110.355 21.2493C110.573 21.2493 110.771 21.289 110.956 21.3682C111.135 21.4475 111.287 21.5664 111.412 21.7117C111.538 21.8636 111.637 22.0486 111.703 22.26C111.769 22.4779 111.808 22.7157 111.808 22.9866V23.2111ZM111.333 22.9799C111.333 22.7686 111.313 22.577 111.267 22.4119C111.221 22.2468 111.161 22.108 111.075 21.9958C110.989 21.8835 110.89 21.7976 110.765 21.7381C110.646 21.6787 110.507 21.6523 110.355 21.6523C110.21 21.6523 110.078 21.6787 109.952 21.7381C109.833 21.7976 109.728 21.8835 109.642 21.9958C109.556 22.108 109.49 22.2468 109.444 22.4119C109.398 22.577 109.371 22.7686 109.371 22.9799V23.2111C109.371 23.4291 109.398 23.6207 109.444 23.7858C109.49 23.9509 109.556 24.0896 109.642 24.2019C109.728 24.3142 109.833 24.4001 109.952 24.4595C110.071 24.519 110.203 24.5454 110.355 24.5454C110.514 24.5454 110.646 24.5124 110.771 24.4595C110.89 24.4001 110.996 24.3142 111.075 24.2019C111.161 24.0896 111.221 23.9509 111.267 23.7858C111.313 23.6207 111.333 23.4291 111.333 23.2111V22.9799Z" fill="white"/>
<path d="M115.904 24.9021H115.428L113.612 22.1213V24.9021H113.13V21.289H113.612L115.435 24.083V21.289H115.904V24.9021Z" fill="white"/>
<path d="M119.279 23.9906C119.279 23.9047 119.266 23.832 119.239 23.766C119.213 23.6999 119.167 23.6405 119.101 23.5876C119.035 23.5348 118.949 23.482 118.837 23.4357C118.724 23.3895 118.586 23.3432 118.414 23.2904C118.235 23.2376 118.07 23.1781 117.932 23.1187C117.786 23.0526 117.661 22.9799 117.562 22.8941C117.463 22.8082 117.383 22.7091 117.331 22.6034C117.278 22.4978 117.251 22.3723 117.251 22.2269C117.251 22.0816 117.278 21.9561 117.337 21.8372C117.397 21.7183 117.482 21.6126 117.588 21.5268C117.694 21.4409 117.826 21.3682 117.978 21.322C118.13 21.2758 118.295 21.2493 118.48 21.2493C118.685 21.2493 118.863 21.2824 119.021 21.3418C119.18 21.4013 119.312 21.4871 119.424 21.5862C119.537 21.6853 119.616 21.8042 119.669 21.9363C119.722 22.0684 119.755 22.2071 119.755 22.3458H119.279C119.279 22.2468 119.259 22.1543 119.233 22.0684C119.2 21.9825 119.154 21.9099 119.088 21.8438C119.021 21.7778 118.936 21.7315 118.837 21.6985C118.737 21.6655 118.619 21.6457 118.486 21.6457C118.361 21.6457 118.249 21.6589 118.156 21.6919C118.064 21.7249 117.984 21.7646 117.925 21.8174C117.866 21.8703 117.819 21.9297 117.786 22.0024C117.753 22.075 117.74 22.1543 117.74 22.2335C117.74 22.3128 117.753 22.3789 117.786 22.4383C117.819 22.5044 117.866 22.5572 117.938 22.61C118.004 22.6629 118.09 22.7091 118.202 22.7554C118.308 22.8016 118.434 22.8412 118.586 22.8875C118.79 22.9469 118.969 23.0064 119.114 23.079C119.266 23.1517 119.385 23.2309 119.484 23.3168C119.583 23.4093 119.656 23.5084 119.702 23.6141C119.748 23.7264 119.774 23.8519 119.774 23.9906C119.774 24.1359 119.748 24.268 119.682 24.3869C119.623 24.5058 119.537 24.6049 119.424 24.6907C119.312 24.7766 119.18 24.8427 119.028 24.8823C118.876 24.9285 118.704 24.9483 118.513 24.9483C118.401 24.9483 118.288 24.9417 118.183 24.9153C118.07 24.8955 117.965 24.8625 117.866 24.8228C117.766 24.7832 117.667 24.7304 117.582 24.6709C117.496 24.6115 117.416 24.5388 117.357 24.4595C117.291 24.3803 117.245 24.2878 117.205 24.1887C117.172 24.0896 117.152 23.9774 117.152 23.8585H117.628C117.628 23.984 117.654 24.0896 117.7 24.1755C117.747 24.2614 117.813 24.334 117.899 24.3935C117.978 24.4529 118.077 24.4926 118.183 24.519C118.288 24.5454 118.401 24.5586 118.519 24.5586C118.77 24.5586 118.962 24.5058 119.094 24.4067C119.213 24.3076 119.279 24.1689 119.279 23.9906Z" fill="white"/>
<path d="M123.473 21.6853H122.311V24.9021H121.842V21.6853H120.679V21.289H123.473V21.6853Z" fill="white"/>
<path d="M125.937 23.4423H125.092V24.9021H124.616V21.2956H125.812C126.215 21.2956 126.532 21.3881 126.75 21.573C126.968 21.758 127.08 22.0288 127.08 22.3789C127.08 22.6034 127.021 22.8016 126.895 22.9667C126.776 23.1319 126.604 23.2574 126.386 23.3432L127.232 24.8757V24.9021H126.723L125.937 23.4423ZM125.825 23.0526C125.957 23.0526 126.069 23.0328 126.162 22.9998C126.261 22.9667 126.34 22.9205 126.4 22.8544C126.466 22.795 126.512 22.7223 126.545 22.6431C126.578 22.5638 126.591 22.4713 126.591 22.3789C126.591 22.2732 126.578 22.1807 126.545 22.0948C126.512 22.009 126.466 21.9363 126.4 21.8769C126.334 21.8174 126.254 21.7712 126.155 21.7381C126.056 21.7051 125.937 21.6853 125.799 21.6853H125.085V23.0526H125.825Z" fill="white"/>
<path d="M130.891 21.289V23.733C130.891 23.9377 130.858 24.1161 130.786 24.268C130.713 24.4199 130.62 24.5454 130.502 24.6445C130.383 24.7436 130.244 24.8228 130.085 24.8691C129.927 24.9219 129.762 24.9417 129.583 24.9417C129.398 24.9417 129.227 24.9153 129.068 24.8691C128.91 24.8162 128.771 24.7436 128.659 24.6445C128.54 24.5454 128.447 24.4199 128.381 24.268C128.315 24.1161 128.282 23.9377 128.282 23.733V21.289H128.751V23.733C128.751 23.8717 128.771 23.9972 128.811 24.0963C128.85 24.2019 128.91 24.2878 128.982 24.3539C129.055 24.4199 129.141 24.4728 129.247 24.5058C129.346 24.5388 129.464 24.5586 129.583 24.5586C129.709 24.5586 129.821 24.5388 129.927 24.5058C130.026 24.4728 130.118 24.4199 130.191 24.3539C130.264 24.2878 130.317 24.2019 130.356 24.0963C130.396 23.9906 130.416 23.8717 130.416 23.733V21.289H130.891Z" fill="white"/>
<path d="M134.907 23.7528C134.887 23.9245 134.848 24.083 134.782 24.2284C134.716 24.3737 134.63 24.4992 134.518 24.6049C134.405 24.7105 134.267 24.7964 134.108 24.8559C133.943 24.9153 133.758 24.9483 133.54 24.9483C133.329 24.9483 133.13 24.9087 132.959 24.8294C132.787 24.7502 132.635 24.6379 132.516 24.4926C132.391 24.3473 132.298 24.1689 132.232 23.9641C132.166 23.7594 132.133 23.5282 132.133 23.2772V22.9205C132.133 22.6695 132.166 22.4383 132.232 22.2335C132.298 22.0288 132.397 21.8504 132.523 21.7051C132.648 21.5598 132.8 21.4475 132.979 21.3682C133.157 21.289 133.362 21.2493 133.58 21.2493C133.784 21.2493 133.963 21.2758 134.121 21.3352C134.28 21.3947 134.412 21.4805 134.524 21.5862C134.636 21.6919 134.722 21.8174 134.788 21.9693C134.854 22.1146 134.894 22.2798 134.914 22.4581H134.438C134.418 22.3326 134.392 22.2203 134.352 22.1213C134.313 22.0222 134.26 21.9363 134.194 21.8636C134.128 21.791 134.042 21.7381 133.943 21.6985C133.844 21.6589 133.725 21.6391 133.586 21.6391C133.428 21.6391 133.282 21.6721 133.163 21.7315C133.045 21.791 132.939 21.8835 132.86 21.9891C132.78 22.1014 132.714 22.2335 132.675 22.3921C132.635 22.5506 132.615 22.7223 132.615 22.9139V23.2772C132.615 23.4555 132.635 23.6207 132.668 23.7792C132.708 23.9311 132.761 24.0698 132.84 24.1887C132.912 24.3076 133.012 24.4001 133.13 24.4661C133.249 24.5322 133.388 24.5652 133.547 24.5652C133.699 24.5652 133.824 24.5454 133.93 24.5124C134.035 24.4794 134.121 24.4265 134.187 24.3539C134.253 24.2878 134.306 24.2019 134.346 24.1029C134.385 24.0038 134.412 23.8915 134.432 23.7594H134.907V23.7528Z" fill="white"/>
<path d="M138.818 23.7528C138.798 23.9245 138.758 24.083 138.692 24.2284C138.633 24.3737 138.54 24.4992 138.428 24.6049C138.316 24.7105 138.177 24.7964 138.018 24.8559C137.86 24.9153 137.668 24.9483 137.45 24.9483C137.239 24.9483 137.041 24.9087 136.869 24.8294C136.697 24.7502 136.545 24.6379 136.427 24.4926C136.301 24.3473 136.209 24.1689 136.143 23.9641C136.076 23.7594 136.043 23.5282 136.043 23.2772V22.9205C136.043 22.6695 136.076 22.4383 136.143 22.2335C136.209 22.0288 136.308 21.8504 136.433 21.7051C136.559 21.5598 136.711 21.4475 136.889 21.3682C137.067 21.289 137.272 21.2493 137.49 21.2493C137.695 21.2493 137.873 21.2758 138.032 21.3352C138.19 21.3947 138.322 21.4805 138.435 21.5862C138.547 21.6919 138.633 21.8174 138.699 21.9693C138.765 22.1146 138.804 22.2798 138.824 22.4581H138.349C138.329 22.3326 138.302 22.2203 138.263 22.1213C138.223 22.0222 138.17 21.9363 138.104 21.8636C138.038 21.791 137.952 21.7381 137.853 21.6985C137.754 21.6589 137.635 21.6391 137.497 21.6391C137.338 21.6391 137.193 21.6721 137.074 21.7315C136.955 21.791 136.849 21.8835 136.77 21.9891C136.691 22.1014 136.625 22.2335 136.585 22.3921C136.545 22.5506 136.526 22.7223 136.526 22.9139V23.2772C136.526 23.4555 136.545 23.6207 136.585 23.7792C136.625 23.9311 136.678 24.0698 136.757 24.1887C136.829 24.3076 136.929 24.4001 137.047 24.4661C137.166 24.5322 137.305 24.5652 137.464 24.5652C137.615 24.5652 137.741 24.5454 137.847 24.5124C137.952 24.4794 138.038 24.4265 138.104 24.3539C138.17 24.2878 138.223 24.2019 138.263 24.1029C138.302 24.0038 138.329 23.8915 138.349 23.7594H138.818V23.7528Z" fill="white"/>
<path d="M140.588 21.289H140.112V24.8955H140.588V21.289Z" fill="white"/>
<path d="M144.842 23.2111C144.842 23.4819 144.809 23.7263 144.736 23.9377C144.67 24.1557 144.571 24.334 144.445 24.486C144.32 24.6379 144.168 24.7502 143.99 24.8294C143.811 24.9087 143.613 24.9483 143.395 24.9483C143.184 24.9483 142.986 24.9087 142.807 24.8294C142.629 24.7502 142.477 24.6379 142.345 24.486C142.213 24.334 142.114 24.1557 142.048 23.9377C141.975 23.7263 141.942 23.4819 141.942 23.2111V22.9865C141.942 22.7157 141.975 22.4779 142.048 22.26C142.12 22.0486 142.219 21.8636 142.345 21.7117C142.47 21.5598 142.622 21.4475 142.801 21.3682C142.979 21.289 143.177 21.2493 143.389 21.2493C143.607 21.2493 143.805 21.289 143.983 21.3682C144.161 21.4475 144.313 21.5664 144.445 21.7117C144.571 21.8636 144.67 22.0486 144.736 22.26C144.802 22.4779 144.842 22.7157 144.842 22.9865V23.2111ZM144.366 22.9799C144.366 22.762 144.346 22.577 144.3 22.4119C144.254 22.2468 144.194 22.108 144.109 21.9958C144.023 21.8835 143.924 21.7976 143.798 21.7381C143.679 21.6787 143.54 21.6523 143.389 21.6523C143.243 21.6523 143.105 21.6787 142.986 21.7381C142.867 21.7976 142.761 21.8835 142.675 21.9958C142.589 22.108 142.523 22.2468 142.477 22.4119C142.431 22.577 142.411 22.7686 142.411 22.9799V23.2111C142.411 23.4291 142.437 23.6207 142.484 23.7858C142.53 23.9509 142.596 24.0896 142.682 24.2019C142.768 24.3142 142.873 24.4001 142.992 24.4595C143.111 24.519 143.25 24.5454 143.395 24.5454C143.547 24.5454 143.686 24.519 143.811 24.4595C143.937 24.4001 144.036 24.3142 144.115 24.2019C144.201 24.0896 144.26 23.9509 144.307 23.7858C144.353 23.6207 144.373 23.4291 144.373 23.2111V22.9799H144.366ZM143.62 20.3246H144.175L143.507 21.0512H143.138L143.62 20.3246Z" fill="white"/>
<path d="M148.937 24.9021H148.461L146.638 22.1213V24.9021H146.163V21.289H146.638L148.461 24.083V21.289H148.937V24.9021Z" fill="white"/>
<path d="M154.182 23.9906C154.182 23.9047 154.168 23.832 154.142 23.766C154.116 23.6999 154.069 23.6405 154.003 23.5876C153.937 23.5348 153.851 23.482 153.739 23.4357C153.627 23.3895 153.488 23.3432 153.316 23.2904C153.138 23.2376 152.98 23.1781 152.834 23.1187C152.689 23.0526 152.563 22.9799 152.464 22.8941C152.365 22.8082 152.286 22.7091 152.233 22.6034C152.18 22.4978 152.154 22.3723 152.154 22.2269C152.154 22.0816 152.18 21.9561 152.24 21.8372C152.299 21.7183 152.378 21.6126 152.491 21.5268C152.596 21.4409 152.729 21.3682 152.88 21.322C153.032 21.2758 153.197 21.2493 153.382 21.2493C153.587 21.2493 153.766 21.2824 153.924 21.3418C154.083 21.4013 154.215 21.4871 154.327 21.5862C154.439 21.6853 154.512 21.7976 154.565 21.9297C154.624 22.0618 154.651 22.2005 154.651 22.3392H154.175C154.175 22.2401 154.155 22.1477 154.129 22.0618C154.096 21.9759 154.05 21.9033 153.984 21.8372C153.917 21.7712 153.832 21.7249 153.733 21.6919C153.633 21.6589 153.515 21.6391 153.382 21.6391C153.257 21.6391 153.145 21.6523 153.052 21.6853C152.96 21.7183 152.88 21.758 152.821 21.8108C152.762 21.8636 152.715 21.9231 152.682 21.9958C152.649 22.0684 152.636 22.1477 152.636 22.2269C152.636 22.3062 152.649 22.3723 152.682 22.4317C152.715 22.4978 152.762 22.5506 152.834 22.6034C152.9 22.6563 152.986 22.7025 153.098 22.7488C153.204 22.795 153.33 22.8346 153.482 22.8809C153.686 22.9403 153.865 22.9998 154.01 23.0724C154.155 23.1451 154.281 23.2243 154.38 23.3102C154.479 23.4027 154.552 23.5018 154.598 23.6075C154.644 23.7197 154.67 23.8452 154.67 23.984C154.67 24.1293 154.644 24.2614 154.578 24.3803C154.519 24.4992 154.433 24.5983 154.32 24.6841C154.208 24.77 154.076 24.836 153.924 24.8757C153.772 24.9219 153.6 24.9417 153.409 24.9417C153.297 24.9417 153.191 24.9351 153.079 24.9087C152.966 24.8889 152.861 24.8559 152.762 24.8162C152.662 24.7766 152.563 24.7238 152.478 24.6643C152.392 24.6049 152.319 24.5322 152.253 24.4529C152.187 24.3737 152.141 24.2812 152.101 24.1821C152.068 24.083 152.048 23.9707 152.048 23.8519H152.524C152.524 23.9774 152.55 24.083 152.596 24.1689C152.643 24.2548 152.709 24.3274 152.795 24.3869C152.874 24.4463 152.973 24.486 153.079 24.5124C153.184 24.5388 153.297 24.552 153.415 24.552C153.666 24.552 153.858 24.4992 153.997 24.4001C154.116 24.3076 154.182 24.1689 154.182 23.9906Z" fill="white"/>
<path d="M158.416 21.289V23.733C158.416 23.9377 158.383 24.1161 158.31 24.268C158.237 24.4199 158.145 24.5454 158.026 24.6445C157.907 24.7436 157.768 24.8228 157.61 24.8691C157.451 24.9219 157.286 24.9417 157.108 24.9417C156.923 24.9417 156.751 24.9153 156.593 24.8691C156.434 24.8162 156.295 24.7436 156.183 24.6445C156.064 24.5454 155.972 24.4199 155.906 24.268C155.84 24.1161 155.807 23.9377 155.807 23.733V21.289H156.276V23.733C156.276 23.8717 156.295 23.9972 156.335 24.0963C156.375 24.2019 156.434 24.2878 156.507 24.3539C156.579 24.4199 156.665 24.4728 156.771 24.5058C156.87 24.5388 156.989 24.5586 157.108 24.5586C157.233 24.5586 157.346 24.5388 157.451 24.5058C157.55 24.4728 157.643 24.4199 157.716 24.3539C157.788 24.2878 157.841 24.2019 157.881 24.0963C157.92 23.9906 157.94 23.8717 157.94 23.733V21.289H158.416Z" fill="white"/>
<path d="M161.699 23.9906C161.699 23.9047 161.685 23.832 161.659 23.766C161.632 23.6999 161.586 23.6405 161.52 23.5876C161.454 23.5348 161.368 23.482 161.256 23.4357C161.144 23.3895 161.005 23.3432 160.833 23.2904C160.655 23.2376 160.496 23.1781 160.351 23.1187C160.206 23.0526 160.08 22.9799 159.981 22.8941C159.882 22.8082 159.803 22.7091 159.75 22.6034C159.697 22.4978 159.671 22.3723 159.671 22.2269C159.671 22.0816 159.697 21.9561 159.757 21.8372C159.816 21.7183 159.895 21.6126 160.008 21.5268C160.113 21.4409 160.245 21.3682 160.397 21.322C160.549 21.2758 160.714 21.2493 160.899 21.2493C161.104 21.2493 161.282 21.2824 161.441 21.3418C161.599 21.4013 161.732 21.4871 161.844 21.5862C161.956 21.6853 162.035 21.8042 162.088 21.9363C162.148 22.0684 162.174 22.2071 162.174 22.3458H161.699C161.699 22.2468 161.685 22.1543 161.652 22.0684C161.619 21.9825 161.573 21.9099 161.507 21.8438C161.441 21.7778 161.362 21.7315 161.256 21.6985C161.157 21.6655 161.038 21.6457 160.906 21.6457C160.78 21.6457 160.668 21.6589 160.576 21.6919C160.483 21.7249 160.404 21.7646 160.344 21.8174C160.285 21.8703 160.239 21.9297 160.206 22.0024C160.173 22.075 160.159 22.1543 160.159 22.2335C160.159 22.3128 160.173 22.3789 160.206 22.4383C160.239 22.5044 160.285 22.5572 160.358 22.61C160.424 22.6629 160.51 22.7091 160.622 22.7554C160.728 22.8016 160.853 22.8412 161.005 22.8875C161.21 22.9469 161.388 23.0064 161.533 23.079C161.679 23.1517 161.804 23.2309 161.903 23.3168C162.002 23.4093 162.075 23.5084 162.121 23.6141C162.168 23.7264 162.194 23.8519 162.194 23.9906C162.194 24.1359 162.161 24.268 162.101 24.3869C162.042 24.5058 161.956 24.6049 161.85 24.6907C161.738 24.7766 161.606 24.8427 161.454 24.8823C161.302 24.9285 161.13 24.9483 160.939 24.9483C160.827 24.9483 160.714 24.9417 160.609 24.9153C160.496 24.8955 160.391 24.8625 160.292 24.8228C160.193 24.7832 160.093 24.7304 160.008 24.6709C159.922 24.6115 159.842 24.5388 159.783 24.4595C159.717 24.3803 159.671 24.2878 159.631 24.1887C159.598 24.0896 159.578 23.9774 159.578 23.8585H160.054C160.054 23.984 160.08 24.0896 160.126 24.1755C160.173 24.2614 160.239 24.334 160.325 24.3935C160.404 24.4529 160.503 24.4926 160.609 24.519C160.714 24.5454 160.827 24.5586 160.946 24.5586C161.197 24.5586 161.388 24.5058 161.52 24.4067C161.632 24.3076 161.699 24.1689 161.699 23.9906Z" fill="white"/>
<path d="M165.886 21.6853H164.73V24.9021H164.255V21.6853H163.099V21.289H165.886V21.6853Z" fill="white"/>
<path d="M169.077 23.231H167.511V24.5124H169.328V24.9021H167.036V21.289H169.301V21.6853H167.511V22.8412H169.077V23.231Z" fill="white"/>
<path d="M173.304 24.9021H172.822L171.005 22.1213V24.9021H170.53V21.289H171.005L172.829 24.083V21.289H173.304V24.9021Z" fill="white"/>
<path d="M177.175 21.6853H176.019V24.9021H175.543V21.6853H174.387V21.289H177.175V21.6853Z" fill="white"/>
<path d="M180.114 23.9575H178.602L178.265 24.9021H177.776L179.156 21.2956H179.573L180.953 24.9021H180.464L180.114 23.9575ZM178.747 23.5678H179.975L179.361 21.8835L178.747 23.5678Z" fill="white"/>
<path d="M182.043 21.2956H183.225C183.41 21.2956 183.575 21.3154 183.721 21.355C183.866 21.3947 183.992 21.4475 184.091 21.5268C184.19 21.606 184.269 21.7051 184.322 21.824C184.375 21.9429 184.401 22.0882 184.401 22.26C184.401 22.4251 184.355 22.577 184.256 22.7091C184.163 22.8412 184.031 22.9403 183.866 23.013C183.965 23.0394 184.058 23.0856 184.137 23.1385C184.216 23.1913 184.282 23.2574 184.335 23.33C184.388 23.4027 184.428 23.4886 184.461 23.581C184.487 23.6735 184.5 23.7726 184.5 23.8717C184.5 24.0434 184.474 24.1887 184.414 24.3208C184.355 24.4529 184.276 24.5586 184.17 24.6445C184.064 24.7304 183.939 24.7964 183.793 24.8426C183.648 24.8889 183.483 24.9087 183.305 24.9087H182.043V21.2956ZM182.519 22.828H183.239C183.338 22.828 183.437 22.8148 183.516 22.7884C183.602 22.762 183.674 22.7223 183.734 22.6761C183.793 22.6233 183.84 22.5638 183.873 22.4912C183.906 22.4185 183.926 22.3392 183.926 22.2468C183.926 22.0486 183.866 21.9033 183.754 21.8174C183.641 21.7249 183.463 21.6853 183.225 21.6853H182.519V22.828ZM182.519 24.5124H183.305C183.417 24.5124 183.523 24.4992 183.608 24.4661C183.694 24.4331 183.774 24.3935 183.833 24.334C183.892 24.2812 183.939 24.2085 183.972 24.1293C184.005 24.05 184.018 23.9575 184.018 23.8585C184.018 23.7594 184.005 23.6669 183.978 23.5876C183.952 23.5084 183.912 23.4357 183.853 23.3829C183.793 23.33 183.721 23.2838 183.635 23.2508C183.549 23.2177 183.443 23.2045 183.324 23.2045H182.519V24.5124Z" fill="white"/>
<path d="M186.29 24.5124H188.001V24.9021H185.815V21.289H186.29V24.5124Z" fill="white"/>
<path d="M191.191 23.231H189.626V24.5124H191.449V24.9021H189.157V21.289H191.423V21.6853H189.626V22.8412H191.191V23.231Z" fill="white"/>
<path d="M46.6138 2.81387C43.4102 2.81387 40.8077 5.41637 40.8077 8.61996V16.2359H42.9875V11.5659H50.2335V16.2359H52.4133V8.62656C52.4199 5.42298 49.8174 2.81387 46.6138 2.81387ZM42.9875 9.38618V8.61996C42.9875 6.61854 44.6124 4.99363 46.6138 4.99363C48.6086 4.99363 50.2401 6.61854 50.2401 8.61996V9.38618H42.9875Z" fill="white"/>
<path d="M135.469 2.81387C132.265 2.81387 129.663 5.41637 129.663 8.61996V16.2359H131.842V11.5659H139.088V16.2359H141.268V8.62656C141.275 5.42298 138.666 2.81387 135.469 2.81387ZM131.842 9.38618V8.61996C131.842 6.61854 133.467 4.99363 135.469 4.99363C137.464 4.99363 139.095 6.61854 139.095 8.61996V9.38618H131.842Z" fill="white"/>
<path d="M187.109 2.81387C183.906 2.81387 181.303 5.41637 181.303 8.61996V16.2359H183.483V11.5659H190.729V16.2359H192.909V8.62656C192.915 5.42298 190.313 2.81387 187.109 2.81387ZM183.49 9.38618V8.61996C183.49 6.61854 185.114 4.99363 187.116 4.99363C189.111 4.99363 190.742 6.61854 190.742 8.61996V9.38618H183.49Z" fill="white"/>
<path d="M67.0243 16.2359H62.2156C58.4968 16.2359 55.4716 13.2107 55.4716 9.49186C55.4716 5.77306 58.4968 2.74782 62.2156 2.74782H67.0243V4.92758H62.2156C59.699 4.92758 57.6579 6.97523 57.6579 9.48526C57.6579 12.0019 59.7056 14.0429 62.2156 14.0429H67.0243V16.2359Z" fill="white"/>
<path d="M76.034 4.94079H80.8427V2.76103H76.034C72.3152 2.76103 69.2899 5.78627 69.2899 9.50507C69.2899 13.2239 72.3152 16.2491 76.034 16.2491H80.8427V14.0694H76.034C73.9005 14.0694 72.117 12.5898 71.6216 10.6016H80.8427V8.4218H71.6216C72.1104 6.42038 73.8938 4.94079 76.034 4.94079Z" fill="white"/>
<path d="M161.177 2.74782H158.997V16.2425H161.177V2.74782Z" fill="white"/>
<path d="M175.451 2.74782V9.86176C172.492 5.07289 167.795 2.8535 167.538 2.74782H165.325V16.2425H167.505V5.15216C169.466 6.22222 174.427 9.72965 175.451 15.9915V16.2425H177.631V2.74782H175.451Z" fill="white"/>
<path d="M87.4084 16.2227V11.3744H92.2897L94.9517 16.2227H97.3824L94.5818 11.0837C96.2133 10.4694 97.3824 8.90399 97.3824 7.0611C97.3824 4.68318 95.447 2.74782 93.0691 2.74782H85.222V16.2425H85.2814V16.2227H87.4084ZM87.4084 4.92758H93.0691C94.2449 4.92758 95.196 5.88535 95.196 7.0611C95.196 8.23685 94.2383 9.19462 93.0691 9.19462H87.4084V4.92758Z" fill="white"/>
<path d="M106.636 16.2359C102.918 16.2359 99.8924 13.2107 99.8924 9.49186C99.8924 5.77306 102.918 2.74782 106.636 2.74782C110.355 2.74782 113.381 5.77306 113.381 9.49186C113.381 13.2107 110.355 16.2359 106.636 16.2359ZM106.636 4.84171C104.074 4.84171 101.986 6.92899 101.986 9.49186C101.986 12.0547 104.074 14.142 106.636 14.142C109.199 14.142 111.287 12.0547 111.287 9.49186C111.287 6.92899 109.199 4.84171 106.636 4.84171Z" fill="white"/>
<path d="M125.079 12.1142C124.557 13.2569 123.414 14.0495 122.08 14.0495H118.619V2.74782H116.432L116.439 16.2425H122.08C124.636 16.2425 126.783 14.4855 127.39 12.1208H125.079V12.1142Z" fill="white"/>
<path d="M155.49 2.74782H148.257C145.7 2.74782 143.554 4.50484 142.946 6.86954H145.258C145.78 5.73343 146.922 4.93418 148.257 4.93418H149.162V16.2359H151.348L151.341 4.93418H155.49V2.74782Z" fill="white"/>
<path d="M33.7731 14.1618L27.8613 15.899C27.9472 15.2781 28.0066 14.644 28.0066 13.9967C28 6.26846 21.7315 0 14.0033 0C6.26846 0 0 6.26846 0 14.0033C0 21.7381 6.26846 28.0066 14.0033 28.0066C17.6957 28.0066 21.256 26.4477 23.9972 24.05C29.0965 19.5782 33.7731 14.1618 33.7731 14.1618ZM14.0033 22.9667C9.0493 22.9667 5.03326 18.9507 5.03326 13.9967C5.03326 9.0427 9.0493 5.03326 14.0033 5.03326C18.9573 5.03326 22.9667 9.0493 22.9667 14.0033C22.9667 18.9573 18.9573 22.9667 14.0033 22.9667Z" fill="white"/>
</svg>
