<svg width="240" height="240" viewBox="0 0 240 240" fill="none" xmlns="http://www.w3.org/2000/svg">
<path d="M120 240C53.8345 240 0 186.166 0 120C0 53.8345 53.8345 0 120 0C186.166 0 240 53.8345 240 120C240 186.166 186.166 240 120 240ZM120 4.13793C56.1103 4.13793 4.13793 56.1163 4.13793 120C4.13793 183.884 56.1103 235.862 120 235.862C183.89 235.862 235.862 183.884 235.862 120C235.862 56.1163 183.89 4.13793 120 4.13793Z" fill="#86F99F"/>
<path d="M23.9586 109.076L17.1961 108.254L16.8769 110.896L15.4227 110.719L16.2798 103.69L17.734 103.868L17.4148 106.51L24.1773 107.332L23.9645 109.082L23.9586 109.076Z" fill="#86F99F"/>
<path d="M24.804 102.969L16.6995 101.29L17.87 95.6387L19.3064 95.9342L18.4966 99.8475L20.2995 100.22L21.0384 96.6554L22.4276 96.9451L21.6887 100.51L23.7281 100.929L24.5379 97.016L25.9744 97.3116L24.804 102.963V102.969Z" fill="#86F99F"/>
<path d="M27.5646 92.1751C27.3577 92.8608 27.0385 93.4342 26.601 93.8953C26.1636 94.3504 25.602 94.646 24.9222 94.7761C24.2365 94.9061 23.4148 94.8233 22.4572 94.5396L22.2325 94.4746C21.535 94.2677 20.9675 94.0017 20.5301 93.6706C20.0867 93.3396 19.7616 92.9672 19.5429 92.5416C19.3242 92.116 19.2 91.6667 19.1823 91.1938C19.1586 90.7209 19.2237 90.2303 19.3715 89.7337C19.5015 89.2904 19.6848 88.8884 19.9094 88.5337C20.134 88.179 20.4 87.8835 20.7133 87.647C21.0207 87.4105 21.3813 87.2509 21.7833 87.1682C22.1852 87.0854 22.6227 87.1032 23.1015 87.2096L22.5754 88.9771C22.1025 88.9298 21.7242 89.0125 21.4286 89.2253C21.133 89.444 20.9261 89.7514 20.802 90.1593C20.7074 90.4785 20.6956 90.7918 20.7724 91.111C20.8434 91.4303 21.0385 91.7258 21.3518 92.0036C21.6651 92.2815 22.138 92.5179 22.7705 92.7071L22.9951 92.7721C23.4917 92.9199 23.9291 92.9908 24.2956 92.9849C24.6621 92.9849 24.9754 92.9199 25.2237 92.8076C25.4779 92.6953 25.6788 92.5416 25.8266 92.3583C25.9744 92.1751 26.0867 91.9682 26.1518 91.7495C26.2818 91.3179 26.2759 90.9278 26.134 90.5849C25.9921 90.2421 25.7202 89.9702 25.3183 89.7869L25.8444 88.0194C26.3232 88.2027 26.7133 88.4391 27.0089 88.7229C27.3045 89.0066 27.5173 89.3317 27.6473 89.6923C27.7774 90.0529 27.8306 90.4431 27.8069 90.8628C27.7892 91.2825 27.7123 91.7199 27.5764 92.1751H27.5646Z" fill="#86F99F"/>
<path d="M29.0778 86.9492L21.4108 83.8339L22.0374 82.291L28.3389 80.9078L23.4089 78.9097L24.065 77.29L31.732 80.4053L31.1054 81.9482L24.8039 83.3314L29.734 85.3295L29.0778 86.9492Z" fill="#86F99F"/>
<path d="M34.534 75.1327C34.2917 75.5938 33.9902 75.9898 33.6355 76.3327C33.2808 76.6696 32.867 76.9238 32.4 77.0952C31.933 77.2667 31.4128 77.314 30.8394 77.2489C30.266 77.1839 29.6453 76.977 28.9774 76.6223L28.7705 76.51C28.132 76.1731 27.6296 75.7888 27.269 75.3632C26.9084 74.9376 26.666 74.4883 26.5478 74.0095C26.4237 73.5307 26.4 73.0519 26.4769 72.5672C26.5537 72.0824 26.7133 71.6095 26.9557 71.1484C27.1981 70.6874 27.4995 70.2913 27.8542 69.9484C28.2089 69.6115 28.6227 69.3573 29.0838 69.1859C29.5508 69.0144 30.0591 68.9553 30.6089 69.0144C31.1586 69.0736 31.7616 69.2686 32.4 69.6056L32.6069 69.7179C33.2749 70.0726 33.801 70.4627 34.1793 70.9002C34.5577 71.3376 34.8059 71.7928 34.936 72.2716C35.066 72.7504 35.0838 73.2351 35.0069 73.7199C34.9301 74.2046 34.7705 74.6775 34.5281 75.1386L34.534 75.1327ZM33.2158 74.441C33.3872 74.1218 33.4641 73.7849 33.4641 73.4302C33.4641 73.0755 33.3222 72.7209 33.0621 72.3662C32.802 72.0115 32.3646 71.6745 31.7557 71.3553L31.5488 71.243C30.9754 70.9415 30.4788 70.7878 30.0473 70.7819C29.6217 70.776 29.2611 70.8706 28.9655 71.0716C28.6759 71.2726 28.4453 71.5327 28.2739 71.8519C28.1084 72.1652 28.0256 72.5021 28.0256 72.8568C28.0256 73.2115 28.1498 73.5662 28.3981 73.9149C28.6463 74.2637 29.0542 74.5888 29.6276 74.8903L29.8345 75.0026C30.4434 75.3218 30.9636 75.4874 31.4069 75.5051C31.8503 75.5169 32.2168 75.4282 32.5183 75.2273C32.8138 75.0263 33.0444 74.7721 33.2099 74.4588L33.2158 74.441Z" fill="#86F99F"/>
<path d="M37.3241 69.86L30.3606 65.3851L31.3123 63.9014L37.0404 67.5841L39.0857 64.4038L40.3212 65.1959L37.3241 69.86Z" fill="#86F99F"/>
<path d="M43.5133 61.1407C43.1941 61.5545 42.8335 61.8974 42.4256 62.1693C42.0177 62.4412 41.5685 62.6186 41.0778 62.7072C40.5872 62.7959 40.067 62.7545 39.5172 62.5949C38.9675 62.4353 38.3882 62.122 37.7911 61.6609L37.602 61.5191C37.0286 61.0757 36.597 60.6146 36.3192 60.1358C36.0355 59.657 35.8759 59.1664 35.8404 58.6757C35.799 58.1851 35.864 57.7063 36.0177 57.2393C36.1773 56.7723 36.4138 56.3348 36.733 55.9269C37.0522 55.5132 37.4128 55.1703 37.8207 54.8984C38.2286 54.6265 38.6778 54.4432 39.1626 54.3604C39.6473 54.2777 40.1616 54.3013 40.6936 54.455C41.2315 54.6028 41.7872 54.8984 42.3606 55.3417L42.5497 55.4836C43.1468 55.9447 43.5961 56.4235 43.8916 56.9141C44.1872 57.4048 44.3586 57.9013 44.4 58.3979C44.4414 58.8944 44.3823 59.3733 44.2227 59.8343C44.063 60.3013 43.8266 60.7388 43.5074 61.1467L43.5133 61.1407ZM42.331 60.2304C42.5497 59.9407 42.6916 59.6274 42.7448 59.2728C42.798 58.924 42.7271 58.5516 42.532 58.1555C42.3369 57.7595 41.9645 57.3516 41.4207 56.9319L41.2315 56.79C40.7172 56.3939 40.2502 56.1575 39.8305 56.0747C39.4108 55.992 39.0384 56.0274 38.7192 56.1752C38.4 56.323 38.1281 56.5358 37.9034 56.8255C37.6847 57.1092 37.5488 57.4225 37.4896 57.7713C37.4305 58.1201 37.4896 58.4925 37.6729 58.8767C37.8562 59.2609 38.2049 59.6511 38.7192 60.0471L38.9084 60.189C39.4522 60.6087 39.9369 60.8629 40.3744 60.9516C40.8059 61.0402 41.1901 61.0107 41.5153 60.8688C41.8404 60.721 42.1123 60.5082 42.331 60.2304Z" fill="#86F99F"/>
<path d="M49.6138 53.9762C49.1113 54.5141 48.5616 54.8924 47.9527 55.1171C47.3438 55.3417 46.7054 55.3654 46.0256 55.188C45.3458 55.0107 44.6424 54.5791 43.9094 53.8934L43.7379 53.7338C43.2118 53.2432 42.8335 52.7466 42.5852 52.2442C42.3429 51.7417 42.2187 51.2511 42.2246 50.7663C42.2246 50.2816 42.3251 49.8205 42.5143 49.3831C42.7094 48.9456 42.9813 48.5437 43.3241 48.1713C43.6493 47.8284 43.9862 47.5506 44.335 47.3437C44.6837 47.1368 45.0443 47.0008 45.4108 46.9358C45.7773 46.8708 46.1557 46.8826 46.5399 46.9713C46.9241 47.0599 47.3084 47.2314 47.6985 47.4915L46.4394 48.8392C46.1202 48.6915 45.8424 48.6264 45.5941 48.6323C45.3458 48.6323 45.1271 48.6915 44.932 48.7979C44.7369 48.9043 44.5714 49.0402 44.4177 49.1998C44.1813 49.454 44.0217 49.7437 43.9389 50.0747C43.8562 50.4057 43.8975 50.7604 44.0512 51.1506C44.2049 51.5407 44.5182 51.9545 44.9911 52.392L45.1626 52.5516C45.535 52.9003 45.8897 53.1545 46.2148 53.3141C46.5458 53.4678 46.8473 53.5506 47.1369 53.5506C47.4207 53.5506 47.6808 53.4974 47.9113 53.391C48.1419 53.2846 48.3429 53.1368 48.5143 52.9535C48.7448 52.7053 48.9103 52.4392 49.0167 52.1614C49.1231 51.8836 49.135 51.588 49.0699 51.2806C49.0049 50.9732 48.8335 50.6777 48.5616 50.3762L47.4148 51.5998L46.5163 50.7604L48.8158 48.3013L49.1586 48.6264C49.6611 49.0934 50.0335 49.5604 50.2818 50.0274C50.53 50.4944 50.666 50.9555 50.6897 51.4107C50.7133 51.8658 50.6246 52.3092 50.4414 52.7407C50.2581 53.1723 49.9744 53.586 49.602 53.9821L49.6138 53.9762Z" fill="#86F99F"/>
<path d="M47.6571 43.1819L47.403 40.9947L48.7862 39.7061L48.6916 42.2125L47.6512 43.176L47.6571 43.1819ZM53.5744 49.7908L47.9409 43.7317L49.2296 42.5317L54.863 48.5908L53.5744 49.7908Z" fill="#86F99F"/>
<path d="M56.1222 47.3616L53.3025 38.9971L54.6739 37.8857L62.2818 42.3724L60.8276 43.5488L59.267 42.6385L56.8907 44.5655L57.47 46.2739L56.1281 47.3616H56.1222ZM56.3882 43.0818L57.9311 41.8286L55.3478 40.2207L56.3823 43.0759L56.3882 43.0818Z" fill="#86F99F"/>
<path d="M66.5497 39.4048L62.1813 32.3762L64.8828 30.6974C65.5212 30.3013 66.1005 30.0708 66.6384 30.0058C67.1704 29.9407 67.6493 30.0176 68.063 30.2363C68.4768 30.455 68.8315 30.8038 69.1212 31.2708C69.4108 31.7378 69.5645 32.2107 69.5763 32.6777C69.5882 33.1447 69.4463 33.6058 69.1507 34.055C68.8552 34.5043 68.3882 34.924 67.7497 35.32L66.5438 36.0708L68.0394 38.4826L66.5438 39.4107L66.5497 39.4048ZM65.7754 34.8235L66.8335 34.1673C67.3714 33.8363 67.6906 33.5112 67.797 33.192C67.9034 32.8787 67.8443 32.5417 67.6315 32.1929C67.4187 31.8501 67.1468 31.655 66.8158 31.6077C66.4847 31.5604 66.0473 31.7023 65.5153 32.0333L64.463 32.6895L65.7872 34.8176L65.7754 34.8235Z" fill="#86F99F"/>
<path d="M72.2719 35.8459L71.2138 27.0794L72.7803 26.2695L79.3123 32.2104L77.6512 33.0676L76.3094 31.8557L73.5902 33.2567L73.8089 35.0479L72.2719 35.84V35.8459ZM73.401 31.708L75.1685 30.7976L72.9695 28.6991L73.401 31.708Z" fill="#86F99F"/>
<path d="M80.7784 31.5837L77.6631 23.9167L80.7606 22.6576C81.405 22.3975 81.9784 22.2793 82.4926 22.3148C83.001 22.3443 83.4444 22.5039 83.8109 22.7817C84.1774 23.0596 84.467 23.4497 84.668 23.9463C84.8808 24.4724 84.934 24.9867 84.8217 25.4832C84.7094 25.9857 84.4138 26.4349 83.9291 26.8369L87.003 29.0596L85.1054 29.8281L82.3567 27.6763L81.2749 28.1138L82.4158 30.9157L80.7843 31.5778L80.7784 31.5837ZM80.7488 26.8251L81.9015 26.3581C82.5104 26.1098 82.8887 25.8497 83.0365 25.5719C83.1902 25.2941 83.1902 24.9748 83.0365 24.6083C82.8887 24.2418 82.6641 24.0113 82.3626 23.9167C82.0611 23.8221 81.6059 23.899 81.003 24.1473L79.8503 24.6143L80.7488 26.8251Z" fill="#86F99F"/>
<path d="M88.1143 28.6455L88.6523 19.8317L90.337 19.3174L95.6926 26.34L93.9074 26.8839L92.8079 25.4533L89.8759 26.34L89.7695 28.1371L88.1202 28.6396L88.1143 28.6455ZM89.9705 24.7854L91.8739 24.2061L90.0887 21.7469L89.9705 24.7854Z" fill="#86F99F"/>
<path d="M104.087 24.7978C103.389 24.916 102.763 24.8923 102.207 24.7268C101.651 24.5613 101.196 24.2539 100.83 23.7928C100.463 23.3318 100.221 22.7229 100.097 21.9603L99.2808 17.0598L101.019 16.7702L101.805 21.5052C101.923 22.2027 102.142 22.7052 102.473 23.0125C102.804 23.3199 103.259 23.4204 103.844 23.3258C104.43 23.2313 104.826 22.983 105.038 22.5869C105.251 22.1909 105.304 21.647 105.186 20.9554L104.4 16.2086L106.138 15.9189L106.954 20.8194C107.078 21.582 107.048 22.2382 106.853 22.7879C106.664 23.3377 106.327 23.781 105.86 24.118C105.387 24.449 104.796 24.6795 104.093 24.7978H104.087Z" fill="#86F99F"/>
<path d="M109.803 23.816L109.241 15.5579L110.902 15.4456L114.91 20.5057L114.55 15.1973L116.294 15.0791L116.855 23.3372L115.194 23.4495L111.186 18.3894L111.547 23.6978L109.803 23.816Z" fill="#86F99F"/>
<path d="M122.861 23.2962L123.458 15.0439L125.214 15.174L127.389 20.0036L130.227 15.5405L131.935 15.6646L131.338 23.9169L129.57 23.7868L129.949 18.5375L127.732 21.9898L126.686 21.9129L125.001 18.1769L124.623 23.4262L122.867 23.2962H122.861Z" fill="#86F99F"/>
<path d="M137.007 24.9864C136.309 24.8623 135.724 24.6318 135.257 24.2889C134.79 23.952 134.459 23.5027 134.27 22.947C134.081 22.3914 134.051 21.7352 134.187 20.9727L135.056 16.084L136.788 16.3914L135.949 21.1145C135.825 21.8121 135.866 22.3618 136.079 22.7579C136.286 23.1539 136.682 23.4081 137.267 23.5086C137.846 23.615 138.307 23.5086 138.638 23.213C138.969 22.9116 139.2 22.415 139.324 21.7234L140.169 16.9884L141.901 17.2958L141.033 22.1845C140.897 22.947 140.648 23.55 140.282 24.0111C139.915 24.4722 139.454 24.7736 138.899 24.9273C138.343 25.0869 137.71 25.0988 137.007 24.9746V24.9864Z" fill="#86F99F"/>
<path d="M142.717 25.9685L144.946 18L146.554 18.4493L148.634 24.5557L150.071 19.4305L151.756 19.9034L149.527 27.8719L147.919 27.4227L145.838 21.3163L144.402 26.4414L142.717 25.9685Z" fill="#86F99F"/>
<path d="M151.815 28.6518L154.8 20.9316L157.478 21.9661C158.258 22.2676 158.867 22.6637 159.31 23.1543C159.754 23.6449 160.014 24.2243 160.097 24.8804C160.179 25.5366 160.061 26.2755 159.748 27.0853L159.665 27.3041C159.346 28.1257 158.926 28.7642 158.406 29.2134C157.886 29.6627 157.283 29.9228 156.603 29.9937C155.923 30.0646 155.184 29.9464 154.386 29.639L151.815 28.6459V28.6518ZM153.99 27.9188L154.806 28.2321C155.208 28.3858 155.61 28.4509 156 28.4272C156.39 28.4036 156.757 28.2499 157.094 27.972C157.431 27.6942 157.72 27.2509 157.951 26.6479L158.034 26.4292C158.258 25.8558 158.341 25.3651 158.288 24.9513C158.234 24.5376 158.081 24.1947 157.815 23.9287C157.549 23.6568 157.224 23.4499 156.834 23.2962L155.905 22.9356L153.978 27.9188H153.99Z" fill="#86F99F"/>
<path d="M163.194 33.6706C162.727 33.4401 162.325 33.1445 161.976 32.7957C161.628 32.447 161.368 32.0391 161.19 31.578C161.013 31.1169 160.948 30.5967 161.001 30.0233C161.054 29.4499 161.249 28.8233 161.592 28.1494L161.699 27.9366C162.024 27.2864 162.396 26.778 162.816 26.4115C163.235 26.045 163.679 25.7967 164.158 25.6608C164.631 25.5307 165.115 25.4953 165.6 25.5662C166.085 25.6312 166.564 25.7849 167.031 26.0155C167.498 26.246 167.9 26.5416 168.248 26.8903C168.597 27.2391 168.857 27.647 169.035 28.1022C169.212 28.5632 169.283 29.0716 169.235 29.6273C169.188 30.1829 169.005 30.7859 168.68 31.4302L168.573 31.643C168.236 32.3169 167.852 32.849 167.427 33.2332C167.001 33.6174 166.546 33.8775 166.073 34.0135C165.594 34.1494 165.115 34.1849 164.625 34.114C164.14 34.049 163.661 33.8953 163.2 33.6647L163.194 33.6706ZM163.856 32.3406C164.181 32.5002 164.518 32.577 164.873 32.5652C165.228 32.5534 165.582 32.4115 165.931 32.1455C166.28 31.8795 166.611 31.4361 166.918 30.8214L167.025 30.6086C167.314 30.0292 167.456 29.5268 167.456 29.1012C167.456 28.6756 167.35 28.315 167.149 28.0253C166.948 27.7356 166.682 27.511 166.357 27.3514C166.037 27.1918 165.701 27.115 165.346 27.1209C164.991 27.1268 164.636 27.2568 164.294 27.511C163.951 27.7652 163.632 28.1849 163.342 28.7583L163.235 28.9711C162.928 29.5859 162.774 30.112 162.768 30.5554C162.768 30.9987 162.863 31.3652 163.07 31.6608C163.277 31.9563 163.537 32.181 163.856 32.3406Z" fill="#86F99F"/>
<path d="M173.965 39.9782C173.356 39.5703 172.906 39.1388 172.617 38.6955C172.327 38.2521 172.179 37.8088 172.173 37.3595C172.168 36.9102 172.292 36.4787 172.546 36.059L174.018 37.0521C173.9 37.3418 173.882 37.6196 173.976 37.8797C174.071 38.1398 174.343 38.4294 174.804 38.7368C175.271 39.056 175.655 39.2216 175.945 39.2334C176.235 39.2452 176.465 39.1329 176.619 38.8964C176.749 38.7014 176.796 38.5004 176.761 38.2935C176.725 38.0866 176.613 37.856 176.424 37.6019C176.235 37.3477 175.968 37.0462 175.62 36.6974C175.218 36.2955 174.904 35.8994 174.686 35.5092C174.461 35.1191 174.361 34.729 174.378 34.3329C174.396 33.9368 174.55 33.523 174.839 33.0915C175.111 32.6955 175.448 32.4176 175.856 32.2757C176.264 32.1339 176.719 32.1043 177.216 32.2048C177.712 32.3053 178.227 32.5299 178.759 32.8905C179.332 33.2807 179.752 33.6767 180.012 34.0846C180.272 34.4925 180.402 34.9063 180.402 35.326C180.402 35.7457 180.284 36.1595 180.053 36.5733L178.593 35.5861C178.7 35.3142 178.711 35.0659 178.623 34.8413C178.534 34.6166 178.303 34.3743 177.925 34.1201C177.541 33.86 177.216 33.7299 176.95 33.7299C176.684 33.7299 176.477 33.8363 176.335 34.0432C176.164 34.2974 176.152 34.5812 176.311 34.8945C176.471 35.2078 176.778 35.5979 177.251 36.0708C177.576 36.3959 177.848 36.7033 178.067 37.0048C178.286 37.3063 178.439 37.6078 178.534 37.9092C178.623 38.2107 178.64 38.5181 178.587 38.8255C178.534 39.1329 178.392 39.4521 178.167 39.7831C177.884 40.2028 177.529 40.4925 177.098 40.658C176.666 40.8235 176.187 40.8531 175.655 40.7408C175.123 40.6285 174.562 40.3743 173.97 39.9723L173.965 39.9782Z" fill="#86F99F"/>
<path d="M180.952 45.1743C180.402 44.725 180.006 44.2403 179.764 43.7142C179.521 43.1881 179.45 42.6383 179.557 42.0649C179.663 41.4915 179.959 40.9004 180.443 40.3034L183.582 36.4551L184.948 37.5664L181.915 41.2846C181.466 41.8344 181.235 42.3309 181.23 42.7861C181.218 43.2354 181.442 43.6492 181.903 44.0216C182.359 44.394 182.808 44.53 183.245 44.4295C183.683 44.329 184.126 44.0098 184.569 43.4659L187.608 39.7359L188.973 40.8472L185.834 44.6955C185.344 45.2925 184.83 45.7063 184.292 45.925C183.748 46.1438 183.198 46.191 182.636 46.0551C182.075 45.9191 181.513 45.6295 180.958 45.1743H180.952Z" fill="#86F99F"/>
<path d="M187.46 50.9853C186.934 50.471 186.573 49.9745 186.367 49.4838C186.16 48.9932 186.095 48.5321 186.166 48.0888C186.236 47.6454 186.437 47.2434 186.763 46.8769L188.028 48.1183C187.856 48.3843 187.797 48.6503 187.838 48.9282C187.88 49.206 188.104 49.5311 188.501 49.9213C188.908 50.3173 189.251 50.5479 189.535 50.6129C189.819 50.6779 190.061 50.607 190.262 50.406C190.428 50.2346 190.51 50.0454 190.51 49.8385C190.51 49.6316 190.439 49.3833 190.303 49.0996C190.162 48.8159 189.955 48.4671 189.677 48.0651C189.352 47.5922 189.115 47.1489 188.968 46.7292C188.82 46.3094 188.784 45.9016 188.873 45.5114C188.962 45.1213 189.186 44.7429 189.553 44.3705C189.89 44.0277 190.268 43.8208 190.7 43.7498C191.125 43.6789 191.58 43.738 192.053 43.9213C192.526 44.1104 192.993 44.4237 193.448 44.873C193.945 45.3577 194.282 45.8247 194.465 46.274C194.648 46.7232 194.701 47.1548 194.625 47.5626C194.548 47.9705 194.359 48.3607 194.057 48.7272L192.798 47.4976C192.952 47.2493 193.005 47.007 192.964 46.7705C192.916 46.5341 192.733 46.2562 192.408 45.937C192.077 45.6119 191.775 45.4287 191.515 45.3814C191.255 45.3341 191.031 45.3991 190.859 45.5824C190.646 45.8011 190.587 46.0789 190.682 46.4158C190.776 46.7528 191.013 47.1961 191.397 47.74C191.657 48.1183 191.87 48.473 192.03 48.8099C192.189 49.1469 192.29 49.472 192.325 49.7853C192.361 50.0986 192.325 50.4001 192.213 50.6957C192.101 50.9912 191.911 51.275 191.628 51.5646C191.273 51.9252 190.871 52.1498 190.422 52.2326C189.972 52.3154 189.494 52.2622 188.991 52.0553C188.489 51.8484 187.98 51.4996 187.472 50.9971L187.46 50.9853Z" fill="#86F99F"/>
<path d="M192.568 56.1511L197.716 51.6999L195.978 49.6901L197.09 48.7324L201.718 54.0881L200.607 55.0457L198.869 53.0359L193.72 57.4871L192.568 56.1571V56.1511Z" fill="#86F99F"/>
<path d="M196.522 60.8925L203.208 56.0156L206.607 60.6738L205.425 61.5368L203.066 58.3092L201.576 59.3969L203.722 62.3407L202.575 63.1802L200.43 60.2363L198.751 61.4659L201.109 64.6935L199.927 65.5565L196.528 60.8984L196.522 60.8925Z" fill="#86F99F"/>
<path d="M201.092 67.2767L208.185 63.0146L209.042 64.4452L206.365 70.3151L210.922 67.5782L211.821 69.0797L204.727 73.3417L203.87 71.9112L206.548 66.0413L201.99 68.7782L201.092 67.2767Z" fill="#86F99F"/>
<path d="M206.713 77.2548L212.849 74.2933L211.691 71.8992L213.009 71.2607L216.089 77.6391L214.77 78.2775L213.612 75.8834L207.476 78.845L206.713 77.2607V77.2548Z" fill="#86F99F"/>
<path d="M208.682 81.3039L217.507 81.168L218.146 82.8113L211.549 88.6872L210.875 86.9433L212.217 85.7374L211.105 82.8823L209.302 82.9118L208.676 81.3039H208.682ZM212.672 82.8586L213.393 84.7089L215.71 82.7404L212.672 82.8586Z" fill="#86F99F"/>
<path d="M212.022 90.2067L219.972 87.9131L220.954 91.3121C221.214 92.2047 221.214 92.9141 220.96 93.4461C220.705 93.9781 220.244 94.3328 219.582 94.5279C219.174 94.6461 218.796 94.6461 218.447 94.5279C218.099 94.4096 217.809 94.2027 217.584 93.8953C217.608 94.3801 217.496 94.7998 217.253 95.1486C217.005 95.4973 216.627 95.7456 216.112 95.8993C215.657 96.0293 215.237 96.0471 214.841 95.9584C214.451 95.8638 214.102 95.6451 213.801 95.2845C213.5 94.9298 213.251 94.4156 213.056 93.7535L212.034 90.2067H212.022ZM213.807 91.5249L214.25 93.0678C214.404 93.5998 214.599 93.9367 214.841 94.0904C215.084 94.2441 215.379 94.2678 215.734 94.1614C216.089 94.0609 216.337 93.8776 216.485 93.6175C216.627 93.3574 216.621 92.9555 216.461 92.4116L216.018 90.8806L213.801 91.519L213.807 91.5249ZM217.176 90.5495L217.572 91.9151C217.708 92.3761 217.892 92.6717 218.128 92.8077C218.365 92.9436 218.636 92.9614 218.944 92.8727C219.263 92.7781 219.476 92.6185 219.594 92.388C219.706 92.1574 219.701 91.8146 219.565 91.3476L219.168 89.9702L217.182 90.5436L217.176 90.5495Z" fill="#86F99F"/>
<path d="M214.28 98.488L222.396 96.8564L222.745 98.5826L216.071 99.9244L216.816 103.631L215.379 103.92L214.286 98.4821L214.28 98.488Z" fill="#86F99F"/>
<path d="M215.634 105.665L223.85 104.678L224.536 110.406L223.082 110.583L222.603 106.617L220.77 106.835L221.208 110.453L219.801 110.625L219.364 107.007L217.301 107.255L217.779 111.222L216.325 111.399L215.639 105.671L215.634 105.665Z" fill="#86F99F"/>
<path d="M216.041 130.924L222.804 131.746L223.123 129.104L224.577 129.281L223.72 136.309L222.266 136.132L222.585 133.49L215.823 132.668L216.035 130.918L216.041 130.924Z" fill="#86F99F"/>
<path d="M215.19 137.03L223.295 138.709L222.124 144.36L220.688 144.065L221.498 140.151L219.695 139.779L218.956 143.344L217.567 143.054L218.305 139.489L216.266 139.07L215.456 142.983L214.02 142.687L215.19 137.036V137.03Z" fill="#86F99F"/>
<path d="M212.435 147.824C212.642 147.138 212.962 146.565 213.399 146.104C213.836 145.649 214.398 145.353 215.078 145.223C215.764 145.093 216.585 145.176 217.543 145.459L217.768 145.525C218.459 145.731 219.033 145.997 219.47 146.328C219.913 146.659 220.238 147.032 220.457 147.458C220.676 147.883 220.8 148.332 220.818 148.805C220.841 149.278 220.776 149.769 220.629 150.265C220.493 150.709 220.315 151.111 220.091 151.465C219.866 151.82 219.6 152.116 219.287 152.352C218.979 152.589 218.619 152.748 218.217 152.831C217.815 152.914 217.371 152.896 216.899 152.79L217.425 151.022C217.898 151.069 218.276 150.987 218.571 150.774C218.867 150.555 219.074 150.248 219.198 149.84C219.293 149.521 219.304 149.207 219.228 148.888C219.151 148.569 218.962 148.273 218.648 147.995C218.335 147.718 217.862 147.481 217.23 147.292L217.005 147.227C216.508 147.079 216.071 147.008 215.704 147.014C215.338 147.014 215.025 147.079 214.776 147.192C214.522 147.304 214.321 147.458 214.173 147.641C214.026 147.824 213.913 148.031 213.848 148.25C213.718 148.681 213.724 149.071 213.866 149.414C214.008 149.757 214.28 150.029 214.682 150.212L214.156 151.98C213.677 151.796 213.287 151.56 212.991 151.276C212.696 150.992 212.483 150.667 212.353 150.307C212.223 149.946 212.169 149.556 212.187 149.136C212.205 148.717 212.282 148.279 212.418 147.824H212.435Z" fill="#86F99F"/>
<path d="M210.916 153.05L218.583 156.165L217.957 157.708L211.655 159.091L216.585 161.089L215.929 162.709L208.262 159.594L208.889 158.051L215.19 156.668L210.26 154.67L210.916 153.05Z" fill="#86F99F"/>
<path d="M205.466 164.867C205.708 164.406 206.01 164.01 206.365 163.667C206.719 163.33 207.133 163.076 207.6 162.904C208.067 162.733 208.587 162.686 209.161 162.751C209.734 162.816 210.355 163.023 211.023 163.377L211.23 163.49C211.874 163.826 212.37 164.211 212.731 164.636C213.092 165.062 213.334 165.511 213.452 165.99C213.576 166.469 213.6 166.948 213.523 167.432C213.446 167.917 213.287 168.39 213.044 168.851C212.802 169.312 212.501 169.708 212.146 170.051C211.791 170.388 211.377 170.642 210.916 170.814C210.455 170.985 209.947 171.044 209.391 170.985C208.835 170.926 208.238 170.731 207.594 170.394L207.387 170.282C206.719 169.927 206.193 169.537 205.815 169.099C205.436 168.668 205.188 168.207 205.058 167.728C204.928 167.249 204.91 166.764 204.987 166.28C205.064 165.795 205.224 165.322 205.466 164.861V164.867ZM206.784 165.558C206.613 165.878 206.536 166.215 206.536 166.569C206.536 166.924 206.678 167.279 206.938 167.633C207.198 167.988 207.635 168.325 208.244 168.644L208.451 168.757C209.025 169.058 209.521 169.212 209.953 169.218C210.378 169.224 210.739 169.129 211.034 168.928C211.324 168.727 211.555 168.467 211.726 168.148C211.892 167.834 211.974 167.497 211.974 167.143C211.974 166.788 211.85 166.433 211.602 166.085C211.354 165.736 210.946 165.411 210.372 165.109L210.166 164.997C209.557 164.678 209.036 164.512 208.593 164.494C208.15 164.483 207.783 164.571 207.482 164.772C207.186 164.973 206.956 165.227 206.79 165.541L206.784 165.558Z" fill="#86F99F"/>
<path d="M202.676 170.14L209.639 174.615L208.688 176.098L202.96 172.416L200.914 175.596L199.679 174.804L202.676 170.14Z" fill="#86F99F"/>
<path d="M196.487 178.858C196.806 178.445 197.167 178.102 197.574 177.83C197.982 177.558 198.432 177.381 198.922 177.292C199.413 177.203 199.933 177.245 200.483 177.404C201.033 177.564 201.612 177.877 202.209 178.338L202.398 178.48C202.971 178.923 203.403 179.385 203.681 179.863C203.965 180.342 204.124 180.833 204.16 181.323C204.195 181.814 204.136 182.293 203.976 182.76C203.817 183.227 203.58 183.664 203.261 184.072C202.942 184.486 202.581 184.829 202.173 185.101C201.766 185.373 201.316 185.556 200.832 185.639C200.347 185.721 199.833 185.698 199.301 185.544C198.763 185.396 198.207 185.101 197.634 184.657L197.444 184.516C196.847 184.054 196.398 183.576 196.102 183.085C195.807 182.594 195.635 182.098 195.594 181.601C195.553 181.105 195.612 180.626 195.771 180.165C195.931 179.698 196.168 179.26 196.487 178.853V178.858ZM197.669 179.769C197.45 180.058 197.308 180.372 197.255 180.726C197.202 181.075 197.273 181.448 197.468 181.844C197.663 182.24 198.035 182.648 198.579 183.067L198.768 183.209C199.283 183.605 199.744 183.842 200.169 183.924C200.589 184.007 200.962 183.972 201.281 183.824C201.6 183.676 201.872 183.463 202.097 183.174C202.315 182.89 202.451 182.577 202.516 182.228C202.575 181.879 202.516 181.507 202.333 181.122C202.15 180.738 201.801 180.348 201.287 179.952L201.098 179.81C200.554 179.39 200.063 179.136 199.632 179.048C199.2 178.959 198.816 178.988 198.491 179.13C198.166 179.278 197.894 179.491 197.675 179.769H197.669Z" fill="#86F99F"/>
<path d="M190.386 186.024C190.889 185.486 191.438 185.107 192.047 184.883C192.656 184.658 193.295 184.634 193.98 184.812C194.66 184.989 195.364 185.421 196.097 186.106L196.268 186.266C196.794 186.757 197.178 187.253 197.421 187.756C197.663 188.258 197.787 188.749 197.781 189.233C197.781 189.718 197.681 190.179 197.486 190.617C197.291 191.054 197.019 191.456 196.676 191.828C196.351 192.171 196.014 192.449 195.665 192.656C195.316 192.863 194.956 192.999 194.589 193.064C194.223 193.129 193.844 193.117 193.46 193.028C193.076 192.94 192.686 192.762 192.301 192.508L193.561 191.16C193.88 191.308 194.158 191.373 194.406 191.373C194.654 191.373 194.873 191.314 195.068 191.202C195.263 191.09 195.429 190.959 195.582 190.8C195.819 190.546 195.978 190.256 196.061 189.925C196.144 189.594 196.102 189.239 195.949 188.849C195.795 188.459 195.482 188.045 195.009 187.602L194.837 187.442C194.465 187.093 194.11 186.839 193.785 186.68C193.46 186.526 193.153 186.443 192.869 186.443C192.585 186.443 192.325 186.496 192.095 186.603C191.864 186.709 191.663 186.857 191.492 187.04C191.261 187.289 191.096 187.555 190.989 187.832C190.889 188.116 190.871 188.406 190.936 188.713C191.001 189.021 191.172 189.316 191.444 189.618L192.591 188.394L193.49 189.233L191.19 191.692L190.847 191.367C190.345 190.9 189.972 190.433 189.724 189.966C189.476 189.499 189.34 189.038 189.316 188.583C189.293 188.128 189.375 187.685 189.565 187.253C189.748 186.822 190.032 186.408 190.404 186.012L190.386 186.024Z" fill="#86F99F"/>
<path d="M186.426 190.208L192.059 196.267L190.77 197.467L185.137 191.408L186.426 190.208ZM192.343 196.817L192.597 199.004L191.214 200.293L191.302 197.786L192.343 196.823V196.817Z" fill="#86F99F"/>
<path d="M183.878 192.638L186.698 201.002L185.326 202.114L177.718 197.627L179.172 196.45L180.733 197.361L183.109 195.434L182.53 193.725L183.872 192.638H183.878ZM183.612 196.917L182.069 198.171L184.652 199.779L183.618 196.923L183.612 196.917Z" fill="#86F99F"/>
<path d="M173.45 200.595L177.819 207.623L175.117 209.302C174.479 209.698 173.894 209.929 173.362 209.994C172.83 210.059 172.351 209.982 171.937 209.763C171.523 209.545 171.168 209.196 170.879 208.729C170.589 208.262 170.435 207.789 170.424 207.322C170.412 206.855 170.554 206.394 170.849 205.945C171.145 205.495 171.612 205.076 172.25 204.68L173.456 203.929L171.961 201.517L173.456 200.589L173.45 200.595ZM174.225 205.176L173.172 205.832C172.635 206.163 172.315 206.488 172.209 206.808C172.102 207.127 172.162 207.458 172.374 207.807C172.587 208.149 172.859 208.345 173.19 208.392C173.521 208.439 173.953 208.297 174.491 207.966L175.543 207.31L174.219 205.182L174.225 205.176Z" fill="#86F99F"/>
<path d="M167.728 204.153L168.786 212.92L167.22 213.73L160.688 207.789L162.349 206.932L163.691 208.143L166.41 206.742L166.191 204.951L167.728 204.159V204.153ZM166.599 208.291L164.832 209.202L167.031 211.3L166.599 208.291Z" fill="#86F99F"/>
<path d="M159.222 208.415L162.337 216.082L159.239 217.341C158.595 217.601 158.022 217.719 157.507 217.684C156.999 217.654 156.556 217.495 156.189 217.217C155.823 216.939 155.533 216.549 155.332 216.052C155.119 215.526 155.066 215.012 155.178 214.516C155.291 214.013 155.586 213.564 156.071 213.162L152.997 210.939L154.895 210.171L157.643 212.322L158.725 211.885L157.584 209.083L159.216 208.421L159.222 208.415ZM159.251 213.174L158.099 213.641C157.49 213.889 157.111 214.149 156.964 214.427C156.816 214.705 156.81 215.024 156.964 215.39C157.111 215.757 157.336 215.987 157.637 216.082C157.939 216.177 158.394 216.1 158.997 215.857L160.15 215.39L159.251 213.18V213.174Z" fill="#86F99F"/>
<path d="M151.886 211.354L151.348 220.167L149.663 220.682L144.307 213.659L146.093 213.115L147.192 214.546L150.124 213.659L150.231 211.862L151.88 211.359L151.886 211.354ZM150.03 215.214L148.126 215.793L149.911 218.252L150.03 215.214Z" fill="#86F99F"/>
<path d="M135.913 215.202C136.611 215.084 137.243 215.107 137.793 215.273C138.349 215.438 138.804 215.746 139.17 216.207C139.537 216.668 139.779 217.277 139.903 218.039L140.713 222.94L138.975 223.229L138.189 218.494C138.071 217.797 137.852 217.294 137.521 216.987C137.19 216.68 136.735 216.579 136.15 216.674C135.565 216.768 135.168 217.017 134.956 217.413C134.743 217.809 134.69 218.353 134.808 219.044L135.594 223.791L133.856 224.081L133.04 219.18C132.916 218.418 132.946 217.761 133.141 217.212C133.336 216.662 133.667 216.219 134.14 215.882C134.613 215.551 135.204 215.32 135.907 215.202H135.913Z" fill="#86F99F"/>
<path d="M130.197 216.183L130.759 224.441L129.098 224.553L125.09 219.493L125.45 224.801L123.706 224.92L123.145 216.661L124.806 216.549L128.814 221.609L128.453 216.301L130.197 216.183Z" fill="#86F99F"/>
<path d="M117.133 216.697L116.536 224.949L114.78 224.819L112.605 219.989L109.768 224.453L108.059 224.328L108.656 216.076L110.424 216.206L110.045 221.455L112.262 218.003L113.308 218.08L114.993 221.816L115.371 216.567L117.127 216.691L117.133 216.697Z" fill="#86F99F"/>
<path d="M102.987 215.012C103.685 215.137 104.27 215.367 104.737 215.71C105.204 216.047 105.535 216.496 105.724 217.052C105.913 217.608 105.943 218.264 105.807 219.026L104.938 223.915L103.206 223.608L104.045 218.884C104.169 218.187 104.128 217.637 103.915 217.241C103.708 216.845 103.312 216.591 102.727 216.49C102.142 216.39 101.687 216.49 101.356 216.786C101.025 217.081 100.794 217.584 100.67 218.276L99.8247 223.011L98.0927 222.703L98.9616 217.814C99.0976 217.052 99.3458 216.449 99.7124 215.994C100.079 215.539 100.54 215.231 101.096 215.077C101.651 214.918 102.284 214.906 102.987 215.03V215.012Z" fill="#86F99F"/>
<path d="M97.2828 214.031L95.0542 222L93.4463 221.551L91.3655 215.444L89.9291 220.569L88.2443 220.096L90.4788 212.128L92.0808 212.577L94.1616 218.684L95.598 213.558L97.2828 214.031Z" fill="#86F99F"/>
<path d="M88.1852 211.347L85.2 219.067L82.5222 218.033C81.7419 217.731 81.133 217.335 80.6897 216.845C80.2463 216.354 79.9862 215.775 79.9094 215.119C79.8325 214.457 79.9448 213.724 80.2581 212.914L80.3409 212.695C80.6601 211.873 81.0798 211.235 81.6 210.786C82.1202 210.336 82.7232 210.076 83.403 210.005C84.0828 209.934 84.8217 210.053 85.6197 210.36L88.1911 211.353L88.1852 211.347ZM86.0099 212.08L85.1941 211.767C84.7921 211.613 84.3902 211.542 84 211.572C83.6099 211.601 83.2434 211.749 82.9064 212.027C82.5636 212.305 82.2798 212.748 82.0493 213.351L81.9665 213.57C81.7419 214.143 81.6591 214.634 81.7123 215.048C81.7655 215.461 81.9192 215.804 82.1852 216.07C82.4512 216.336 82.7764 216.549 83.1665 216.703L84.0946 217.063L86.0217 212.08H86.0099Z" fill="#86F99F"/>
<path d="M76.8059 206.329C77.2729 206.559 77.6749 206.855 78.0237 207.204C78.3724 207.552 78.6325 207.96 78.8099 208.421C78.9872 208.882 79.0522 209.403 78.999 209.976C78.9458 210.549 78.7508 211.176 78.4079 211.85L78.3015 212.063C77.9764 212.713 77.604 213.221 77.1902 213.588C76.7705 213.954 76.3271 214.203 75.8483 214.338C75.3754 214.469 74.8907 214.504 74.4059 214.433C73.9212 214.362 73.4424 214.214 72.9813 213.984C72.5202 213.753 72.1123 213.458 71.7636 213.109C71.4207 212.76 71.1547 212.352 70.9774 211.897C70.8 211.436 70.7291 210.928 70.7764 210.372C70.8237 209.816 71.0069 209.213 71.332 208.569L71.4384 208.356C71.7754 207.682 72.1596 207.15 72.5852 206.766C73.0108 206.382 73.466 206.122 73.9389 205.986C74.4177 205.85 74.8966 205.814 75.3872 205.885C75.8719 205.95 76.3508 206.104 76.8118 206.335L76.8059 206.329ZM76.1379 207.659C75.8128 207.499 75.4759 207.422 75.1212 207.434C74.7665 207.446 74.4118 207.588 74.0631 207.854C73.7143 208.126 73.3833 208.563 73.0759 209.178L72.9695 209.391C72.6798 209.97 72.5379 210.472 72.5379 210.898C72.5379 211.324 72.6443 211.684 72.8453 211.974C73.0463 212.264 73.3123 212.488 73.6374 212.648C73.9626 212.807 74.2936 212.884 74.6483 212.878C75.003 212.872 75.3517 212.742 75.7005 212.482C76.0493 212.222 76.3626 211.808 76.6522 211.235L76.7586 211.022C77.066 210.407 77.2197 209.881 77.2256 209.438C77.2256 208.995 77.131 208.628 76.9242 208.333C76.7173 208.037 76.4572 207.812 76.1379 207.653V207.659Z" fill="#86F99F"/>
<path d="M66.0355 200.021C66.6443 200.429 67.0936 200.86 67.3833 201.304C67.6729 201.747 67.8207 202.19 67.8266 202.64C67.8325 203.089 67.7084 203.52 67.4542 203.94L65.9823 202.947C66.1005 202.657 66.1182 202.38 66.0236 202.119C65.9291 201.853 65.6571 201.57 65.1961 201.262C64.7232 200.943 64.3448 200.778 64.0552 200.766C63.7655 200.754 63.535 200.866 63.3813 201.103C63.2512 201.298 63.2039 201.499 63.2394 201.706C63.2749 201.913 63.3872 202.143 63.5764 202.397C63.7655 202.651 64.0315 202.953 64.3803 203.302C64.7823 203.704 65.0956 204.1 65.3202 204.49C65.5448 204.88 65.6453 205.27 65.6276 205.672C65.6099 206.074 65.4562 206.482 65.1665 206.914C64.8946 207.31 64.5576 207.587 64.1498 207.729C63.7419 207.871 63.2867 207.901 62.7901 207.8C62.2936 207.7 61.7793 207.475 61.2473 207.115C60.6739 206.724 60.2542 206.328 59.9941 205.92C59.734 205.513 59.6039 205.099 59.6039 204.679C59.6039 204.259 59.7222 203.846 59.9527 203.432L61.4128 204.419C61.3064 204.691 61.2946 204.939 61.3833 205.164C61.4719 205.388 61.7025 205.631 62.0808 205.885C62.465 206.145 62.7901 206.275 63.0562 206.275C63.3222 206.275 63.5291 206.169 63.6709 205.962C63.8424 205.708 63.8542 205.424 63.6946 205.111C63.5409 204.797 63.2276 204.407 62.7547 203.934C62.4296 203.609 62.1576 203.296 61.9389 203C61.7202 202.699 61.5665 202.397 61.4719 202.096C61.3833 201.794 61.3655 201.487 61.4187 201.185C61.4719 200.878 61.6138 200.559 61.8384 200.228C62.1222 199.808 62.4768 199.518 62.9084 199.353C63.3399 199.187 63.8187 199.158 64.3507 199.27C64.8768 199.383 65.4443 199.637 66.0355 200.039V200.021Z" fill="#86F99F"/>
<path d="M59.0424 194.825C59.5921 195.274 59.9882 195.759 60.2305 196.285C60.4729 196.811 60.5438 197.361 60.4374 197.935C60.331 198.508 60.0355 199.099 59.5507 199.696L56.4118 203.544L55.0463 202.433L58.0788 198.715C58.5281 198.165 58.7586 197.669 58.7645 197.213C58.7764 196.764 58.5517 196.35 58.0906 195.978C57.6355 195.606 57.1862 195.47 56.7488 195.57C56.3113 195.671 55.868 195.99 55.4246 196.534L52.3862 200.264L51.0207 199.152L54.1596 195.304C54.6503 194.707 55.1645 194.293 55.7025 194.074C56.2404 193.856 56.7961 193.808 57.3576 193.944C57.9192 194.08 58.4808 194.37 59.0365 194.825H59.0424Z" fill="#86F99F"/>
<path d="M52.5399 189.014C53.066 189.528 53.4266 190.025 53.6335 190.516C53.8404 191.006 53.9054 191.467 53.8345 191.911C53.7635 192.354 53.5626 192.756 53.2374 193.122L51.9724 191.881C52.1438 191.615 52.203 191.349 52.1616 191.071C52.1202 190.793 51.8956 190.468 51.4995 190.078C51.0916 189.682 50.7488 189.452 50.465 189.386C50.1813 189.321 49.9389 189.392 49.7379 189.593C49.5724 189.765 49.4897 189.954 49.4897 190.161C49.4897 190.368 49.5606 190.616 49.6965 190.9C49.8384 191.184 50.0453 191.532 50.3231 191.934C50.6483 192.407 50.8847 192.851 51.0325 193.27C51.1803 193.69 51.2158 194.098 51.1271 194.488C51.0384 194.878 50.8138 195.256 50.4473 195.629C50.1103 195.972 49.732 196.179 49.3005 196.25C48.869 196.32 48.4197 196.261 47.9468 196.078C47.4739 195.889 47.0069 195.576 46.5517 195.126C46.0552 194.642 45.7182 194.175 45.535 193.725C45.3517 193.276 45.2985 192.845 45.3754 192.437C45.4522 192.029 45.6414 191.639 45.9429 191.272L47.202 192.502C47.0483 192.75 46.9951 192.992 47.0364 193.229C47.0837 193.465 47.267 193.743 47.5921 194.062C47.9231 194.387 48.2246 194.577 48.4847 194.618C48.7448 194.665 48.9695 194.6 49.1409 194.417C49.3537 194.198 49.4128 193.92 49.3182 193.584C49.2236 193.247 48.9872 192.803 48.603 192.259C48.3429 191.881 48.13 191.526 47.9704 191.189C47.8108 190.852 47.7103 190.527 47.6749 190.214C47.6394 189.901 47.6749 189.599 47.7872 189.304C47.8995 189.008 48.0887 188.724 48.3724 188.435C48.7271 188.074 49.1291 187.85 49.5783 187.767C50.0276 187.684 50.5064 187.737 51.0089 187.944C51.5113 188.145 52.0197 188.5 52.5281 189.002L52.5399 189.014Z" fill="#86F99F"/>
<path d="M47.4325 183.848L42.2838 188.299L44.0217 190.309L42.9104 191.266L38.2818 185.911L39.3931 184.953L41.1311 186.963L46.2798 182.512L47.4325 183.842V183.848Z" fill="#86F99F"/>
<path d="M43.4779 179.107L36.7921 183.984L33.3931 179.326L34.5754 178.463L36.934 181.691L38.4237 180.603L36.2779 177.659L37.4247 176.82L39.5705 179.764L41.2493 178.534L38.8907 175.306L40.0729 174.443L43.4719 179.101L43.4779 179.107Z" fill="#86F99F"/>
<path d="M38.9084 172.729L31.8148 176.991L30.9576 175.561L33.6355 169.691L29.0778 172.428L28.1793 170.926L35.2729 166.664L36.1301 168.095L33.4522 173.965L38.0099 171.228L38.9084 172.729Z" fill="#86F99F"/>
<path d="M33.2867 162.744L27.1507 165.706L28.3093 168.1L26.9911 168.739L23.9113 162.36L25.2295 161.722L26.3882 164.116L32.5241 161.154L33.2867 162.739V162.744Z" fill="#86F99F"/>
<path d="M31.3182 158.695L22.4926 158.831L21.8542 157.187L28.4512 151.312L29.1251 153.055L27.7833 154.261L28.8946 157.116L30.6975 157.087L31.3241 158.695H31.3182ZM27.3281 157.14L26.6069 155.29L24.2897 157.258L27.3281 157.14Z" fill="#86F99F"/>
<path d="M27.9784 149.793L20.0276 152.087L19.0463 148.688C18.7862 147.795 18.7862 147.086 19.0404 146.554C19.2946 146.022 19.7557 145.667 20.4178 145.472C20.8257 145.354 21.204 145.354 21.5527 145.472C21.9015 145.59 22.1912 145.797 22.4158 146.104C22.3922 145.62 22.5045 145.2 22.7468 144.851C22.9951 144.502 23.3734 144.254 23.8877 144.1C24.3429 143.97 24.7626 143.953 25.1587 144.041C25.5488 144.136 25.8976 144.355 26.1991 144.715C26.5005 145.07 26.7488 145.584 26.9439 146.246L27.9665 149.793H27.9784ZM22.8237 149.45L22.4276 148.085C22.2917 147.624 22.1084 147.328 21.872 147.192C21.6355 147.056 21.3636 147.038 21.0562 147.127C20.737 147.222 20.5242 147.381 20.406 147.612C20.2936 147.842 20.2995 148.185 20.4355 148.652L20.8316 150.03L22.8178 149.456L22.8237 149.45ZM26.1931 148.475L25.7498 146.932C25.5961 146.4 25.401 146.063 25.1587 145.909C24.9163 145.756 24.6207 145.732 24.266 145.838C23.9114 145.939 23.6631 146.122 23.5153 146.382C23.3734 146.642 23.3793 147.044 23.539 147.588L23.9823 149.119L26.1991 148.481L26.1931 148.475Z" fill="#86F99F"/>
<path d="M25.7202 141.511L17.604 143.142L17.2552 141.416L23.9291 140.074L23.1843 136.368L24.6207 136.078L25.7143 141.517L25.7202 141.511Z" fill="#86F99F"/>
<path d="M24.3665 134.335L16.1498 135.322L15.4641 129.594L16.9182 129.416L17.3971 133.383L19.2296 133.164L18.7921 129.546L20.199 129.375L20.6365 132.993L22.6995 132.744L22.2207 128.778L23.6749 128.601L24.3606 134.329L24.3665 134.335Z" fill="#86F99F"/>
<path d="M120 206.305C72.4138 206.305 33.6946 167.586 33.6946 120C33.6946 72.4135 72.4138 33.6943 120 33.6943C167.586 33.6943 206.305 72.4135 206.305 120C206.305 167.586 167.586 206.305 120 206.305ZM120 37.8323C74.6956 37.8323 37.8325 74.6894 37.8325 120C37.8325 165.31 74.6956 202.167 120 202.167C165.304 202.167 202.167 165.31 202.167 120C202.167 74.6894 165.304 37.8323 120 37.8323Z" fill="#86F99F"/>
<path d="M19.5074 122.069C20.4868 122.069 21.2808 121.275 21.2808 120.296C21.2808 119.316 20.4868 118.522 19.5074 118.522C18.528 118.522 17.734 119.316 17.734 120.296C17.734 121.275 18.528 122.069 19.5074 122.069Z" fill="#86F99F"/>
<path d="M220.493 122.069C221.472 122.069 222.266 121.275 222.266 120.296C222.266 119.316 221.472 118.522 220.493 118.522C219.513 118.522 218.719 119.316 218.719 120.296C218.719 121.275 219.513 122.069 220.493 122.069Z" fill="#86F99F"/>
<path opacity="0.95" d="M88.7172 154.404V169.768H98.4C100.102 169.768 101.486 168.385 101.486 166.682H106.765C106.765 171.21 103.094 174.875 98.5655 174.875H83.6039V154.416L88.7172 154.404Z" fill="#86F99F"/>
<path opacity="0.95" d="M127.029 154.404H118.357L109.998 154.41C105.47 154.41 101.799 158.081 101.799 162.603H107.078C107.078 160.901 108.461 159.518 110.164 159.518H114.254V174.881H119.362V159.435H127.023V154.404H127.029Z" fill="#86F99F"/>
<path opacity="0.95" d="M151.289 154.404V165.79C144.958 158.223 135.967 154.404 135.967 154.404H130.859V174.881H135.967V160.327C138.922 161.847 146.501 166.375 151.289 174.881H156.396V154.404H151.289Z" fill="#86F99F"/>
<path opacity="0.95" d="M86.5832 150.201C86.5478 150.254 86.4946 150.314 86.4295 150.373C86.3645 150.438 86.2818 150.497 86.1754 150.55C86.0689 150.603 85.9389 150.65 85.7911 150.692C85.6374 150.733 85.4542 150.751 85.2414 150.751C85.0108 150.751 84.798 150.71 84.6089 150.627C84.4138 150.544 84.2483 150.426 84.1123 150.272C83.9704 150.118 83.864 149.929 83.7872 149.711C83.7103 149.486 83.6689 149.238 83.6689 148.954V148.658C83.6689 148.375 83.7044 148.126 83.7694 147.902C83.8345 147.677 83.935 147.494 84.065 147.34C84.1951 147.186 84.3547 147.068 84.5438 146.985C84.733 146.903 84.9458 146.861 85.1941 146.861C85.4128 146.861 85.602 146.891 85.7616 146.95C85.9212 147.009 86.063 147.086 86.1754 147.192C86.2877 147.293 86.3823 147.417 86.4473 147.559C86.5123 147.701 86.5596 147.854 86.5832 148.026H86.0867C86.069 147.925 86.0394 147.825 85.998 147.736C85.9566 147.648 85.9034 147.565 85.8325 147.5C85.7616 147.429 85.6729 147.376 85.5724 147.34C85.466 147.299 85.3419 147.281 85.2 147.281C85.0226 147.281 84.8689 147.311 84.7448 147.376C84.6089 147.435 84.5024 147.529 84.4197 147.648C84.3369 147.766 84.2719 147.914 84.2364 148.079C84.1951 148.25 84.1773 148.44 84.1773 148.652V148.954C84.1773 149.173 84.201 149.368 84.2542 149.539C84.3074 149.711 84.3783 149.858 84.4729 149.977C84.5675 150.095 84.6798 150.189 84.8098 150.249C84.9399 150.314 85.0877 150.343 85.2473 150.343C85.3832 150.343 85.4955 150.331 85.5901 150.314C85.6847 150.296 85.7616 150.272 85.8266 150.249C85.8916 150.219 85.9448 150.189 85.9862 150.16C86.0276 150.13 86.0571 150.101 86.0867 150.071V149.22H85.2118V148.818H86.5832V150.201Z" fill="#86F99F"/>
<path opacity="0.95" d="M90.3961 149.166H89.5094V150.691H89.0069V146.92H90.2542C90.6798 146.92 91.0049 147.015 91.2355 147.21C91.466 147.405 91.5783 147.682 91.5783 148.055C91.5783 148.291 91.5133 148.492 91.3892 148.67C91.265 148.847 91.0877 148.977 90.8571 149.06L91.7438 150.662V150.691H91.2118L90.3961 149.166ZM89.5034 148.758H90.266C90.402 148.758 90.5202 148.741 90.6207 148.705C90.7212 148.67 90.8039 148.616 90.8749 148.551C90.9399 148.486 90.9931 148.415 91.0286 148.327C91.064 148.244 91.0818 148.149 91.0818 148.049C91.0818 147.943 91.064 147.842 91.0345 147.753C91.0049 147.665 90.9517 147.588 90.8867 147.523C90.8217 147.458 90.733 147.411 90.6325 147.375C90.5261 147.34 90.402 147.322 90.2601 147.322H89.5034V148.758Z" fill="#86F99F"/>
<path opacity="0.95" d="M96.532 146.92V149.48C96.532 149.692 96.4965 149.876 96.4197 150.035C96.3428 150.195 96.2483 150.325 96.1182 150.431C95.9941 150.538 95.8463 150.615 95.6808 150.668C95.5152 150.721 95.3379 150.745 95.1547 150.745C94.9596 150.745 94.7822 150.715 94.6167 150.668C94.4512 150.615 94.3093 150.538 94.1852 150.431C94.0611 150.325 93.9665 150.195 93.8955 150.035C93.8305 149.876 93.795 149.686 93.795 149.474V146.92H94.2857V149.48C94.2857 149.627 94.3093 149.751 94.3507 149.864C94.3921 149.97 94.4512 150.059 94.5281 150.136C94.6049 150.207 94.6936 150.26 94.8 150.295C94.9064 150.331 95.0246 150.348 95.1547 150.348C95.2847 150.348 95.4029 150.331 95.5152 150.295C95.6216 150.26 95.7162 150.207 95.7872 150.136C95.864 150.065 95.9231 149.976 95.9645 149.864C96.0059 149.757 96.0295 149.627 96.0295 149.48V146.92H96.532Z" fill="#86F99F"/>
<path opacity="0.95" d="M99.4109 149.219V150.697H98.9143V146.92H100.309C100.522 146.92 100.711 146.949 100.877 147.003C101.042 147.062 101.178 147.139 101.291 147.245C101.403 147.346 101.486 147.47 101.545 147.612C101.604 147.753 101.634 147.907 101.634 148.073C101.634 148.256 101.604 148.415 101.545 148.557C101.486 148.699 101.403 148.817 101.291 148.918C101.178 149.013 101.042 149.089 100.877 149.143C100.711 149.196 100.522 149.219 100.309 149.219H99.4109ZM99.4109 148.812H100.303C100.451 148.812 100.575 148.794 100.676 148.758C100.782 148.723 100.865 148.67 100.93 148.605C100.995 148.54 101.048 148.463 101.078 148.374C101.107 148.285 101.125 148.185 101.125 148.079C101.125 147.984 101.107 147.889 101.078 147.795C101.048 147.706 100.995 147.623 100.93 147.552C100.865 147.482 100.776 147.428 100.676 147.387C100.569 147.346 100.445 147.322 100.303 147.322H99.4109V148.812Z" fill="#86F99F"/>
<path opacity="0.95" d="M106.765 148.93C106.765 149.214 106.729 149.468 106.658 149.693C106.587 149.917 106.487 150.107 106.351 150.266C106.221 150.426 106.061 150.544 105.872 150.627C105.683 150.709 105.476 150.751 105.245 150.751C105.015 150.751 104.82 150.709 104.631 150.627C104.441 150.544 104.282 150.426 104.146 150.266C104.01 150.107 103.909 149.917 103.833 149.693C103.756 149.468 103.72 149.214 103.72 148.93V148.694C103.72 148.41 103.756 148.156 103.833 147.931C103.909 147.707 104.01 147.511 104.146 147.358C104.282 147.198 104.441 147.08 104.625 146.997C104.808 146.914 105.015 146.873 105.239 146.873C105.464 146.873 105.677 146.914 105.866 146.997C106.055 147.08 106.215 147.204 106.345 147.358C106.475 147.517 106.581 147.707 106.652 147.931C106.723 148.156 106.759 148.41 106.759 148.694V148.93H106.765ZM106.268 148.688C106.268 148.463 106.244 148.262 106.197 148.091C106.15 147.919 106.085 147.772 105.996 147.653C105.907 147.535 105.801 147.446 105.671 147.387C105.547 147.328 105.399 147.299 105.239 147.299C105.08 147.299 104.944 147.328 104.82 147.387C104.696 147.446 104.583 147.535 104.495 147.653C104.406 147.772 104.335 147.919 104.288 148.091C104.24 148.262 104.217 148.463 104.217 148.688V148.93C104.217 149.155 104.24 149.356 104.288 149.527C104.335 149.699 104.406 149.846 104.495 149.965C104.583 150.083 104.69 150.172 104.82 150.231C104.944 150.29 105.086 150.319 105.239 150.319C105.393 150.319 105.547 150.29 105.671 150.231C105.795 150.172 105.901 150.083 105.99 149.965C106.079 149.846 106.144 149.699 106.191 149.527C106.238 149.356 106.256 149.155 106.256 148.93V148.688H106.268Z" fill="#86F99F"/>
<path d="M97.0936 108.307C96.8098 108.307 96.5202 108.301 96.2305 108.289C95.9645 108.301 95.6926 108.307 95.4266 108.307C91.1054 108.307 86.9675 106.741 83.7635 103.891L83.7517 103.879L83.7399 103.868C76.132 96.2538 75.2217 81.0026 75.198 70.1907V69.5996H75.7891C86.5951 69.6233 101.846 70.5277 109.46 78.1356C115.697 84.372 114.958 97.8026 109.945 103.365C110.554 104.53 111.151 105.736 111.742 106.989C111.901 106.859 112.067 106.735 112.227 106.599C115.531 103.276 117.6 97.6193 117.754 91.4538C117.919 84.9336 115.898 79.0814 112.209 75.3868C103.531 66.709 87.0325 65.71 75.3753 65.71C73.135 65.71 71.3083 67.5366 71.3083 69.777C71.3083 81.4282 72.3192 97.9326 81.0857 106.705C85.0581 110.246 90.1123 112.191 95.3202 112.191C95.6157 112.191 95.9172 112.185 96.2128 112.173H96.2364H96.2601C96.5911 112.185 96.9281 112.197 97.2532 112.197C100.806 112.197 104.229 111.375 107.385 109.803C106.83 108.597 106.256 107.438 105.683 106.327C103.052 107.633 100.144 108.313 97.0936 108.313V108.307Z" fill="#86F99F"/>
<path d="M126.095 99.7765C125.959 94.3203 127.572 89.4967 130.534 86.5351C138.148 78.9213 153.399 78.0169 164.211 77.9932H164.802V78.5844C164.778 89.3962 163.88 104.641 156.367 112.155L156.355 112.167L156.343 112.178C153.027 115.128 148.877 116.689 144.331 116.689C144.077 116.689 143.823 116.689 143.563 116.671C143.297 116.683 143.031 116.689 142.765 116.689C139.348 116.689 136.02 115.778 133.141 114.1C132.437 115.211 131.781 116.316 131.161 117.416C134.666 119.467 138.674 120.573 142.759 120.573C143.019 120.573 143.279 120.573 143.539 120.561H143.563H143.586C143.894 120.573 144.201 120.578 144.508 120.578C149.9 120.578 154.918 118.645 159.027 114.992C167.693 106.314 168.698 89.8159 168.698 78.1587C168.698 75.9243 166.865 74.0977 164.631 74.0977C152.973 74.0977 136.469 75.1026 127.791 83.7804C124.091 87.4809 122.075 93.3449 122.264 99.8651C122.43 105.516 124.215 110.76 127.088 114.2C127.762 113.036 128.483 111.859 129.251 110.683C127.383 107.946 126.207 103.968 126.101 99.7706L126.095 99.7765Z" fill="#86F99F"/>
<path d="M127.188 115.217C123.854 121.105 121.667 126.685 120.248 131.332L119.574 133.537L119.107 131.279C117.21 122.163 114.52 114.425 111.523 107.917C110.441 108.733 109.312 109.46 108.142 110.075C112.398 119.385 116.004 131.296 117.417 146.193C117.511 147.198 118.345 147.949 119.35 147.949H119.409C120.414 147.925 121.241 147.109 121.289 146.092C121.295 145.897 122.022 132.709 130.368 117.629C129.375 117.015 128.424 116.335 127.519 115.566C127.407 115.454 127.295 115.33 127.188 115.212V115.217Z" fill="#86F99F"/>
<path d="M89.2019 78.9451C88.8827 78.7382 88.5162 78.6318 88.1379 78.6318C87.4758 78.6318 86.8729 78.9629 86.5123 79.5126C86.2285 79.9501 86.128 80.4703 86.2344 80.9786C86.3408 81.487 86.6364 81.9185 87.0739 82.2023C87.2394 82.3087 97.3005 89.1363 105.913 105.54C107.078 104.92 108.177 104.175 109.2 103.312C109.206 103.306 109.218 103.294 109.224 103.282C100.292 86.4052 89.8285 79.3589 89.2019 78.951V78.9451Z" fill="#86F99F"/>
<path d="M148.315 95.9345C148.711 95.6035 148.96 95.1365 149.007 94.6163C149.054 94.0961 148.895 93.5936 148.564 93.1976C148.191 92.7542 147.647 92.4941 147.068 92.4941C146.613 92.4941 146.175 92.6537 145.827 92.9434C139.04 98.6005 133.88 104.713 129.961 110.677C130.274 111.097 130.599 111.487 130.954 111.842C131.586 112.374 132.26 112.859 132.964 113.302C136.741 107.426 141.724 101.432 148.321 95.9345H148.315Z" fill="#86F99F"/>
<path d="M109.513 103.814C108.473 104.689 107.362 105.44 106.191 106.061C106.77 107.178 107.338 108.337 107.899 109.543C109.064 108.922 110.193 108.195 111.269 107.373C110.696 106.144 110.104 104.961 109.513 103.82V103.814Z" fill="#86F99F"/>
<path d="M111.393 107.645C110.311 108.466 109.188 109.193 108.018 109.814C108.059 109.903 108.1 109.991 108.136 110.08C109.306 109.465 110.435 108.738 111.517 107.922C111.476 107.834 111.434 107.739 111.393 107.65V107.645Z" fill="#86F99F"/>
<path d="M109.2 103.306C108.177 104.169 107.078 104.914 105.913 105.534C105.961 105.623 106.008 105.712 106.049 105.8C107.22 105.174 108.325 104.423 109.365 103.548C109.318 103.46 109.271 103.365 109.224 103.276C109.218 103.282 109.206 103.294 109.2 103.306Z" fill="#86F99F"/>
<path d="M106.055 105.801C106.102 105.89 106.144 105.978 106.191 106.061C107.362 105.435 108.473 104.684 109.513 103.815C109.466 103.726 109.419 103.637 109.371 103.549C108.331 104.424 107.226 105.174 106.055 105.801Z" fill="#86F99F"/>
<path d="M111.269 107.373C110.187 108.201 109.064 108.928 107.899 109.543C107.941 109.631 107.982 109.726 108.024 109.814C109.194 109.194 110.317 108.473 111.399 107.645C111.358 107.556 111.316 107.462 111.275 107.367L111.269 107.373Z" fill="#86F99F"/>
<path d="M130.569 112.297L130.552 112.279L130.534 112.261C130.215 111.942 129.913 111.587 129.618 111.209C128.867 112.374 128.158 113.532 127.496 114.679C127.637 114.833 127.773 114.986 127.921 115.134C128.79 115.867 129.706 116.523 130.658 117.114C131.279 116.015 131.935 114.909 132.638 113.798C131.917 113.343 131.226 112.841 130.569 112.291V112.297Z" fill="#86F99F"/>
<path d="M127.342 114.951C127.289 115.04 127.241 115.129 127.188 115.217C127.3 115.335 127.407 115.46 127.519 115.572C128.424 116.334 129.375 117.02 130.368 117.635C130.416 117.546 130.463 117.463 130.51 117.375C129.535 116.772 128.595 116.098 127.708 115.347C127.584 115.223 127.46 115.087 127.336 114.951H127.342Z" fill="#86F99F"/>
<path d="M130.948 111.842C130.599 111.493 130.268 111.103 129.955 110.678C129.896 110.766 129.842 110.855 129.783 110.944C130.085 111.346 130.398 111.712 130.735 112.049C131.385 112.599 132.077 113.095 132.792 113.545C132.845 113.462 132.898 113.379 132.952 113.296C132.248 112.853 131.574 112.368 130.942 111.836L130.948 111.842Z" fill="#86F99F"/>
<path d="M130.552 112.279L130.569 112.297C131.226 112.847 131.917 113.349 132.638 113.804C132.692 113.722 132.745 113.639 132.798 113.556C132.083 113.107 131.391 112.604 130.741 112.061C130.404 111.724 130.091 111.357 129.789 110.955C129.73 111.044 129.677 111.132 129.618 111.215C129.907 111.594 130.215 111.948 130.534 112.267L130.552 112.285V112.279Z" fill="#86F99F"/>
<path d="M127.496 114.68C127.442 114.768 127.395 114.857 127.342 114.952C127.466 115.082 127.584 115.224 127.714 115.348C128.601 116.098 129.541 116.772 130.516 117.375C130.564 117.287 130.611 117.204 130.658 117.115C129.706 116.524 128.79 115.868 127.921 115.135C127.773 114.987 127.637 114.833 127.496 114.68Z" fill="#86F99F"/>
</svg>
