<svg width="141" height="40" viewBox="0 0 141 40" fill="none" xmlns="http://www.w3.org/2000/svg">
<path d="M40 20L34.0265 21.7669C34.1013 21.1825 34.142 20.5912 34.142 20V19.9932C34.142 19.402 34.1013 18.8175 34.0265 18.2263C33.7207 15.7662 32.7625 13.3741 31.1655 11.3218C30.8053 10.8665 30.4179 10.4179 29.9966 9.9966L20 0L21.7669 5.9667C21.1825 5.89195 20.598 5.85797 20.0136 5.85797H19.9864C19.402 5.85797 18.8175 5.89874 18.2331 5.9735C15.773 6.2861 13.3809 7.23751 11.3286 8.83452C10.8665 9.1947 10.4247 9.58206 10.0034 10.0034L0 20L5.9735 18.2331C5.89874 18.8175 5.85797 19.402 5.85797 19.9932V20C5.85797 20.5844 5.89874 21.1757 5.9735 21.7601C6.27931 24.2202 7.23072 26.6123 8.83452 28.6646C9.1947 29.1267 9.58206 29.5685 10.0034 29.9898C10.0034 29.9898 10.0034 29.9898 10.0102 29.9966L20.0068 39.9864L18.2399 34.0197C19.4088 34.1692 20.598 34.1692 21.7737 34.0197C24.2338 33.7139 26.6259 32.7557 28.6782 31.1587C29.1335 30.8053 29.5753 30.4179 29.9966 29.9966L40 20ZM28.3316 23.4523C27.8899 24.5192 27.2375 25.5114 26.3744 26.3744C25.5114 27.2375 24.5124 27.8899 23.4523 28.3316C22.3513 28.787 21.1757 29.018 20.0068 29.018C18.8311 29.018 17.6555 28.787 16.5545 28.3316C15.4876 27.8899 14.4954 27.2443 13.6323 26.3744C12.7693 25.5114 12.1169 24.5124 11.6752 23.4523C11.2198 22.3513 10.9888 21.1757 10.9888 20.0068C10.9888 18.8311 11.2198 17.6555 11.6752 16.5545C12.1169 15.4944 12.7625 14.4954 13.6323 13.6323C14.4954 12.7693 15.4944 12.1169 16.5545 11.6752C17.6555 11.2198 18.8311 10.9888 20.0068 10.9888C21.1825 10.9888 22.3513 11.2198 23.4523 11.6752C24.5192 12.1169 25.5114 12.7625 26.3744 13.6256C27.2375 14.4886 27.8899 15.4876 28.3316 16.5477C28.787 17.6487 29.018 18.8243 29.018 20C29.0112 21.1757 28.787 22.3513 28.3316 23.4523Z" fill="white"/>
<path d="M68.454 10.9412H73.2722V8.75297H68.454C64.7299 8.75297 61.6989 11.7839 61.6989 15.508C61.6989 19.2321 64.7299 22.263 68.454 22.263H73.2722V20.0748H68.454C66.3133 20.0748 64.526 18.5865 64.0299 16.5953H73.2722V14.4071H64.0299C64.526 12.4295 66.3133 10.9412 68.454 10.9412Z" fill="white"/>
<path d="M112.3 8.74618H110.112V22.2698H112.3V8.74618Z" fill="white"/>
<path d="M79.8641 22.2562V17.3972H84.757L87.4278 22.2562H89.8675L87.054 17.105C88.6918 16.4866 89.8675 14.9235 89.8675 13.0683C89.8675 10.683 87.9307 8.74618 85.5453 8.74618H77.6758V22.2494H79.8641V22.2562ZM79.8641 10.9344H85.5386C86.7142 10.9344 87.6724 11.8926 87.6724 13.0683C87.6724 14.244 86.7142 15.2022 85.5386 15.2022H79.8641V10.9344Z" fill="white"/>
<path d="M125.722 18.138C125.199 19.2796 124.05 20.0816 122.718 20.0816H119.246V8.74618H117.051L117.057 22.2698H122.712C125.274 22.2698 127.421 20.5097 128.039 18.138H125.722Z" fill="white"/>
<path d="M138.396 18.138C137.873 19.2796 136.724 20.0816 135.392 20.0816H131.92V8.74618H129.725L129.732 22.2698H135.386C137.948 22.2698 140.095 20.5097 140.714 18.138H138.396Z" fill="white"/>
<path d="M107.312 8.75977H104.689L99.4563 19.4971L94.2168 8.75977H91.5936L98.3826 22.2698H100.523L107.312 8.75977Z" fill="white"/>
<path d="M57.7166 15.1002C58.3554 14.4275 58.7564 13.5236 58.7564 12.5246C58.7564 10.4587 57.0778 8.78016 55.0119 8.78016L46.9589 8.77336V22.2698L55.0391 22.2766C57.2953 22.2766 59.1369 20.4417 59.1369 18.1787C59.1369 16.9487 58.5797 15.8546 57.7166 15.1002ZM55.0119 10.9684C55.8682 10.9684 56.5681 11.6684 56.5681 12.5246C56.5681 13.3809 55.8682 14.0809 55.0119 14.0809H49.1471V10.9616H55.0119V10.9684ZM55.0391 20.0883H49.1471V16.2759H55.0391C56.0924 16.2759 56.9487 17.1322 56.9487 18.1855C56.9487 19.2321 56.0924 20.0883 55.0391 20.0883Z" fill="white"/>
<path d="M48.8957 30.017C48.8957 29.9286 48.8821 29.8539 48.8549 29.7927C48.8277 29.7248 48.787 29.6704 48.719 29.616C48.651 29.5617 48.5627 29.5141 48.454 29.4665C48.3452 29.419 48.2025 29.3714 48.0326 29.3238C47.8559 29.2695 47.6928 29.2151 47.5433 29.1471C47.4006 29.0792 47.2715 29.0044 47.1696 28.9229C47.0676 28.8345 46.9929 28.7394 46.9317 28.6306C46.8773 28.5219 46.8502 28.3928 46.8502 28.2501C46.8502 28.1074 46.8773 27.9783 46.9385 27.8559C46.9997 27.7336 47.0812 27.6317 47.1899 27.5433C47.2987 27.455 47.4278 27.387 47.5773 27.3327C47.7268 27.2851 47.8967 27.2579 48.087 27.2579C48.2909 27.2579 48.4743 27.2919 48.6306 27.353C48.7937 27.4142 48.9229 27.4958 49.0316 27.5977C49.1403 27.6996 49.2219 27.8152 49.283 27.9511C49.3374 28.087 49.3646 28.2229 49.3646 28.3656H48.8821C48.8821 28.2637 48.8685 28.1685 48.8345 28.087C48.8005 27.9986 48.753 27.9239 48.685 27.8627C48.6171 27.8016 48.5355 27.7472 48.4336 27.7132C48.3316 27.6792 48.2161 27.6589 48.0802 27.6589C47.9511 27.6589 47.8423 27.6724 47.7472 27.6996C47.6521 27.7336 47.5773 27.7744 47.5161 27.8219C47.455 27.8763 47.4074 27.9375 47.3802 28.0054C47.353 28.0802 47.3327 28.1549 47.3327 28.2365C47.3327 28.3112 47.3462 28.386 47.3802 28.4472C47.4142 28.5083 47.4618 28.5695 47.5297 28.6239C47.5977 28.6782 47.686 28.7258 47.7948 28.7734C47.9035 28.8209 48.0326 28.8617 48.1821 28.9025C48.386 28.9636 48.5695 29.0248 48.719 29.0928C48.8685 29.1675 48.9908 29.2423 49.086 29.3374C49.1811 29.4258 49.2559 29.5277 49.3034 29.6364C49.351 29.752 49.3714 29.8743 49.3714 30.017C49.3714 30.1665 49.3442 30.2956 49.283 30.4179C49.2219 30.5403 49.1403 30.6422 49.0248 30.7238C48.9161 30.8053 48.7802 30.8733 48.6239 30.9208C48.4675 30.9684 48.2977 30.9888 48.1074 30.9888C47.9986 30.9888 47.8831 30.9752 47.7744 30.9548C47.6656 30.9344 47.5569 30.9004 47.455 30.8597C47.353 30.8189 47.2579 30.7645 47.1696 30.7034C47.0812 30.6422 47.0065 30.5674 46.9453 30.4859C46.8773 30.4043 46.8298 30.316 46.7958 30.2141C46.7618 30.1121 46.7414 30.0034 46.7414 29.8811H47.2239C47.2239 30.0034 47.2511 30.1121 47.2987 30.2005C47.3462 30.2888 47.4142 30.3636 47.4958 30.4179C47.5773 30.4791 47.6724 30.5199 47.7812 30.5471C47.8899 30.5742 47.9986 30.5878 48.121 30.5878C48.3724 30.5878 48.5695 30.5335 48.6986 30.4315C48.8345 30.3364 48.8957 30.1937 48.8957 30.017Z" fill="white"/>
<path d="M51.1179 27.3055H50.6422V30.9344H51.1179V27.3055Z" fill="white"/>
<path d="M54.543 30.017C54.543 29.9286 54.5294 29.8539 54.5022 29.7927C54.475 29.7248 54.4342 29.6704 54.3663 29.616C54.2983 29.5617 54.21 29.5141 54.1013 29.4665C53.9925 29.419 53.8498 29.3714 53.6799 29.3238C53.5032 29.2695 53.3401 29.2151 53.1906 29.1471C53.0479 29.0792 52.9188 29.0044 52.8169 28.9229C52.7149 28.8345 52.6402 28.7394 52.579 28.6306C52.5246 28.5219 52.4974 28.3928 52.4974 28.2501C52.4974 28.1074 52.5246 27.9783 52.5858 27.8559C52.647 27.7336 52.7285 27.6317 52.8372 27.5433C52.946 27.455 53.0751 27.387 53.2246 27.3327C53.3741 27.2851 53.544 27.2579 53.7343 27.2579C53.9382 27.2579 54.1216 27.2919 54.2779 27.353C54.441 27.4142 54.5702 27.4958 54.6789 27.5977C54.7876 27.6996 54.8692 27.8152 54.9303 27.9511C54.9847 28.087 55.0119 28.2229 55.0119 28.3656H54.5294C54.5294 28.2637 54.5158 28.1685 54.4818 28.087C54.4478 27.9986 54.4003 27.9239 54.3323 27.8627C54.2644 27.8016 54.1828 27.7472 54.0809 27.7132C53.9789 27.6792 53.8634 27.6589 53.7275 27.6589C53.5984 27.6589 53.4896 27.6724 53.3945 27.6996C53.2994 27.7336 53.2246 27.7744 53.1634 27.8219C53.1023 27.8763 53.0547 27.9375 53.0275 28.0054C53.0003 28.0802 52.9799 28.1549 52.9799 28.2365C52.9799 28.3112 52.9935 28.386 53.0275 28.4472C53.0615 28.5083 53.1091 28.5695 53.177 28.6239C53.245 28.6782 53.3333 28.7258 53.4421 28.7734C53.5508 28.8209 53.6799 28.8617 53.8294 28.9025C54.0333 28.9636 54.2168 29.0248 54.3663 29.0928C54.5158 29.1675 54.6381 29.2423 54.7333 29.3374C54.8284 29.4258 54.9032 29.5277 54.9507 29.6364C54.9983 29.752 55.0187 29.8743 55.0187 30.017C55.0187 30.1665 54.9915 30.2956 54.9303 30.4179C54.8692 30.5403 54.7876 30.6422 54.6721 30.7238C54.5634 30.8053 54.4275 30.8733 54.2711 30.9208C54.1148 30.9684 53.945 30.9888 53.7547 30.9888C53.6459 30.9888 53.5304 30.9752 53.4217 30.9548C53.3129 30.9344 53.2042 30.9004 53.1023 30.8597C53.0003 30.8189 52.9052 30.7645 52.8169 30.7034C52.7285 30.6422 52.6538 30.5674 52.5926 30.4859C52.5246 30.4043 52.4771 30.316 52.4431 30.2141C52.4091 30.1121 52.3887 30.0034 52.3887 29.8811H52.8712C52.8712 30.0034 52.8984 30.1121 52.946 30.2005C52.9935 30.2888 53.0615 30.3636 53.143 30.4179C53.2246 30.4791 53.3197 30.5199 53.4285 30.5471C53.5372 30.5742 53.6459 30.5878 53.7683 30.5878C54.0197 30.5878 54.2168 30.5335 54.3459 30.4315C54.475 30.3364 54.543 30.1937 54.543 30.017Z" fill="white"/>
<path d="M58.7564 27.6996H57.5943V30.9344H57.1186V27.6996H55.9497V27.3055H58.7564V27.6996Z" fill="white"/>
<path d="M61.964 29.2559H60.3874V30.5403H62.2154V30.9344H59.9117V27.3055H62.1882V27.6996H60.3874V28.8617H61.964V29.2559Z" fill="white"/>
<path d="M64.0435 27.3055L65.2327 30.2684L66.4152 27.3055H67.0336V30.9344H66.5579V29.5209L66.6055 27.9918L65.4094 30.9344H65.0425L63.8532 27.9986L63.9008 29.5209V30.9344H63.4251V27.3055H64.0435Z" fill="white"/>
<path d="M70.5403 29.983H69.018L68.6782 30.9276H68.1821L69.5685 27.2987H69.9898L71.3761 30.9276H70.8868L70.5403 29.983ZM69.1675 29.5889H70.4043L69.7859 27.8899L69.1675 29.5889Z" fill="white"/>
<path d="M74.4207 30.017C74.4207 29.9286 74.4071 29.8539 74.3799 29.7927C74.3527 29.7248 74.3051 29.6704 74.244 29.616C74.176 29.5617 74.0877 29.5141 73.9789 29.4665C73.8702 29.419 73.7275 29.3714 73.5576 29.3238C73.3809 29.2695 73.2178 29.2151 73.0683 29.1471C72.9256 29.0792 72.7965 29.0044 72.7013 28.9229C72.5994 28.8345 72.5178 28.7394 72.4635 28.6306C72.4091 28.5219 72.3819 28.3928 72.3819 28.2501C72.3819 28.1074 72.4091 27.9783 72.4703 27.8559C72.5314 27.7336 72.613 27.6317 72.7217 27.5433C72.8304 27.455 72.9596 27.387 73.1091 27.3327C73.2586 27.2851 73.4285 27.2579 73.612 27.2579C73.8158 27.2579 73.9993 27.2919 74.1556 27.353C74.3119 27.4142 74.4478 27.4958 74.5566 27.5977C74.6653 27.6996 74.7468 27.8152 74.8012 27.9511C74.8556 28.087 74.8896 28.2229 74.8896 28.3656H74.4071C74.4071 28.2637 74.3935 28.1685 74.3595 28.087C74.3255 27.9986 74.2779 27.9239 74.21 27.8627C74.142 27.8016 74.0605 27.7472 73.9585 27.7132C73.8566 27.6792 73.7411 27.6589 73.6052 27.6589C73.476 27.6589 73.3673 27.6724 73.2722 27.6996C73.177 27.7336 73.1023 27.7744 73.0411 27.8219C72.98 27.8763 72.9324 27.9375 72.9052 28.0054C72.878 28.0802 72.8576 28.1549 72.8576 28.2365C72.8576 28.3112 72.8712 28.386 72.9052 28.4472C72.9392 28.5083 72.9867 28.5695 73.0547 28.6239C73.1227 28.6782 73.211 28.7258 73.3197 28.7734C73.4285 28.8209 73.5576 28.8617 73.7071 28.9025C73.911 28.9636 74.0877 29.0248 74.2372 29.0928C74.3867 29.1675 74.509 29.2423 74.6109 29.3374C74.7061 29.4258 74.7808 29.5277 74.8284 29.6364C74.876 29.752 74.8964 29.8743 74.8964 30.017C74.8964 30.1665 74.8692 30.2956 74.808 30.4179C74.7469 30.5403 74.6653 30.6422 74.5498 30.7238C74.441 30.8053 74.3051 30.8733 74.1488 30.9208C73.9925 30.9684 73.8226 30.9888 73.6255 30.9888C73.5168 30.9888 73.4013 30.9752 73.2926 30.9548C73.1838 30.9344 73.0751 30.9004 72.9732 30.8597C72.8712 30.8189 72.7761 30.7645 72.6877 30.7034C72.5994 30.6422 72.5246 30.5674 72.4567 30.4859C72.3887 30.4043 72.3411 30.316 72.3072 30.2141C72.2732 30.1121 72.2528 30.0034 72.2528 29.8811H72.7353C72.7353 30.0034 72.7625 30.1121 72.8101 30.2005C72.8576 30.2888 72.9256 30.3636 73.0071 30.4179C73.0887 30.4791 73.1838 30.5199 73.2926 30.5471C73.4013 30.5742 73.51 30.5878 73.6323 30.5878C73.8838 30.5878 74.0809 30.5335 74.21 30.4315C74.3527 30.3364 74.4207 30.1937 74.4207 30.017Z" fill="white"/>
<path d="M78.002 27.3055H79.0282C79.2661 27.3055 79.4835 27.3462 79.6806 27.4278C79.8777 27.5093 80.0476 27.6249 80.1835 27.7676C80.3262 27.9171 80.4349 28.0938 80.5097 28.3045C80.5844 28.5151 80.6252 28.753 80.6252 29.018V29.2355C80.6252 29.5005 80.5844 29.7316 80.5097 29.949C80.4349 30.1597 80.3194 30.3364 80.1835 30.4859C80.0408 30.6354 79.8709 30.7441 79.667 30.8257C79.4631 30.9072 79.2389 30.9412 78.9874 30.9412H78.002V27.3055ZM78.4777 30.5403H78.9806C79.1709 30.5403 79.3408 30.5063 79.4903 30.4451C79.6398 30.384 79.7553 30.2956 79.8573 30.1801C79.9524 30.0646 80.0272 29.9286 80.0815 29.7655C80.1291 29.6024 80.1563 29.4258 80.1563 29.2219V28.9976C80.1563 28.787 80.1291 28.6035 80.0815 28.4404C80.034 28.2773 79.9592 28.1414 79.8641 28.0258C79.7689 27.9103 79.6534 27.8287 79.5107 27.7676C79.368 27.7064 79.2117 27.6792 79.035 27.6792H78.4777V30.5403Z" fill="white"/>
<path d="M84.0163 29.2559H82.4397V30.5403H84.2677V30.9344H81.964V27.3055H84.2406V27.6996H82.4397V28.8617H84.0163V29.2559Z" fill="white"/>
<path d="M88.685 29.4665H87.8287V30.9344H87.3462V27.3055H88.5491C88.9568 27.3055 89.2762 27.4006 89.4937 27.5841C89.7112 27.7676 89.8267 28.0394 89.8267 28.3996C89.8267 28.6239 89.7655 28.8209 89.6432 28.9908C89.5209 29.1607 89.351 29.283 89.1335 29.3646L89.983 30.9072V30.9344H89.4665L88.685 29.4665ZM87.8355 29.0724H88.5695C88.6986 29.0724 88.8141 29.052 88.9093 29.018C89.0044 28.984 89.086 28.9365 89.1539 28.8753C89.2219 28.8141 89.2694 28.7394 89.3034 28.6578C89.3374 28.5763 89.351 28.4879 89.351 28.3928C89.351 28.2909 89.3374 28.1957 89.3034 28.1074C89.2694 28.019 89.2287 27.9511 89.1607 27.8831C89.0996 27.8219 89.0112 27.7744 88.9161 27.7404C88.8141 27.7064 88.6986 27.6928 88.5559 27.6928H87.8355V29.0724Z" fill="white"/>
<path d="M93.1634 29.2559H91.5868V30.5403H93.4149V30.9344H91.1111V27.3055H93.3945V27.6996H91.5868V28.8617H93.1634V29.2559Z" fill="white"/>
<path d="M96.6293 29.3306H95.107V30.9344H94.6245V27.3055H96.8739V27.6996H95.107V28.9365H96.6293V29.3306Z" fill="white"/>
<path d="M99.3952 29.4665H98.5389V30.9344H98.0564V27.3055H99.2593C99.667 27.3055 99.9864 27.4006 100.204 27.5841C100.421 27.7676 100.537 28.0394 100.537 28.3996C100.537 28.6239 100.476 28.8209 100.353 28.9908C100.231 29.1607 100.061 29.283 99.8437 29.3646L100.693 30.9072V30.9344H100.177L99.3952 29.4665ZM98.5389 29.0724H99.2729C99.402 29.0724 99.5175 29.052 99.6126 29.018C99.7078 28.984 99.7893 28.9365 99.8573 28.8753C99.9252 28.8141 99.9728 28.7394 100.007 28.6578C100.041 28.5763 100.054 28.4879 100.054 28.3928C100.054 28.2909 100.041 28.1957 100.007 28.1074C99.9728 28.019 99.932 27.9511 99.8641 27.8831C99.8029 27.8219 99.7146 27.7744 99.6194 27.7404C99.5175 27.7064 99.402 27.6928 99.2593 27.6928H98.5389V29.0724Z" fill="white"/>
<path d="M102.338 27.3055H101.855V30.9344H102.338V27.3055Z" fill="white"/>
<path d="M106.497 30.4587C106.463 30.5063 106.415 30.5607 106.354 30.6218C106.293 30.683 106.211 30.7373 106.109 30.7917C106.007 30.8461 105.885 30.8869 105.736 30.9276C105.586 30.9616 105.416 30.982 105.212 30.982C104.988 30.982 104.791 30.9412 104.601 30.8665C104.417 30.7917 104.254 30.6762 104.118 30.5267C103.982 30.3772 103.88 30.2005 103.806 29.983C103.731 29.7723 103.69 29.5277 103.69 29.2559V28.9704C103.69 28.6986 103.724 28.454 103.785 28.2433C103.846 28.0326 103.942 27.8491 104.064 27.7064C104.186 27.5569 104.343 27.4414 104.519 27.3666C104.703 27.2851 104.907 27.2511 105.144 27.2511C105.348 27.2511 105.532 27.2783 105.688 27.3327C105.844 27.387 105.98 27.4686 106.089 27.5637C106.198 27.6656 106.286 27.7812 106.354 27.9171C106.422 28.053 106.463 28.2025 106.483 28.3656H106.007C105.987 28.2705 105.96 28.1753 105.919 28.087C105.878 27.9986 105.824 27.9239 105.756 27.8559C105.688 27.788 105.607 27.7404 105.505 27.6996C105.403 27.6589 105.287 27.6453 105.144 27.6453C104.975 27.6453 104.825 27.6792 104.703 27.7404C104.58 27.8016 104.478 27.8899 104.397 28.0054C104.315 28.121 104.254 28.2569 104.22 28.42C104.179 28.5831 104.159 28.7666 104.159 28.9704V29.2627C104.159 29.4733 104.186 29.6568 104.234 29.8199C104.281 29.983 104.356 30.1257 104.444 30.2413C104.533 30.3568 104.642 30.4451 104.771 30.4995C104.9 30.5607 105.042 30.5878 105.192 30.5878C105.321 30.5878 105.43 30.581 105.518 30.5607C105.607 30.5403 105.688 30.5199 105.749 30.4927C105.81 30.4655 105.858 30.4383 105.899 30.4111C105.933 30.3772 105.967 30.35 105.994 30.3228V29.5073H105.151V29.1199H106.47V30.4587H106.497Z" fill="white"/>
<path d="M109.963 29.2559H108.386V30.5403H110.214V30.9344H107.91V27.3055H110.194V27.6996H108.386V28.8617H109.963V29.2559Z" fill="white"/>
<path d="M112.756 29.4665H111.899V30.9344H111.417V27.3055H112.62C113.028 27.3055 113.347 27.4006 113.564 27.5841C113.782 27.7676 113.897 28.0394 113.897 28.3996C113.897 28.6239 113.836 28.8209 113.714 28.9908C113.592 29.1607 113.422 29.283 113.204 29.3646L114.054 30.9072V30.9344H113.537L112.756 29.4665ZM112.64 29.0724C112.769 29.0724 112.885 29.052 112.98 29.018C113.075 28.984 113.157 28.9365 113.225 28.8753C113.293 28.8141 113.34 28.7394 113.367 28.6578C113.401 28.5763 113.415 28.4879 113.415 28.3928C113.415 28.2909 113.401 28.1957 113.367 28.1074C113.333 28.019 113.293 27.9511 113.225 27.8831C113.163 27.8219 113.075 27.7744 112.98 27.7404C112.878 27.7064 112.762 27.6928 112.62 27.6928H111.899V29.0724H112.64Z" fill="white"/>
<path d="M117.187 29.983H115.664L115.324 30.9276H114.828L116.215 27.2987H116.636L118.022 30.9276H117.533L117.187 29.983ZM115.807 29.5889H117.044L116.425 27.8899L115.807 29.5889Z" fill="white"/>
<path d="M121.767 29.7791C121.746 29.949 121.706 30.1121 121.638 30.2548C121.57 30.4044 121.488 30.5267 121.373 30.6354C121.264 30.7441 121.121 30.8257 120.958 30.8869C120.795 30.948 120.605 30.9752 120.387 30.9752C120.177 30.9752 119.98 30.9344 119.803 30.8529C119.626 30.7713 119.477 30.6626 119.354 30.5131C119.232 30.3636 119.137 30.1869 119.069 29.983C119.001 29.7791 118.967 29.5481 118.967 29.2898V28.9229C118.967 28.6714 119.001 28.4404 119.069 28.2297C119.137 28.0258 119.232 27.8491 119.361 27.6996C119.49 27.5501 119.64 27.4414 119.823 27.3598C120 27.2783 120.204 27.2375 120.428 27.2375C120.632 27.2375 120.815 27.2715 120.972 27.3259C121.128 27.387 121.264 27.4686 121.373 27.5773C121.481 27.686 121.57 27.8152 121.638 27.9647C121.706 28.1142 121.747 28.2773 121.76 28.454H121.278C121.257 28.3248 121.23 28.2161 121.196 28.1142C121.162 28.0122 121.108 27.9239 121.04 27.8559C120.972 27.7812 120.89 27.7268 120.788 27.6928C120.686 27.6521 120.571 27.6385 120.428 27.6385C120.265 27.6385 120.122 27.6724 120 27.7336C119.878 27.7948 119.776 27.8831 119.694 27.9986C119.613 28.1142 119.551 28.2433 119.511 28.4064C119.47 28.5627 119.45 28.7394 119.45 28.9297V29.2966C119.45 29.4733 119.47 29.6432 119.504 29.7995C119.538 29.9558 119.599 30.0917 119.674 30.2073C119.749 30.3228 119.85 30.4179 119.966 30.4859C120.082 30.5539 120.224 30.5878 120.387 30.5878C120.544 30.5878 120.673 30.5674 120.775 30.5335C120.877 30.4995 120.965 30.4451 121.033 30.3772C121.101 30.3092 121.155 30.2209 121.196 30.1189C121.23 30.017 121.264 29.9015 121.284 29.7791H121.767Z" fill="white"/>
<path d="M123.547 27.3055H123.072V30.9344H123.547V27.3055Z" fill="white"/>
<path d="M127.829 29.2355C127.829 29.5073 127.795 29.752 127.727 29.9694C127.659 30.1869 127.564 30.3704 127.435 30.5199C127.305 30.6694 127.156 30.7849 126.979 30.8665C126.803 30.948 126.599 30.9888 126.381 30.9888C126.164 30.9888 125.973 30.948 125.79 30.8665C125.613 30.7849 125.457 30.6694 125.328 30.5199C125.199 30.3704 125.097 30.1869 125.029 29.9694C124.954 29.752 124.92 29.5073 124.92 29.2355V29.0044C124.92 28.7326 124.954 28.4879 125.029 28.2705C125.097 28.053 125.199 27.8695 125.328 27.72C125.457 27.5705 125.607 27.455 125.79 27.3734C125.967 27.2919 126.171 27.2511 126.381 27.2511C126.605 27.2511 126.803 27.2919 126.986 27.3734C127.17 27.455 127.319 27.5705 127.448 27.72C127.577 27.8695 127.672 28.053 127.74 28.2705C127.808 28.4879 127.842 28.7326 127.842 29.0044V29.2355H127.829ZM127.353 29.0044C127.353 28.787 127.333 28.5967 127.285 28.4336C127.238 28.2705 127.176 28.1278 127.095 28.0122C127.013 27.8967 126.905 27.8152 126.782 27.754C126.66 27.6996 126.524 27.6656 126.368 27.6656C126.218 27.6656 126.089 27.6928 125.967 27.754C125.844 27.8084 125.742 27.8967 125.654 28.0122C125.566 28.1278 125.505 28.2637 125.457 28.4336C125.409 28.6035 125.389 28.787 125.389 29.0044V29.2355C125.389 29.4529 125.416 29.6432 125.464 29.8131C125.511 29.9762 125.579 30.1189 125.661 30.2345C125.749 30.35 125.851 30.4315 125.973 30.4927C126.096 30.5471 126.232 30.581 126.374 30.581C126.531 30.581 126.667 30.5539 126.789 30.4927C126.911 30.4315 127.013 30.35 127.095 30.2345C127.176 30.1189 127.244 29.983 127.285 29.8131C127.326 29.65 127.346 29.4529 127.346 29.2355V29.0044H127.353ZM126.599 26.3337H127.156L126.49 27.0676H126.116L126.599 26.3337Z" fill="white"/>
<path d="M131.947 30.9344H131.464L129.636 28.1346V30.9344H129.161V27.3055H129.636L131.471 30.1121V27.3055H131.947V30.9344Z" fill="white"/>
<path d="M49.018 36.5477H47.4414V37.8389H49.2695V38.2263H46.9657V34.5974H49.2491V34.9915H47.4414V36.1604H49.018V36.5477Z" fill="white"/>
<path d="M52.4839 36.6225H50.9548V38.2263H50.4791V34.5974H52.7285V34.9915H50.9548V36.2351H52.4839V36.6225Z" fill="white"/>
<path d="M54.4342 34.5974H53.9517V38.2263H54.4342V34.5974Z" fill="white"/>
<path d="M58.5865 37.0778C58.5661 37.2477 58.5253 37.4108 58.4574 37.5535C58.3962 37.703 58.3078 37.8253 58.1923 37.9341C58.0768 38.0428 57.9409 38.1244 57.7778 38.1855C57.6147 38.2467 57.4244 38.2739 57.2069 38.2739C56.9895 38.2739 56.7992 38.2331 56.6225 38.1515C56.4458 38.07 56.2963 37.9613 56.174 37.8118C56.0516 37.6622 55.9565 37.4856 55.8885 37.2817C55.8206 37.0778 55.7866 36.8468 55.7866 36.5885V36.2215C55.7866 35.9701 55.8206 35.739 55.8885 35.5284C55.9565 35.3245 56.0516 35.1478 56.1808 34.9983C56.3099 34.8488 56.4594 34.7401 56.6429 34.6585C56.8196 34.577 57.0234 34.5362 57.2477 34.5362C57.4516 34.5362 57.6351 34.5702 57.7914 34.6245C57.9477 34.6857 58.0836 34.7672 58.1923 34.876C58.301 34.9847 58.3894 35.1138 58.4574 35.2633C58.5185 35.4128 58.5593 35.5759 58.5797 35.7526H58.104C58.0836 35.6235 58.0564 35.5148 58.0224 35.4128C57.9816 35.3109 57.9341 35.2226 57.8661 35.1546C57.7982 35.0798 57.7166 35.0255 57.6147 34.9915C57.5127 34.9507 57.3972 34.9371 57.2545 34.9371C57.0914 34.9371 56.9487 34.9711 56.8264 35.0323C56.704 35.0934 56.6021 35.1818 56.5206 35.2973C56.439 35.4128 56.3778 35.542 56.3371 35.7051C56.2963 35.8614 56.2759 36.0381 56.2759 36.2283V36.5953C56.2759 36.772 56.2963 36.9419 56.3303 37.0982C56.3643 37.2545 56.4254 37.3904 56.5002 37.5059C56.5749 37.6215 56.6769 37.7166 56.7924 37.7846C56.9079 37.8525 57.0506 37.8865 57.2137 37.8865C57.37 37.8865 57.4924 37.8661 57.6011 37.8321C57.703 37.7982 57.7914 37.7438 57.8593 37.6758C57.9273 37.6079 57.9816 37.5195 58.0224 37.4176C58.0632 37.3157 58.0904 37.2001 58.1108 37.0778H58.5865Z" fill="white"/>
<path d="M60.367 34.5974H59.8845V38.2263H60.367V34.5974Z" fill="white"/>
<path d="M63.9076 36.5477H62.331V37.8389H64.159V38.2263H61.8552V34.5974H64.1318V34.9915H62.331V36.1604H63.9076V36.5477Z" fill="white"/>
<path d="M68.1617 38.2263H67.6792L65.8512 35.4264V38.2263H65.3687V34.5974H65.8512L67.6792 37.404V34.5974H68.1617V38.2263Z" fill="white"/>
<path d="M72.0557 34.9915H70.8936V38.2263H70.4111V34.9915H69.2491V34.5974H72.0557V34.9915Z" fill="white"/>
<path d="M75.2565 36.5477H73.6867V37.8389H75.5148V38.2263H73.2042V34.5974H75.4876V34.9915H73.6867V36.1604H75.2565V36.5477Z" fill="white"/>
</svg>
